# MagicaVoxel @ Ephtracy

# group
o 

# material
mtllib SmallBuilding01-6.mtl
usemtl palette

# normals
vn -1 0 0
vn 1 0 0
vn 0 0 1
vn 0 0 -1
vn 0 -1 0
vn 0 1 0

# texcoords
vt 0.908203 0.5
vt 0.912109 0.5
vt 0.939453 0.5
vt 0.943359 0.5

# verts
v -20.7 4.4 14.4
v -20.7 4.4 14.3
v -20.7 4.6 14.4
v -20.7 4.6 14.3
v -20.6 4 14.4
v -20.6 4 14.1
v -20.6 4.1 14.4
v -20.6 4.1 14.2
v -20.6 4.2 14.2
v -20.6 4.2 14.1
v -20.6 4.4 14.5
v -20.6 4.4 14.4
v -20.6 4.4 14.3
v -20.6 4.6 14.5
v -20.6 4.6 14.4
v -20.6 4.6 14.3
v -20.6 4.6 14.1
v -20.4 4.2 14.5
v -20.4 4.2 14.4
v -20.4 4.4 14.5
v -20.4 4.4 14.4
v -20 4.3 14.5
v -20 4.3 14.4
v -20 4.4 14.4
v -20 4.5 14.5
v -20 4.5 14.4
v -18.2 4.1 14.5
v -18.2 4.1 14.4
v -18.2 4.4 14.5
v -18.2 4.4 14.4
v -18.1 4.1 14.3
v -18.1 4.1 14.1
v -18.1 4.3 14.3
v -18.1 4.3 14.1
v -18.1 4.4 14.5
v -18.1 4.4 14.4
v -18.1 4.6 14.5
v -18.1 4.6 14.4
v -18.1 4.6 14.3
v -18.1 4.6 14.1
v -20.5 4.1 14.3
v -20.5 4.1 14.2
v -20.5 4.1 14.1
v -20.5 4.2 14.2
v -20.5 4.2 14.1
v -20.5 4.4 14.5
v -20.5 4.4 14.4
v -20.5 4.6 14.5
v -20.5 4.6 14.4
v -20.5 4.6 14.3
v -20.5 4.6 14.1
v -20.1 4.2 14.5
v -20.1 4.2 14.4
v -20.1 4.4 14.5
v -20.1 4.4 14.4
v -19.7 4.3 14.5
v -19.7 4.3 14.4
v -19.7 4.5 14.5
v -19.7 4.5 14.4
v -18 4 14.4
v -18 4 14.1
v -18 4.1 14.4
v -18 4.1 14.1
v -18 4.4 14.5
v -18 4.4 14.4
v -18 4.4 14.3
v -18 4.4 14.1
v -18 4.6 14.5
v -18 4.6 14.4
v -18 4.6 14.3
v -18 4.6 14.1
v -17.9 4.1 14.5
v -17.9 4.1 14.1
v -17.9 4.4 14.5
v -17.9 4.4 14.4
v -17.9 4.4 14.3
v -17.9 4.4 14.1
v -17.9 4.6 14.4
v -17.9 4.6 14.3
v -20.6 4.4 14.5
v -20.6 4.6 14.5
v -20.5 4.4 14.5
v -20.5 4.6 14.5
v -20.4 4.2 14.5
v -20.4 4.4 14.5
v -20.1 4.2 14.5
v -20.1 4.4 14.5
v -20 4.3 14.5
v -20 4.5 14.5
v -19.7 4.3 14.5
v -19.7 4.5 14.5
v -18.2 4.1 14.5
v -18.2 4.4 14.5
v -18.1 4.4 14.5
v -18.1 4.6 14.5
v -18 4.4 14.5
v -18 4.6 14.5
v -17.9 4.1 14.5
v -17.9 4.4 14.5
v -20.7 4.4 14.4
v -20.7 4.6 14.4
v -20.6 4 14.4
v -20.6 4.1 14.4
v -20.6 4.4 14.4
v -20.6 4.6 14.4
v -20.5 4.4 14.4
v -20.5 4.6 14.4
v -20.4 4.1 14.4
v -20.4 4.2 14.4
v -20.4 4.4 14.4
v -20.1 4.2 14.4
v -20.1 4.4 14.4
v -20 4.1 14.4
v -20 4.2 14.4
v -20 4.3 14.4
v -20 4.4 14.4
v -20 4.5 14.4
v -19.7 4.3 14.4
v -19.7 4.5 14.4
v -19.6 4.2 14.4
v -19.6 4.5 14.4
v -19.5 4.5 14.4
v -19.5 4.6 14.4
v -19.4 4.1 14.4
v -19.4 4.2 14.4
v -19.4 4.5 14.4
v -19.4 4.6 14.4
v -19.3 4.1 14.4
v -19.3 4.2 14.4
v -18.9 4.2 14.4
v -18.9 4.3 14.4
v -18.8 4.2 14.4
v -18.8 4.3 14.4
v -18.5 4.1 14.4
v -18.5 4.2 14.4
v -18.4 4.1 14.4
v -18.4 4.2 14.4
v -18.4 4.5 14.4
v -18.4 4.6 14.4
v -18.3 4.5 14.4
v -18.3 4.6 14.4
v -18.2 4.1 14.4
v -18.2 4.4 14.4
v -18.1 4.4 14.4
v -18.1 4.6 14.4
v -18 4 14.4
v -18 4.1 14.4
v -18 4.4 14.4
v -18 4.6 14.4
v -17.9 4.4 14.4
v -17.9 4.6 14.4
v -20.7 4.4 14.3
v -20.7 4.6 14.3
v -20.6 4.4 14.3
v -20.6 4.6 14.3
v -20.5 4.1 14.3
v -20.5 4.6 14.3
v -20.4 4.1 14.3
v -20.4 4.4 14.3
v -20 4.1 14.3
v -20 4.2 14.3
v -20 4.4 14.3
v -20 4.5 14.3
v -19.6 4.2 14.3
v -19.6 4.5 14.3
v -19.5 4.5 14.3
v -19.5 4.6 14.3
v -19.4 4.1 14.3
v -19.4 4.2 14.3
v -19.4 4.5 14.3
v -19.4 4.6 14.3
v -19.3 4.1 14.3
v -19.3 4.2 14.3
v -18.9 4.2 14.3
v -18.9 4.3 14.3
v -18.8 4.2 14.3
v -18.8 4.3 14.3
v -18.5 4.1 14.3
v -18.5 4.2 14.3
v -18.4 4.1 14.3
v -18.4 4.2 14.3
v -18.4 4.5 14.3
v -18.4 4.6 14.3
v -18.3 4.5 14.3
v -18.3 4.6 14.3
v -18.2 4.1 14.3
v -18.2 4.3 14.3
v -18.1 4.1 14.3
v -18.1 4.3 14.3
v -18.1 4.6 14.3
v -18 4.4 14.3
v -18 4.6 14.3
v -17.9 4.4 14.3
v -17.9 4.6 14.3
v -20.6 4 14.1
v -20.6 4.2 14.1
v -20.6 4.6 14.1
v -20.5 4 14.1
v -20.5 4.1 14.1
v -20.5 4.2 14.1
v -20.5 4.6 14.1
v -20.4 4 14.1
v -20.4 4.1 14.1
v -18.2 4 14.1
v -18.2 4.1 14.1
v -18.1 4 14.1
v -18.1 4.1 14.1
v -18.1 4.3 14.1
v -18.1 4.6 14.1
v -18 4 14.1
v -18 4.1 14.1
v -18 4.3 14.1
v -18 4.4 14.1
v -18 4.6 14.1
v -17.9 4.1 14.1
v -17.9 4.4 14.1
v -20.6 4 14.4
v -18 4 14.4
v -20.5 4 14.3
v -18.1 4 14.3
v -20.4 4 14.2
v -18.2 4 14.2
v -20.6 4 14.1
v -20.5 4 14.1
v -20.4 4 14.1
v -18.2 4 14.1
v -18.1 4 14.1
v -18 4 14.1
v -18.2 4.1 14.5
v -17.9 4.1 14.5
v -18.2 4.1 14.4
v -18 4.1 14.4
v -18 4.1 14.1
v -17.9 4.1 14.1
v -20.4 4.2 14.5
v -20.1 4.2 14.5
v -20.4 4.2 14.4
v -20.1 4.2 14.4
v -20 4.3 14.5
v -19.7 4.3 14.5
v -20 4.3 14.4
v -19.7 4.3 14.4
v -20.6 4.4 14.5
v -20.5 4.4 14.5
v -20.7 4.4 14.4
v -20.6 4.4 14.4
v -20.5 4.4 14.4
v -20.7 4.4 14.3
v -20.6 4.4 14.3
v -20.5 4.1 14.3
v -20.4 4.1 14.3
v -20 4.1 14.3
v -19.4 4.1 14.3
v -19.3 4.1 14.3
v -18.5 4.1 14.3
v -18.4 4.1 14.3
v -18.2 4.1 14.3
v -18.1 4.1 14.3
v -20.5 4.1 14.2
v -20.4 4.1 14.2
v -18.2 4.1 14.2
v -20.5 4.1 14.1
v -20.4 4.1 14.1
v -18.2 4.1 14.1
v -18.1 4.1 14.1
v -20.4 4.4 14.5
v -20.1 4.4 14.5
v -18.2 4.4 14.5
v -18.1 4.4 14.5
v -18 4.4 14.5
v -17.9 4.4 14.5
v -20.4 4.4 14.4
v -20.1 4.4 14.4
v -18.2 4.4 14.4
v -18.1 4.4 14.4
v -18 4.4 14.4
v -17.9 4.4 14.4
v -18 4.4 14.3
v -17.9 4.4 14.3
v -18 4.4 14.1
v -17.9 4.4 14.1
v -20 4.5 14.5
v -19.7 4.5 14.5
v -20 4.5 14.4
v -19.7 4.5 14.4
v -20.6 4.6 14.5
v -20.5 4.6 14.5
v -18.1 4.6 14.5
v -18 4.6 14.5
v -20.7 4.6 14.4
v -20.6 4.6 14.4
v -20.5 4.6 14.4
v -19.5 4.6 14.4
v -19.4 4.6 14.4
v -18.4 4.6 14.4
v -18.3 4.6 14.4
v -18.1 4.6 14.4
v -18 4.6 14.4
v -17.9 4.6 14.4
v -20.7 4.6 14.3
v -20.6 4.6 14.3
v -20.5 4.6 14.3
v -19.5 4.6 14.3
v -19.4 4.6 14.3
v -18.4 4.6 14.3
v -18.3 4.6 14.3
v -18.1 4.6 14.3
v -18 4.6 14.3
v -17.9 4.6 14.3
v -20.6 4.6 14.1
v -20.5 4.6 14.1
v -18.1 4.6 14.1
v -18 4.6 14.1

# faces
f 3/2/1 2/2/1 1/2/1
f 4/2/1 2/2/1 3/2/1
f 7/3/1 6/3/1 5/3/1
f 8/3/1 6/3/1 7/3/1
f 9/4/1 8/4/1 7/4/1
f 9/3/1 6/3/1 8/3/1
f 10/3/1 6/3/1 9/3/1
f 12/4/1 9/4/1 7/4/1
f 12/4/1 10/4/1 9/4/1
f 13/4/1 10/4/1 12/4/1
f 14/2/1 12/2/1 11/2/1
f 15/2/1 12/2/1 14/2/1
f 16/4/1 10/4/1 13/4/1
f 17/4/1 10/4/1 16/4/1
f 20/3/1 19/3/1 18/3/1
f 21/3/1 19/3/1 20/3/1
f 24/3/1 23/3/1 22/3/1
f 25/3/1 24/3/1 22/3/1
f 26/3/1 24/3/1 25/3/1
f 29/3/1 28/3/1 27/3/1
f 30/3/1 28/3/1 29/3/1
f 33/3/1 32/3/1 31/3/1
f 34/3/1 32/3/1 33/3/1
f 37/2/1 36/2/1 35/2/1
f 38/2/1 36/2/1 37/2/1
f 39/4/1 34/4/1 33/4/1
f 40/4/1 34/4/1 39/4/1
f 41/4/2 42/4/2 44/4/2
f 42/3/2 43/3/2 44/3/2
f 44/3/2 43/3/2 45/3/2
f 46/2/2 47/2/2 48/2/2
f 48/2/2 47/2/2 49/2/2
f 41/4/2 44/4/2 50/4/2
f 44/4/2 45/4/2 50/4/2
f 50/4/2 45/4/2 51/4/2
f 52/3/2 53/3/2 54/3/2
f 54/3/2 53/3/2 55/3/2
f 56/3/2 57/3/2 58/3/2
f 58/3/2 57/3/2 59/3/2
f 60/3/2 61/3/2 62/3/2
f 62/3/2 61/3/2 63/3/2
f 64/2/2 65/2/2 68/2/2
f 68/2/2 65/2/2 69/2/2
f 66/4/2 67/4/2 70/4/2
f 70/4/2 67/4/2 71/4/2
f 72/3/2 73/3/2 74/3/2
f 74/3/2 73/3/2 75/3/2
f 75/3/2 73/3/2 76/3/2
f 76/3/2 73/3/2 77/3/2
f 75/2/2 76/2/2 78/2/2
f 78/2/2 76/2/2 79/2/2
f 82/2/3 81/2/3 80/2/3
f 83/2/3 81/2/3 82/2/3
f 86/3/3 85/3/3 84/3/3
f 87/3/3 85/3/3 86/3/3
f 90/3/3 89/3/3 88/3/3
f 91/3/3 89/3/3 90/3/3
f 94/3/3 93/3/3 92/3/3
f 96/3/3 94/3/3 92/3/3
f 96/2/3 95/2/3 94/2/3
f 97/2/3 95/2/3 96/2/3
f 98/3/3 96/3/3 92/3/3
f 99/3/3 96/3/3 98/3/3
f 104/2/3 101/2/3 100/2/3
f 105/2/3 101/2/3 104/2/3
f 106/4/3 104/4/3 103/4/3
f 108/3/3 103/3/3 102/3/3
f 108/4/3 107/4/3 106/4/3
f 108/4/3 106/4/3 103/4/3
f 109/4/3 107/4/3 108/4/3
f 110/4/3 107/4/3 109/4/3
f 111/3/3 109/3/3 108/3/3
f 112/4/3 107/4/3 110/4/3
f 113/3/3 108/3/3 102/3/3
f 113/3/3 112/3/3 111/3/3
f 113/3/3 111/3/3 108/3/3
f 114/3/3 112/3/3 113/3/3
f 115/3/3 112/3/3 114/3/3
f 116/4/3 107/4/3 112/4/3
f 116/3/3 112/3/3 115/3/3
f 117/4/3 107/4/3 116/4/3
f 118/3/3 115/3/3 114/3/3
f 119/4/3 107/4/3 117/4/3
f 120/3/3 118/3/3 114/3/3
f 120/3/3 119/3/3 118/3/3
f 120/4/3 114/4/3 113/4/3
f 121/4/3 107/4/3 119/4/3
f 121/3/3 119/3/3 120/3/3
f 122/4/3 121/4/3 120/4/3
f 122/4/3 107/4/3 121/4/3
f 123/4/3 107/4/3 122/4/3
f 124/4/3 120/4/3 113/4/3
f 124/3/3 113/3/3 102/3/3
f 124/4/3 122/4/3 120/4/3
f 125/4/3 122/4/3 124/4/3
f 126/3/3 123/3/3 122/3/3
f 126/4/3 122/4/3 125/4/3
f 127/3/3 123/3/3 126/3/3
f 128/3/3 125/3/3 124/3/3
f 128/3/3 124/3/3 102/3/3
f 129/4/3 127/4/3 126/4/3
f 129/3/3 125/3/3 128/3/3
f 129/4/3 126/4/3 125/4/3
f 130/4/3 129/4/3 128/4/3
f 130/4/3 127/4/3 129/4/3
f 131/4/3 127/4/3 130/4/3
f 132/4/3 130/4/3 128/4/3
f 132/3/3 131/3/3 130/3/3
f 133/4/3 127/4/3 131/4/3
f 133/3/3 131/3/3 132/3/3
f 134/3/3 128/3/3 102/3/3
f 134/4/3 132/4/3 128/4/3
f 134/4/3 133/4/3 132/4/3
f 135/4/3 133/4/3 134/4/3
f 136/3/3 134/3/3 102/3/3
f 136/3/3 135/3/3 134/3/3
f 137/4/3 133/4/3 135/4/3
f 137/3/3 135/3/3 136/3/3
f 138/4/3 127/4/3 133/4/3
f 138/4/3 133/4/3 137/4/3
f 139/4/3 127/4/3 138/4/3
f 140/4/3 137/4/3 136/4/3
f 140/4/3 138/4/3 137/4/3
f 140/3/3 139/3/3 138/3/3
f 141/3/3 139/3/3 140/3/3
f 142/3/3 136/3/3 102/3/3
f 142/4/3 140/4/3 136/4/3
f 142/4/3 141/4/3 140/4/3
f 143/4/3 141/4/3 142/4/3
f 144/4/3 141/4/3 143/4/3
f 145/4/3 141/4/3 144/4/3
f 146/3/3 142/3/3 102/3/3
f 147/3/3 142/3/3 146/3/3
f 150/2/3 149/2/3 148/2/3
f 151/2/3 149/2/3 150/2/3
f 152/2/4 153/2/4 154/2/4
f 154/2/4 153/2/4 155/2/4
f 156/4/4 157/4/4 158/4/4
f 158/4/4 157/4/4 159/4/4
f 158/3/4 159/3/4 160/3/4
f 160/3/4 159/3/4 161/3/4
f 159/4/4 157/4/4 162/4/4
f 161/3/4 159/3/4 162/3/4
f 162/4/4 157/4/4 163/4/4
f 160/4/4 161/4/4 164/4/4
f 161/3/4 162/3/4 164/3/4
f 162/3/4 163/3/4 164/3/4
f 163/4/4 157/4/4 165/4/4
f 164/3/4 163/3/4 165/3/4
f 164/4/4 165/4/4 166/4/4
f 165/4/4 157/4/4 166/4/4
f 166/4/4 157/4/4 167/4/4
f 160/4/4 164/4/4 168/4/4
f 164/4/4 166/4/4 168/4/4
f 168/4/4 166/4/4 169/4/4
f 166/3/4 167/3/4 170/3/4
f 169/4/4 166/4/4 170/4/4
f 170/3/4 167/3/4 171/3/4
f 168/3/4 169/3/4 172/3/4
f 169/4/4 170/4/4 173/4/4
f 172/3/4 169/3/4 173/3/4
f 170/4/4 171/4/4 173/4/4
f 172/4/4 173/4/4 174/4/4
f 173/4/4 171/4/4 174/4/4
f 174/4/4 171/4/4 175/4/4
f 172/4/4 174/4/4 176/4/4
f 174/3/4 175/3/4 176/3/4
f 175/4/4 171/4/4 177/4/4
f 176/3/4 175/3/4 177/3/4
f 172/4/4 176/4/4 178/4/4
f 176/4/4 177/4/4 178/4/4
f 178/4/4 177/4/4 179/4/4
f 178/3/4 179/3/4 180/3/4
f 179/4/4 177/4/4 181/4/4
f 180/3/4 179/3/4 181/3/4
f 177/4/4 171/4/4 182/4/4
f 181/4/4 177/4/4 182/4/4
f 182/4/4 171/4/4 183/4/4
f 180/4/4 181/4/4 184/4/4
f 181/4/4 182/4/4 184/4/4
f 182/3/4 183/3/4 184/3/4
f 184/3/4 183/3/4 185/3/4
f 180/4/4 184/4/4 186/4/4
f 184/4/4 185/4/4 186/4/4
f 186/4/4 185/4/4 187/4/4
f 186/3/4 187/3/4 188/3/4
f 187/4/4 185/4/4 189/4/4
f 188/3/4 187/3/4 189/3/4
f 189/4/4 185/4/4 190/4/4
f 191/2/4 192/2/4 193/2/4
f 193/2/4 192/2/4 194/2/4
f 195/3/4 196/3/4 198/3/4
f 198/3/4 196/3/4 199/3/4
f 196/4/4 197/4/4 200/4/4
f 199/3/4 196/3/4 200/3/4
f 200/4/4 197/4/4 201/4/4
f 198/1/4 199/1/4 202/1/4
f 202/1/4 199/1/4 203/1/4
f 202/2/4 203/2/4 204/2/4
f 204/2/4 203/2/4 205/2/4
f 204/1/4 205/1/4 206/1/4
f 206/1/4 205/1/4 207/1/4
f 206/3/4 207/3/4 210/3/4
f 207/3/4 208/3/4 210/3/4
f 210/3/4 208/3/4 211/3/4
f 208/4/4 209/4/4 212/4/4
f 211/3/4 208/3/4 212/3/4
f 212/4/4 209/4/4 213/4/4
f 213/4/4 209/4/4 214/4/4
f 211/3/4 212/3/4 215/3/4
f 212/3/4 213/3/4 215/3/4
f 215/3/4 213/3/4 216/3/4
f 219/3/5 218/3/5 217/3/5
f 220/3/5 218/3/5 219/3/5
f 221/1/5 220/1/5 219/1/5
f 222/1/5 220/1/5 221/1/5
f 223/3/5 219/3/5 217/3/5
f 224/1/5 221/1/5 219/1/5
f 224/3/5 219/3/5 223/3/5
f 225/2/5 222/2/5 221/2/5
f 225/1/5 221/1/5 224/1/5
f 226/1/5 220/1/5 222/1/5
f 226/2/5 222/2/5 225/2/5
f 227/3/5 218/3/5 220/3/5
f 227/1/5 220/1/5 226/1/5
f 228/3/5 218/3/5 227/3/5
f 231/3/5 230/3/5 229/3/5
f 232/3/5 230/3/5 231/3/5
f 233/3/5 230/3/5 232/3/5
f 234/3/5 230/3/5 233/3/5
f 237/3/5 236/3/5 235/3/5
f 238/3/5 236/3/5 237/3/5
f 241/3/5 240/3/5 239/3/5
f 242/3/5 240/3/5 241/3/5
f 246/2/5 244/2/5 243/2/5
f 247/2/5 244/2/5 246/2/5
f 248/2/5 246/2/5 245/2/5
f 249/2/5 246/2/5 248/2/5
f 250/1/6 251/1/6 259/1/6
f 257/1/6 258/1/6 259/1/6
f 256/1/6 257/1/6 259/1/6
f 255/1/6 256/1/6 259/1/6
f 254/1/6 255/1/6 259/1/6
f 253/1/6 254/1/6 259/1/6
f 252/1/6 253/1/6 259/1/6
f 251/1/6 252/1/6 259/1/6
f 259/1/6 258/1/6 260/1/6
f 260/1/6 258/1/6 261/1/6
f 259/1/6 260/1/6 262/1/6
f 260/2/6 261/2/6 263/2/6
f 262/1/6 260/1/6 263/1/6
f 261/1/6 258/1/6 264/1/6
f 263/2/6 261/2/6 264/2/6
f 264/1/6 258/1/6 265/1/6
f 266/3/6 267/3/6 272/3/6
f 272/3/6 267/3/6 273/3/6
f 268/3/6 269/3/6 274/3/6
f 274/3/6 269/3/6 275/3/6
f 270/3/6 271/3/6 276/3/6
f 276/3/6 271/3/6 277/3/6
f 278/3/6 279/3/6 280/3/6
f 280/3/6 279/3/6 281/3/6
f 282/3/6 283/3/6 284/3/6
f 284/3/6 283/3/6 285/3/6
f 286/2/6 287/2/6 291/2/6
f 291/2/6 287/2/6 292/2/6
f 288/2/6 289/2/6 297/2/6
f 297/2/6 289/2/6 298/2/6
f 290/2/6 291/2/6 300/2/6
f 291/4/6 292/4/6 301/4/6
f 300/2/6 291/2/6 301/2/6
f 292/4/6 293/4/6 301/4/6
f 301/4/6 293/4/6 302/4/6
f 293/3/6 294/3/6 303/3/6
f 302/4/6 293/4/6 303/4/6
f 294/4/6 295/4/6 304/4/6
f 303/3/6 294/3/6 304/3/6
f 295/3/6 296/3/6 305/3/6
f 304/4/6 295/4/6 305/4/6
f 297/4/6 298/4/6 306/4/6
f 305/3/6 296/3/6 306/3/6
f 296/4/6 297/4/6 306/4/6
f 306/4/6 298/4/6 307/4/6
f 298/2/6 299/2/6 308/2/6
f 307/4/6 298/4/6 308/4/6
f 308/2/6 299/2/6 309/2/6
f 301/4/6 302/4/6 310/4/6
f 310/4/6 302/4/6 311/4/6
f 307/4/6 308/4/6 312/4/6
f 312/4/6 308/4/6 313/4/6
