# MagicaVoxel @ Ephtracy

# group
o 

# material
mtllib SmallBuilding01-12.mtl
usemtl palette

# normals
vn 0 0 -1
vn 0 0 1
vn -1 0 0
vn 1 0 0
vn 0 -1 0
vn 0 1 0

# texcoords
vt 0.939453 0.5
vt 0.943359 0.5

# verts
v -19.7 0 17.5
v -18.9 0 17.5
v -19.7 0.1 17.5
v -18.9 0.1 17.5
v -19.7 0 18
v -19.6 0 18
v -19 0 18
v -18.9 0 18
v -19.7 0.1 18
v -19.6 0.1 18
v -19 0.1 18
v -18.9 0.1 18
v -19.6 0 18.1
v -19.5 0 18.1
v -19.4 0 18.1
v -19.2 0 18.1
v -19 0 18.1
v -19.6 0.1 18.1
v -19.5 0.1 18.1
v -19.4 0.1 18.1
v -19.2 0.1 18.1
v -19 0.1 18.1
v -19.7 0 17.5
v -19.7 0.1 17.5
v -19.7 0 17.6
v -19.7 0.1 17.6
v -19.7 0 18
v -19.7 0.1 18
v -19.6 0 18
v -19.6 0.1 18
v -19.6 0 18.1
v -19.6 0.1 18.1
v -19 0 18
v -19 0.1 18
v -19 0 18.1
v -19 0.1 18.1
v -18.9 0 17.5
v -18.9 0.1 17.5
v -18.9 0 17.7
v -18.9 0.1 17.7
v -18.9 0 17.8
v -18.9 0.1 17.8
v -18.9 0 17.9
v -18.9 0.1 17.9
v -18.9 0 18
v -18.9 0.1 18
v -19.7 0 17.5
v -19.7 0 17.6
v -19.7 0 18
v -19.6 0 17.6
v -19.6 0 18
v -19.6 0 18.1
v -19.5 0 18
v -19.5 0 18.1
v -19.4 0 18
v -19.4 0 18.1
v -19.2 0 18
v -19.2 0 18.1
v -19 0 17.7
v -19 0 17.8
v -19 0 17.9
v -19 0 18
v -19 0 18.1
v -18.9 0 17.5
v -18.9 0 17.7
v -18.9 0 17.8
v -18.9 0 17.9
v -18.9 0 18
v -19.7 0.1 17.5
v -19.7 0.1 17.6
v -19.7 0.1 18
v -19.6 0.1 17.6
v -19.6 0.1 18
v -19.6 0.1 18.1
v -19.5 0.1 18
v -19.5 0.1 18.1
v -19.4 0.1 18
v -19.4 0.1 18.1
v -19.2 0.1 18
v -19.2 0.1 18.1
v -19 0.1 17.7
v -19 0.1 17.8
v -19 0.1 17.9
v -19 0.1 18
v -19 0.1 18.1
v -18.9 0.1 17.5
v -18.9 0.1 17.7
v -18.9 0.1 17.8
v -18.9 0.1 17.9
v -18.9 0.1 18

# faces
f 3/2/1 2/2/1 1/2/1
f 4/2/1 2/2/1 3/2/1
f 5/1/2 6/1/2 9/1/2
f 9/1/2 6/1/2 10/1/2
f 7/1/2 8/1/2 11/1/2
f 11/1/2 8/1/2 12/1/2
f 13/2/2 14/2/2 18/2/2
f 14/1/2 15/1/2 19/1/2
f 18/2/2 14/2/2 19/2/2
f 15/2/2 16/2/2 20/2/2
f 19/1/2 15/1/2 20/1/2
f 16/1/2 17/1/2 21/1/2
f 20/2/2 16/2/2 21/2/2
f 21/1/2 17/1/2 22/1/2
f 25/2/3 24/2/3 23/2/3
f 26/2/3 24/2/3 25/2/3
f 27/1/3 26/1/3 25/1/3
f 28/1/3 26/1/3 27/1/3
f 31/2/3 30/2/3 29/2/3
f 32/2/3 30/2/3 31/2/3
f 33/1/4 34/1/4 35/1/4
f 35/1/4 34/1/4 36/1/4
f 37/2/4 38/2/4 39/2/4
f 39/2/4 38/2/4 40/2/4
f 39/1/4 40/1/4 41/1/4
f 41/1/4 40/1/4 42/1/4
f 41/2/4 42/2/4 43/2/4
f 43/2/4 42/2/4 44/2/4
f 43/1/4 44/1/4 45/1/4
f 45/1/4 44/1/4 46/1/4
f 50/2/5 48/2/5 47/2/5
f 50/1/5 49/1/5 48/1/5
f 51/1/5 49/1/5 50/1/5
f 53/2/5 51/2/5 50/2/5
f 53/2/5 52/2/5 51/2/5
f 54/2/5 52/2/5 53/2/5
f 55/2/5 53/2/5 50/2/5
f 55/1/5 54/1/5 53/1/5
f 56/1/5 54/1/5 55/1/5
f 57/2/5 55/2/5 50/2/5
f 57/2/5 56/2/5 55/2/5
f 58/2/5 56/2/5 57/2/5
f 59/2/5 57/2/5 50/2/5
f 60/2/5 57/2/5 59/2/5
f 61/2/5 57/2/5 60/2/5
f 62/1/5 58/1/5 57/1/5
f 62/2/5 57/2/5 61/2/5
f 63/1/5 58/1/5 62/1/5
f 64/2/5 50/2/5 47/2/5
f 64/2/5 59/2/5 50/2/5
f 65/1/5 60/1/5 59/1/5
f 65/2/5 59/2/5 64/2/5
f 66/2/5 61/2/5 60/2/5
f 66/1/5 60/1/5 65/1/5
f 67/1/5 62/1/5 61/1/5
f 67/2/5 61/2/5 66/2/5
f 68/1/5 62/1/5 67/1/5
f 69/2/6 70/2/6 72/2/6
f 70/1/6 71/1/6 72/1/6
f 72/1/6 71/1/6 73/1/6
f 72/2/6 73/2/6 75/2/6
f 73/2/6 74/2/6 75/2/6
f 75/2/6 74/2/6 76/2/6
f 72/2/6 75/2/6 77/2/6
f 75/1/6 76/1/6 77/1/6
f 77/1/6 76/1/6 78/1/6
f 72/2/6 77/2/6 79/2/6
f 77/2/6 78/2/6 79/2/6
f 79/2/6 78/2/6 80/2/6
f 72/2/6 79/2/6 81/2/6
f 81/2/6 79/2/6 82/2/6
f 82/2/6 79/2/6 83/2/6
f 79/1/6 80/1/6 84/1/6
f 83/2/6 79/2/6 84/2/6
f 84/1/6 80/1/6 85/1/6
f 69/2/6 72/2/6 86/2/6
f 72/2/6 81/2/6 86/2/6
f 81/1/6 82/1/6 87/1/6
f 86/2/6 81/2/6 87/2/6
f 82/2/6 83/2/6 88/2/6
f 87/1/6 82/1/6 88/1/6
f 83/1/6 84/1/6 89/1/6
f 88/2/6 83/2/6 89/2/6
f 89/1/6 84/1/6 90/1/6
