# MagicaVoxel @ Ephtracy

# group
o 

# material
mtllib SmallBuilding01-8.mtl
usemtl palette

# normals
vn 0 0 -1
vn 0 0 1
vn -1 0 0
vn 1 0 0
vn 0 -1 0
vn 0 1 0

# texcoords
vt 0.908203 0.5
vt 0.912109 0.5
vt 0.939453 0.5
vt 0.943359 0.5

# verts
v -14.6 4 14.1
v -14.5 4 14.1
v -14.4 4 14.1
v -12.2 4 14.1
v -12.1 4 14.1
v -12 4 14.1
v -14.6 4.1 14.1
v -14.5 4.1 14.1
v -14.4 4.1 14.1
v -12.2 4.1 14.1
v -12.1 4.1 14.1
v -12 4.1 14.1
v -11.9 4.1 14.1
v -12.1 4.4 14.1
v -12 4.4 14.1
v -11.9 4.4 14.1
v -14.6 4.6 14.1
v -14.5 4.6 14.1
v -12.1 4.6 14.1
v -12 4.6 14.1
v -14.7 4.1 14.2
v -14.6 4.1 14.2
v -14.7 4.4 14.2
v -14.6 4.4 14.2
v -14.5 4.1 14.3
v -14.1 4.1 14.3
v -14 4.1 14.3
v -13.6 4.1 14.3
v -13.2 4.1 14.3
v -13.1 4.1 14.3
v -12.6 4.1 14.3
v -12.5 4.1 14.3
v -12.2 4.1 14.3
v -12.1 4.1 14.3
v -13.2 4.2 14.3
v -13.1 4.2 14.3
v -13 4.2 14.3
v -12.6 4.2 14.3
v -12.5 4.2 14.3
v -12.2 4.2 14.3
v -14.5 4.3 14.3
v -14.2 4.3 14.3
v -14 4.3 14.3
v -13.6 4.3 14.3
v -13.1 4.3 14.3
v -13 4.3 14.3
v -14.7 4.4 14.3
v -14.6 4.4 14.3
v -14.2 4.4 14.3
v -14.1 4.4 14.3
v -12.1 4.4 14.3
v -12 4.4 14.3
v -11.9 4.4 14.3
v -12.5 4.5 14.3
v -12.1 4.5 14.3
v -14.7 4.6 14.3
v -14.6 4.6 14.3
v -14.5 4.6 14.3
v -12.1 4.6 14.3
v -12 4.6 14.3
v -11.9 4.6 14.3
v -14.6 4 14.4
v -12 4 14.4
v -14.6 4.1 14.4
v -14.2 4.1 14.4
v -14.1 4.1 14.4
v -14 4.1 14.4
v -13.7 4.1 14.4
v -13.6 4.1 14.4
v -13.2 4.1 14.4
v -13.1 4.1 14.4
v -12.6 4.1 14.4
v -12.5 4.1 14.4
v -12.2 4.1 14.4
v -12.1 4.1 14.4
v -12 4.1 14.4
v -13.2 4.2 14.4
v -13.1 4.2 14.4
v -13 4.2 14.4
v -12.6 4.2 14.4
v -12.5 4.2 14.4
v -12.2 4.2 14.4
v -14 4.3 14.4
v -13.7 4.3 14.4
v -13.6 4.3 14.4
v -13.1 4.3 14.4
v -13 4.3 14.4
v -12.5 4.3 14.4
v -12.2 4.3 14.4
v -14.7 4.4 14.4
v -14.6 4.4 14.4
v -14.5 4.4 14.4
v -14.2 4.4 14.4
v -14.1 4.4 14.4
v -12.1 4.4 14.4
v -12 4.4 14.4
v -11.9 4.4 14.4
v -12.5 4.5 14.4
v -12.2 4.5 14.4
v -12.1 4.5 14.4
v -14.7 4.6 14.4
v -14.6 4.6 14.4
v -14.5 4.6 14.4
v -12.1 4.6 14.4
v -12 4.6 14.4
v -11.9 4.6 14.4
v -14.7 4.1 14.5
v -14.2 4.1 14.5
v -14 4.1 14.5
v -13.7 4.1 14.5
v -12.1 4.1 14.5
v -11.9 4.1 14.5
v -14 4.3 14.5
v -13.7 4.3 14.5
v -12.5 4.3 14.5
v -12.2 4.3 14.5
v -14.7 4.4 14.5
v -14.6 4.4 14.5
v -14.5 4.4 14.5
v -14.2 4.4 14.5
v -12.1 4.4 14.5
v -12 4.4 14.5
v -11.9 4.4 14.5
v -12.5 4.5 14.5
v -12.2 4.5 14.5
v -14.6 4.6 14.5
v -14.5 4.6 14.5
v -12.1 4.6 14.5
v -12 4.6 14.5
v -14.7 4.1 14.2
v -14.7 4.4 14.2
v -14.7 4.4 14.3
v -14.7 4.6 14.3
v -14.7 4.4 14.4
v -14.7 4.6 14.4
v -14.7 4.1 14.5
v -14.7 4.4 14.5
v -14.6 4 14.1
v -14.6 4.1 14.1
v -14.6 4.6 14.1
v -14.6 4.1 14.2
v -14.6 4.4 14.2
v -14.6 4.4 14.3
v -14.6 4.6 14.3
v -14.6 4 14.4
v -14.6 4.1 14.4
v -14.6 4.4 14.4
v -14.6 4.6 14.4
v -14.6 4.4 14.5
v -14.6 4.6 14.5
v -14 4.1 14.4
v -14 4.3 14.4
v -14 4.1 14.5
v -14 4.3 14.5
v -12.5 4.3 14.4
v -12.5 4.5 14.4
v -12.5 4.3 14.5
v -12.5 4.5 14.5
v -12.1 4.1 14.1
v -12.1 4.4 14.1
v -12.1 4.6 14.1
v -12.1 4.1 14.3
v -12.1 4.4 14.3
v -12.1 4.5 14.3
v -12.1 4.6 14.3
v -12.1 4.1 14.4
v -12.1 4.4 14.4
v -12.1 4.5 14.4
v -12.1 4.6 14.4
v -12.1 4.1 14.5
v -12.1 4.4 14.5
v -12.1 4.6 14.5
v -14.5 4.1 14.1
v -14.5 4.6 14.1
v -14.5 4.1 14.2
v -14.5 4.3 14.2
v -14.5 4.1 14.3
v -14.5 4.3 14.3
v -14.5 4.6 14.3
v -14.5 4.4 14.4
v -14.5 4.6 14.4
v -14.5 4.4 14.5
v -14.5 4.6 14.5
v -14.2 4.1 14.4
v -14.2 4.4 14.4
v -14.2 4.1 14.5
v -14.2 4.4 14.5
v -13.7 4.1 14.4
v -13.7 4.3 14.4
v -13.7 4.1 14.5
v -13.7 4.3 14.5
v -12.2 4.3 14.4
v -12.2 4.5 14.4
v -12.2 4.3 14.5
v -12.2 4.5 14.5
v -12 4 14.1
v -12 4.1 14.1
v -12 4.4 14.1
v -12 4.6 14.1
v -12 4.4 14.3
v -12 4.6 14.3
v -12 4 14.4
v -12 4.1 14.4
v -12 4.4 14.4
v -12 4.6 14.4
v -12 4.4 14.5
v -12 4.6 14.5
v -11.9 4.1 14.1
v -11.9 4.4 14.1
v -11.9 4.4 14.3
v -11.9 4.6 14.3
v -11.9 4.4 14.4
v -11.9 4.6 14.4
v -11.9 4.1 14.5
v -11.9 4.4 14.5
v -14.6 4 14.1
v -14.6 4 14.4
v -14.5 4 14.1
v -14.5 4 14.3
v -14.4 4 14.1
v -14.4 4 14.2
v -12.2 4 14.1
v -12.2 4 14.2
v -12.1 4 14.1
v -12.1 4 14.3
v -12 4 14.1
v -12 4 14.4
v -14.7 4.1 14.2
v -14.7 4.1 14.5
v -14.6 4.1 14.2
v -14.6 4.1 14.4
v -14.2 4.1 14.4
v -14.2 4.1 14.5
v -14 4.1 14.4
v -14 4.1 14.5
v -13.7 4.1 14.4
v -13.7 4.1 14.5
v -12.1 4.1 14.4
v -12.1 4.1 14.5
v -12 4.1 14.1
v -12 4.1 14.4
v -11.9 4.1 14.1
v -11.9 4.1 14.5
v -12.5 4.3 14.4
v -12.5 4.3 14.5
v -12.2 4.3 14.4
v -12.2 4.3 14.5
v -14.5 4.1 14.1
v -14.5 4.1 14.2
v -14.5 4.1 14.3
v -14.4 4.1 14.1
v -14.4 4.1 14.2
v -14.1 4.1 14.3
v -14 4.1 14.3
v -13.6 4.1 14.3
v -13.2 4.1 14.3
v -13.1 4.1 14.3
v -12.6 4.1 14.3
v -12.5 4.1 14.3
v -12.2 4.1 14.1
v -12.2 4.1 14.2
v -12.2 4.1 14.3
v -12.1 4.1 14.1
v -12.1 4.1 14.3
v -14 4.3 14.4
v -14 4.3 14.5
v -13.7 4.3 14.4
v -13.7 4.3 14.5
v -14.7 4.4 14.2
v -14.7 4.4 14.3
v -14.7 4.4 14.4
v -14.7 4.4 14.5
v -14.6 4.4 14.2
v -14.6 4.4 14.3
v -14.6 4.4 14.4
v -14.6 4.4 14.5
v -14.5 4.4 14.4
v -14.5 4.4 14.5
v -14.2 4.4 14.4
v -14.2 4.4 14.5
v -12 4.4 14.1
v -12 4.4 14.3
v -12 4.4 14.4
v -12 4.4 14.5
v -11.9 4.4 14.1
v -11.9 4.4 14.3
v -11.9 4.4 14.4
v -11.9 4.4 14.5
v -12.5 4.5 14.4
v -12.5 4.5 14.5
v -12.2 4.5 14.4
v -12.2 4.5 14.5
v -14.7 4.6 14.3
v -14.7 4.6 14.4
v -14.6 4.6 14.1
v -14.6 4.6 14.3
v -14.6 4.6 14.4
v -14.6 4.6 14.5
v -14.5 4.6 14.1
v -14.5 4.6 14.3
v -14.5 4.6 14.4
v -14.5 4.6 14.5
v -12.1 4.6 14.1
v -12.1 4.6 14.3
v -12.1 4.6 14.4
v -12.1 4.6 14.5
v -12 4.6 14.1
v -12 4.6 14.3
v -12 4.6 14.4
v -12 4.6 14.5
v -11.9 4.6 14.3
v -11.9 4.6 14.4

# faces
f 7/3/1 2/3/1 1/3/1
f 8/1/1 3/1/1 2/1/1
f 8/3/1 2/3/1 7/3/1
f 9/2/1 4/2/1 3/2/1
f 9/1/1 3/1/1 8/1/1
f 10/1/1 5/1/1 4/1/1
f 10/2/1 4/2/1 9/2/1
f 11/3/1 6/3/1 5/3/1
f 11/1/1 5/1/1 10/1/1
f 12/3/1 6/3/1 11/3/1
f 14/3/1 13/3/1 12/3/1
f 14/3/1 12/3/1 11/3/1
f 15/3/1 13/3/1 14/3/1
f 16/3/1 13/3/1 15/3/1
f 17/4/1 8/4/1 7/4/1
f 18/4/1 8/4/1 17/4/1
f 19/4/1 15/4/1 14/4/1
f 20/4/1 15/4/1 19/4/1
f 23/3/1 22/3/1 21/3/1
f 24/3/1 22/3/1 23/3/1
f 35/4/1 29/4/1 28/4/1
f 35/3/1 30/3/1 29/3/1
f 36/4/1 31/4/1 30/4/1
f 36/3/1 30/3/1 35/3/1
f 37/4/1 31/4/1 36/4/1
f 38/3/1 32/3/1 31/3/1
f 38/4/1 31/4/1 37/4/1
f 39/4/1 33/4/1 32/4/1
f 39/3/1 32/3/1 38/3/1
f 40/3/1 34/3/1 33/3/1
f 40/4/1 33/4/1 39/4/1
f 41/3/1 26/3/1 25/3/1
f 42/3/1 26/3/1 41/3/1
f 43/4/1 27/4/1 26/4/1
f 43/3/1 28/3/1 27/3/1
f 44/4/1 35/4/1 28/4/1
f 44/3/1 28/3/1 43/3/1
f 44/4/1 36/4/1 35/4/1
f 45/3/1 37/3/1 36/3/1
f 45/4/1 36/4/1 44/4/1
f 46/4/1 39/4/1 38/4/1
f 46/3/1 37/3/1 45/3/1
f 46/4/1 38/4/1 37/4/1
f 49/3/1 26/3/1 42/3/1
f 49/4/1 42/4/1 41/4/1
f 50/4/1 45/4/1 44/4/1
f 50/3/1 26/3/1 49/3/1
f 50/4/1 43/4/1 26/4/1
f 50/4/1 46/4/1 45/4/1
f 50/4/1 44/4/1 43/4/1
f 51/3/1 34/3/1 40/3/1
f 51/3/1 40/3/1 39/3/1
f 54/4/1 46/4/1 50/4/1
f 54/4/1 39/4/1 46/4/1
f 54/3/1 51/3/1 39/3/1
f 54/4/1 50/4/1 49/4/1
f 55/3/1 51/3/1 54/3/1
f 56/2/1 48/2/1 47/2/1
f 57/2/1 48/2/1 56/2/1
f 58/4/1 49/4/1 41/4/1
f 58/4/1 54/4/1 49/4/1
f 58/4/1 55/4/1 54/4/1
f 59/4/1 55/4/1 58/4/1
f 60/2/1 53/2/1 52/2/1
f 61/2/1 53/2/1 60/2/1
f 62/3/2 63/3/2 64/3/2
f 64/3/2 63/3/2 65/3/2
f 65/3/2 63/3/2 66/3/2
f 66/3/2 63/3/2 67/3/2
f 67/3/2 63/3/2 68/3/2
f 68/3/2 63/3/2 69/3/2
f 69/3/2 63/3/2 70/3/2
f 70/3/2 63/3/2 71/3/2
f 71/3/2 63/3/2 72/3/2
f 72/3/2 63/3/2 73/3/2
f 73/3/2 63/3/2 74/3/2
f 74/3/2 63/3/2 75/3/2
f 75/3/2 63/3/2 76/3/2
f 69/4/2 70/4/2 77/4/2
f 70/3/2 71/3/2 77/3/2
f 71/4/2 72/4/2 78/4/2
f 77/3/2 71/3/2 78/3/2
f 78/4/2 72/4/2 79/4/2
f 72/3/2 73/3/2 80/3/2
f 79/4/2 72/4/2 80/4/2
f 73/4/2 74/4/2 81/4/2
f 80/3/2 73/3/2 81/3/2
f 74/3/2 75/3/2 82/3/2
f 81/4/2 74/4/2 82/4/2
f 66/4/2 67/4/2 83/4/2
f 68/3/2 69/3/2 84/3/2
f 69/4/2 77/4/2 85/4/2
f 77/4/2 78/4/2 85/4/2
f 84/3/2 69/3/2 85/3/2
f 78/3/2 79/3/2 86/3/2
f 85/4/2 78/4/2 86/4/2
f 80/4/2 81/4/2 87/4/2
f 86/3/2 79/3/2 87/3/2
f 79/4/2 80/4/2 87/4/2
f 81/3/2 82/3/2 88/3/2
f 87/4/2 81/4/2 88/4/2
f 82/3/2 75/3/2 89/3/2
f 88/3/2 82/3/2 89/3/2
f 65/3/2 66/3/2 93/3/2
f 87/4/2 88/4/2 94/4/2
f 85/4/2 86/4/2 94/4/2
f 93/3/2 66/3/2 94/3/2
f 66/4/2 83/4/2 94/4/2
f 86/4/2 87/4/2 94/4/2
f 84/4/2 85/4/2 94/4/2
f 83/4/2 84/4/2 94/4/2
f 89/3/2 75/3/2 95/3/2
f 92/4/2 93/4/2 98/4/2
f 94/4/2 88/4/2 98/4/2
f 93/4/2 94/4/2 98/4/2
f 89/3/2 95/3/2 99/3/2
f 99/3/2 95/3/2 100/3/2
f 90/2/2 91/2/2 101/2/2
f 101/2/2 91/2/2 102/2/2
f 92/4/2 98/4/2 103/4/2
f 98/4/2 99/4/2 103/4/2
f 99/4/2 100/4/2 103/4/2
f 103/4/2 100/4/2 104/4/2
f 96/2/2 97/2/2 105/2/2
f 105/2/2 97/2/2 106/2/2
f 109/3/2 110/3/2 113/3/2
f 113/3/2 110/3/2 114/3/2
f 107/3/2 108/3/2 117/3/2
f 117/3/2 108/3/2 118/3/2
f 118/3/2 108/3/2 119/3/2
f 119/3/2 108/3/2 120/3/2
f 111/3/2 112/3/2 121/3/2
f 121/3/2 112/3/2 122/3/2
f 122/3/2 112/3/2 123/3/2
f 115/3/2 116/3/2 124/3/2
f 124/3/2 116/3/2 125/3/2
f 118/2/2 119/2/2 126/2/2
f 126/2/2 119/2/2 127/2/2
f 121/2/2 122/2/2 128/2/2
f 128/2/2 122/2/2 129/2/2
f 132/3/3 131/3/3 130/3/3
f 134/3/3 132/3/3 130/3/3
f 134/2/3 133/2/3 132/2/3
f 135/2/3 133/2/3 134/2/3
f 136/3/3 134/3/3 130/3/3
f 137/3/3 134/3/3 136/3/3
f 141/3/3 139/3/3 138/3/3
f 141/4/3 140/4/3 139/4/3
f 142/4/3 140/4/3 141/4/3
f 143/4/3 140/4/3 142/4/3
f 144/4/3 140/4/3 143/4/3
f 145/3/3 141/3/3 138/3/3
f 146/3/3 141/3/3 145/3/3
f 149/2/3 148/2/3 147/2/3
f 150/2/3 148/2/3 149/2/3
f 153/3/3 152/3/3 151/3/3
f 154/3/3 152/3/3 153/3/3
f 157/3/3 156/3/3 155/3/3
f 158/3/3 156/3/3 157/3/3
f 162/3/3 160/3/3 159/3/3
f 163/4/3 161/4/3 160/4/3
f 163/3/3 160/3/3 162/3/3
f 164/4/3 161/4/3 163/4/3
f 165/4/3 161/4/3 164/4/3
f 170/3/3 167/3/3 166/3/3
f 171/2/3 169/2/3 168/2/3
f 171/3/3 167/3/3 170/3/3
f 171/2/3 168/2/3 167/2/3
f 172/2/3 169/2/3 171/2/3
f 173/4/4 174/4/4 175/4/4
f 175/4/4 174/4/4 176/4/4
f 175/3/4 176/3/4 177/3/4
f 176/4/4 174/4/4 178/4/4
f 177/3/4 176/3/4 178/3/4
f 178/4/4 174/4/4 179/4/4
f 180/2/4 181/2/4 182/2/4
f 182/2/4 181/2/4 183/2/4
f 184/3/4 185/3/4 186/3/4
f 186/3/4 185/3/4 187/3/4
f 188/3/4 189/3/4 190/3/4
f 190/3/4 189/3/4 191/3/4
f 192/3/4 193/3/4 194/3/4
f 194/3/4 193/3/4 195/3/4
f 198/4/4 199/4/4 200/4/4
f 200/4/4 199/4/4 201/4/4
f 196/3/4 197/3/4 202/3/4
f 202/3/4 197/3/4 203/3/4
f 204/2/4 205/2/4 206/2/4
f 206/2/4 205/2/4 207/2/4
f 208/3/4 209/3/4 210/3/4
f 208/3/4 210/3/4 212/3/4
f 210/2/4 211/2/4 212/2/4
f 212/2/4 211/2/4 213/2/4
f 208/3/4 212/3/4 214/3/4
f 214/3/4 212/3/4 215/3/4
f 218/3/5 217/3/5 216/3/5
f 219/3/5 217/3/5 218/3/5
f 220/1/5 219/1/5 218/1/5
f 221/1/5 219/1/5 220/1/5
f 222/2/5 221/2/5 220/2/5
f 223/1/5 219/1/5 221/1/5
f 223/2/5 221/2/5 222/2/5
f 224/1/5 223/1/5 222/1/5
f 225/3/5 217/3/5 219/3/5
f 225/1/5 223/1/5 224/1/5
f 225/1/5 219/1/5 223/1/5
f 226/3/5 225/3/5 224/3/5
f 227/3/5 217/3/5 225/3/5
f 227/3/5 225/3/5 226/3/5
f 230/3/5 229/3/5 228/3/5
f 231/3/5 229/3/5 230/3/5
f 232/3/5 229/3/5 231/3/5
f 233/3/5 229/3/5 232/3/5
f 236/3/5 235/3/5 234/3/5
f 237/3/5 235/3/5 236/3/5
f 241/3/5 239/3/5 238/3/5
f 242/3/5 241/3/5 240/3/5
f 243/3/5 239/3/5 241/3/5
f 243/3/5 241/3/5 242/3/5
f 246/3/5 245/3/5 244/3/5
f 247/3/5 245/3/5 246/3/5
f 248/1/6 249/1/6 251/1/6
f 249/1/6 250/1/6 251/1/6
f 251/1/6 250/1/6 252/1/6
f 252/1/6 250/1/6 253/1/6
f 252/1/6 253/1/6 254/1/6
f 252/1/6 254/1/6 255/1/6
f 252/1/6 255/1/6 256/1/6
f 252/1/6 256/1/6 257/1/6
f 252/1/6 257/1/6 258/1/6
f 252/1/6 258/1/6 259/1/6
f 251/2/6 252/2/6 260/2/6
f 252/1/6 259/1/6 261/1/6
f 260/2/6 252/2/6 261/2/6
f 261/1/6 259/1/6 262/1/6
f 260/1/6 261/1/6 263/1/6
f 261/1/6 262/1/6 263/1/6
f 263/1/6 262/1/6 264/1/6
f 265/3/6 266/3/6 267/3/6
f 267/3/6 266/3/6 268/3/6
f 269/3/6 270/3/6 273/3/6
f 273/3/6 270/3/6 274/3/6
f 271/3/6 272/3/6 275/3/6
f 275/3/6 272/3/6 276/3/6
f 277/3/6 278/3/6 279/3/6
f 279/3/6 278/3/6 280/3/6
f 281/3/6 282/3/6 285/3/6
f 285/3/6 282/3/6 286/3/6
f 283/3/6 284/3/6 287/3/6
f 287/3/6 284/3/6 288/3/6
f 289/3/6 290/3/6 291/3/6
f 291/3/6 290/3/6 292/3/6
f 293/2/6 294/2/6 296/2/6
f 296/2/6 294/2/6 297/2/6
f 295/4/6 296/4/6 299/4/6
f 296/4/6 297/4/6 299/4/6
f 299/4/6 297/4/6 300/4/6
f 297/2/6 298/2/6 301/2/6
f 300/4/6 297/4/6 301/4/6
f 301/2/6 298/2/6 302/2/6
f 300/4/6 301/4/6 304/4/6
f 304/4/6 301/4/6 305/4/6
f 303/4/6 304/4/6 307/4/6
f 304/4/6 305/4/6 307/4/6
f 307/4/6 305/4/6 308/4/6
f 305/2/6 306/2/6 309/2/6
f 308/4/6 305/4/6 309/4/6
f 309/2/6 306/2/6 310/2/6
f 308/2/6 309/2/6 311/2/6
f 311/2/6 309/2/6 312/2/6
