# MagicaVoxel @ Ephtracy

# group
o 

# material
mtllib TinyBuilding01-4.mtl
usemtl palette

# normals
vn -1 0 0
vn 1 0 0
vn 0 0 1
vn 0 0 -1
vn 0 -1 0
vn 0 1 0

# texcoords
vt 0.908203 0.5
vt 0.912109 0.5
vt 0.939453 0.5
vt 0.943359 0.5

# verts
v -0.65 -0.1 0.9
v -0.65 -0.1 -0.9
v -0.65 0 0.9
v -0.65 0 -0.9
v -0.65 0.1 0.9
v -0.65 0.1 -0.9
v 0.55 0 0.8
v 0.55 0 -0.8
v 0.55 0.1 0.8
v 0.55 0.1 -0.8
v -0.55 0 0.8
v -0.55 0 0.3
v -0.55 0 -0.2
v -0.55 0 -0.7
v -0.55 0 -0.8
v -0.55 0.1 0.8
v -0.55 0.1 -0.8
v 0.65 -0.1 0.9
v 0.65 -0.1 -0.9
v 0.65 0 0.9
v 0.65 0 -0.9
v 0.65 0.1 0.9
v 0.65 0.1 -0.9
v -0.65 -0.1 0.9
v -0.65 0 0.9
v -0.65 0.1 0.9
v -0.55 -0.1 0.9
v -0.55 0 0.9
v -0.45 -0.1 0.9
v -0.45 0 0.9
v 0.65 -0.1 0.9
v 0.65 0 0.9
v 0.65 0.1 0.9
v -0.55 0 -0.8
v -0.55 0.1 -0.8
v 0.55 0 -0.8
v 0.55 0.1 -0.8
v -0.55 0 0.8
v -0.55 0.1 0.8
v 0.45 0 0.8
v 0.55 0 0.8
v 0.55 0.1 0.8
v -0.65 -0.1 -0.9
v -0.65 0 -0.9
v -0.65 0.1 -0.9
v 0.65 -0.1 -0.9
v 0.65 0 -0.9
v 0.65 0.1 -0.9
v -0.65 -0.1 0.9
v -0.55 -0.1 0.9
v -0.45 -0.1 0.9
v 0.65 -0.1 0.9
v -0.55 -0.1 0.8
v -0.45 -0.1 0.8
v 0.45 -0.1 0.8
v 0.55 -0.1 0.8
v -0.05 -0.1 0.7
v 0.05 -0.1 0.7
v -0.25 -0.1 0.5
v -0.15 -0.1 0.5
v -0.05 -0.1 0.4
v 0.05 -0.1 0.4
v -0.55 -0.1 0.3
v -0.45 -0.1 0.3
v 0.35 -0.1 0.3
v 0.45 -0.1 0.3
v -0.25 -0.1 0.2
v -0.15 -0.1 0.2
v -0.05 -0.1 0.2
v 0.05 -0.1 -0.1
v 0.15 -0.1 -0.1
v -0.55 -0.1 -0.2
v -0.45 -0.1 -0.2
v -0.35 -0.1 -0.2
v -0.15 -0.1 -0.2
v -0.05 -0.1 -0.2
v 0.05 -0.1 -0.5
v 0.15 -0.1 -0.5
v -0.55 -0.1 -0.7
v -0.45 -0.1 -0.7
v -0.35 -0.1 -0.7
v 0.35 -0.1 -0.7
v -0.55 -0.1 -0.8
v 0.55 -0.1 -0.8
v -0.65 -0.1 -0.9
v 0.65 -0.1 -0.9
v -0.55 0 0.8
v 0.45 0 0.8
v 0.55 0 0.8
v -0.05 0 0.7
v 0.05 0 0.7
v -0.25 0 0.5
v -0.15 0 0.5
v -0.05 0 0.4
v 0.05 0 0.4
v -0.55 0 0.3
v -0.45 0 0.3
v 0.35 0 0.3
v 0.45 0 0.3
v -0.25 0 0.2
v -0.15 0 0.2
v -0.05 0 0.2
v 0.05 0 -0.1
v 0.15 0 -0.1
v -0.55 0 -0.2
v -0.45 0 -0.2
v -0.35 0 -0.2
v -0.15 0 -0.2
v -0.05 0 -0.2
v 0.05 0 -0.5
v 0.15 0 -0.5
v -0.55 0 -0.7
v -0.45 0 -0.7
v -0.35 0 -0.7
v 0.35 0 -0.7
v -0.55 0 -0.8
v 0.55 0 -0.8
v -0.65 0.1 0.9
v 0.65 0.1 0.9
v -0.55 0.1 0.8
v 0.55 0.1 0.8
v -0.55 0.1 -0.8
v 0.55 0.1 -0.8
v -0.65 0.1 -0.9
v 0.65 0.1 -0.9

# faces
f 3/4/1 2/4/1 1/4/1
f 4/4/1 2/4/1 3/4/1
f 5/3/1 4/3/1 3/3/1
f 6/3/1 4/3/1 5/3/1
f 9/3/1 8/3/1 7/3/1
f 10/3/1 8/3/1 9/3/1
f 11/3/2 12/3/2 16/3/2
f 14/3/2 15/3/2 16/3/2
f 13/3/2 14/3/2 16/3/2
f 12/3/2 13/3/2 16/3/2
f 16/3/2 15/3/2 17/3/2
f 18/4/2 19/4/2 20/4/2
f 20/4/2 19/4/2 21/4/2
f 20/3/2 21/3/2 22/3/2
f 22/3/2 21/3/2 23/3/2
f 27/4/3 25/4/3 24/4/3
f 28/3/3 26/3/3 25/3/3
f 28/4/3 25/4/3 27/4/3
f 29/3/3 28/3/3 27/3/3
f 30/3/3 26/3/3 28/3/3
f 30/3/3 28/3/3 29/3/3
f 31/4/3 30/4/3 29/4/3
f 32/3/3 26/3/3 30/3/3
f 32/4/3 30/4/3 31/4/3
f 33/3/3 26/3/3 32/3/3
f 36/3/3 35/3/3 34/3/3
f 37/3/3 35/3/3 36/3/3
f 38/3/4 39/3/4 40/3/4
f 40/3/4 39/3/4 41/3/4
f 41/3/4 39/3/4 42/3/4
f 43/4/4 44/4/4 46/4/4
f 44/3/4 45/3/4 47/3/4
f 46/4/4 44/4/4 47/4/4
f 47/3/4 45/3/4 48/3/4
f 53/4/5 50/4/5 49/4/5
f 53/3/5 51/3/5 50/3/5
f 54/4/5 52/4/5 51/4/5
f 54/3/5 51/3/5 53/3/5
f 55/4/5 52/4/5 54/4/5
f 56/4/5 52/4/5 55/4/5
f 57/2/5 54/2/5 53/2/5
f 57/2/5 55/2/5 54/2/5
f 58/2/5 55/2/5 57/2/5
f 59/2/5 57/2/5 53/2/5
f 60/2/5 57/2/5 59/2/5
f 61/1/5 58/1/5 57/1/5
f 61/2/5 57/2/5 60/2/5
f 62/2/5 55/2/5 58/2/5
f 62/1/5 58/1/5 61/1/5
f 63/4/5 53/4/5 49/4/5
f 63/2/5 59/2/5 53/2/5
f 64/2/5 59/2/5 63/2/5
f 65/2/5 55/2/5 62/2/5
f 65/2/5 62/2/5 61/2/5
f 66/1/5 56/1/5 55/1/5
f 66/2/5 55/2/5 65/2/5
f 67/2/5 59/2/5 64/2/5
f 67/1/5 60/1/5 59/1/5
f 68/2/5 65/2/5 61/2/5
f 68/1/5 60/1/5 67/1/5
f 68/2/5 61/2/5 60/2/5
f 69/2/5 65/2/5 68/2/5
f 70/2/5 65/2/5 69/2/5
f 71/2/5 65/2/5 70/2/5
f 72/4/5 63/4/5 49/4/5
f 72/1/5 64/1/5 63/1/5
f 73/2/5 67/2/5 64/2/5
f 73/1/5 64/1/5 72/1/5
f 73/2/5 68/2/5 67/2/5
f 74/2/5 68/2/5 73/2/5
f 75/1/5 69/1/5 68/1/5
f 75/2/5 68/2/5 74/2/5
f 76/2/5 70/2/5 69/2/5
f 76/1/5 69/1/5 75/1/5
f 77/1/5 71/1/5 70/1/5
f 77/2/5 70/2/5 76/2/5
f 77/2/5 76/2/5 75/2/5
f 77/2/5 75/2/5 74/2/5
f 78/2/5 65/2/5 71/2/5
f 78/1/5 71/1/5 77/1/5
f 79/4/5 72/4/5 49/4/5
f 79/2/5 73/2/5 72/2/5
f 80/1/5 74/1/5 73/1/5
f 80/2/5 73/2/5 79/2/5
f 81/2/5 77/2/5 74/2/5
f 81/1/5 74/1/5 80/1/5
f 81/2/5 78/2/5 77/2/5
f 82/2/5 65/2/5 78/2/5
f 82/2/5 78/2/5 81/2/5
f 82/1/5 66/1/5 65/1/5
f 83/1/5 81/1/5 80/1/5
f 83/1/5 80/1/5 79/1/5
f 83/1/5 82/1/5 81/1/5
f 83/4/5 79/4/5 49/4/5
f 84/1/5 56/1/5 66/1/5
f 84/1/5 82/1/5 83/1/5
f 84/4/5 52/4/5 56/4/5
f 84/1/5 66/1/5 82/1/5
f 85/4/5 83/4/5 49/4/5
f 85/4/5 84/4/5 83/4/5
f 86/4/5 52/4/5 84/4/5
f 86/4/5 84/4/5 85/4/5
f 87/2/6 88/2/6 90/2/6
f 90/2/6 88/2/6 91/2/6
f 87/2/6 90/2/6 92/2/6
f 92/2/6 90/2/6 93/2/6
f 90/1/6 91/1/6 94/1/6
f 93/2/6 90/2/6 94/2/6
f 91/2/6 88/2/6 95/2/6
f 94/1/6 91/1/6 95/1/6
f 87/2/6 92/2/6 96/2/6
f 96/2/6 92/2/6 97/2/6
f 95/2/6 88/2/6 98/2/6
f 94/2/6 95/2/6 98/2/6
f 88/1/6 89/1/6 99/1/6
f 98/2/6 88/2/6 99/2/6
f 92/1/6 93/1/6 100/1/6
f 97/2/6 92/2/6 100/2/6
f 94/2/6 98/2/6 101/2/6
f 100/1/6 93/1/6 101/1/6
f 93/2/6 94/2/6 101/2/6
f 101/2/6 98/2/6 102/2/6
f 102/2/6 98/2/6 103/2/6
f 103/2/6 98/2/6 104/2/6
f 96/1/6 97/1/6 105/1/6
f 97/2/6 100/2/6 106/2/6
f 105/1/6 97/1/6 106/1/6
f 100/2/6 101/2/6 106/2/6
f 106/2/6 101/2/6 107/2/6
f 101/1/6 102/1/6 108/1/6
f 107/2/6 101/2/6 108/2/6
f 102/2/6 103/2/6 109/2/6
f 108/1/6 102/1/6 109/1/6
f 103/1/6 104/1/6 110/1/6
f 109/2/6 103/2/6 110/2/6
f 108/2/6 109/2/6 110/2/6
f 107/2/6 108/2/6 110/2/6
f 104/2/6 98/2/6 111/2/6
f 110/1/6 104/1/6 111/1/6
f 105/2/6 106/2/6 112/2/6
f 106/1/6 107/1/6 113/1/6
f 112/2/6 106/2/6 113/2/6
f 107/2/6 110/2/6 114/2/6
f 113/1/6 107/1/6 114/1/6
f 110/2/6 111/2/6 114/2/6
f 98/1/6 99/1/6 115/1/6
f 114/2/6 111/2/6 115/2/6
f 111/2/6 98/2/6 115/2/6
f 113/1/6 114/1/6 116/1/6
f 112/1/6 113/1/6 116/1/6
f 114/1/6 115/1/6 116/1/6
f 99/1/6 89/1/6 117/1/6
f 116/1/6 115/1/6 117/1/6
f 115/1/6 99/1/6 117/1/6
f 118/3/6 119/3/6 120/3/6
f 120/3/6 119/3/6 121/3/6
f 118/3/6 120/3/6 122/3/6
f 121/3/6 119/3/6 123/3/6
f 118/3/6 122/3/6 124/3/6
f 122/3/6 123/3/6 124/3/6
f 123/3/6 119/3/6 125/3/6
f 124/3/6 123/3/6 125/3/6
