# MagicaVoxel @ Ephtracy

# group
o 

# material
mtllib SmallBuilding04-3.mtl
usemtl palette

# normals
vn -1 0 0
vn 1 0 0
vn 0 0 1
vn 0 0 -1
vn 0 -1 0
vn 0 1 0

# texcoords
vt 0.755859 0.5
vt 0.759766 0.5
vt 0.939453 0.5
vt 0.943359 0.5

# verts
v -0.1 -2.45 0.8
v -0.1 -2.45 0.3
v -0.1 -2.45 0.2
v -0.1 -2.45 -0.2
v -0.1 -2.45 -0.3
v -0.1 -2.45 -0.8
v -0.1 -2.35 0.8
v -0.1 -2.35 0.6
v -0.1 -2.35 0.4
v -0.1 -2.35 0.3
v -0.1 -2.35 -0.3
v -0.1 -2.35 -0.4
v -0.1 -2.35 -0.5
v -0.1 -2.35 -0.7
v -0.1 -2.25 0.6
v -0.1 -2.25 0.4
v -0.1 -2.25 -0.4
v -0.1 -2.25 -0.5
v -0.1 -2.25 -0.7
v -0.1 -2.25 -0.8
v -0.1 -1.65 0.8
v -0.1 -1.65 0.7
v -0.1 -1.25 0.8
v -0.1 -1.25 0.7
v -0.1 -1.15 0.6
v -0.1 -1.15 0.5
v -0.1 -1.05 0.6
v -0.1 -1.05 0.5
v -0.1 -0.65 0.7
v -0.1 -0.65 0.5
v -0.1 -0.65 -0.7
v -0.1 -0.65 -0.8
v -0.1 -0.55 -0.7
v -0.1 -0.55 -0.8
v -0.1 -0.55 -0.9
v -0.1 -0.45 -0.7
v -0.1 -0.45 -0.8
v -0.1 -0.35 0.7
v -0.1 -0.35 0.5
v -0.1 -0.35 -0.6
v -0.1 -0.35 -0.7
v -0.1 -0.35 -0.8
v -0.1 -0.35 -0.9
v -0.1 -0.25 0.3
v -0.1 -0.25 0.2
v -0.1 -0.25 -0.6
v -0.1 -0.25 -0.8
v -0.1 0.0500002 0.3
v -0.1 0.0500002 0.2
v -0.1 0.45 0.4
v -0.1 0.45 0.3
v -0.1 0.45 -0.3
v -0.1 0.45 -0.4
v -0.1 0.55 0.3
v -0.1 0.55 0.2
v -0.1 0.55 -0.2
v -0.1 0.55 -0.3
v -0.1 0.65 -0.6
v -0.1 0.65 -0.8
v -0.1 0.75 -0.6
v -0.1 0.75 -0.8
v -0.1 0.75 -0.9
v -0.1 1.05 0.3
v -0.1 1.05 -0.3
v -0.1 1.15 0.6
v -0.1 1.15 0.5
v -0.1 1.15 0.4
v -0.1 1.15 -0.4
v -0.1 1.15 -0.5
v -0.1 1.25 0.6
v -0.1 1.25 0.5
v -0.1 1.25 -0.4
v -0.1 1.25 -0.5
v -0.1 1.25 -0.8
v -0.1 1.25 -0.9
v -0.1 1.65 0.8
v -0.1 1.65 0.2
v -0.1 1.75 0.9
v -0.1 1.75 0.8
v -0.1 1.75 0.7
v -0.1 1.85 0.8
v -0.1 1.85 0.7
v -0.1 1.85 -0.2
v -0.1 1.85 -0.3
v -0.1 1.95 -0.2
v -0.1 1.95 -0.3
v -0.1 1.95 -0.6
v -0.1 1.95 -0.7
v -0.1 2.05 -0.6
v -0.1 2.05 -0.7
v -0.1 2.15 0.9
v -0.1 2.15 0.7
v -0.1 2.15 0.2
v -0.1 2.15 -0.1
v -0.1 2.15 -0.2
v -0.1 2.15 -0.5
v -0.1 2.15 -0.7
v -0.1 2.15 -0.8
v -0.1 2.25 -0.1
v -0.1 2.25 -0.2
v -0.1 2.25 -0.5
v -0.1 2.25 -0.7
v -0.1 2.45 0.7
v -0.1 2.45 -0.7
v 0 1.75 0.8
v 0 1.75 0.7
v 0 1.85 0.8
v 0 1.85 0.7
v 0 -2.45 0.8
v 0 -2.45 0.3
v 0 -2.45 0.2
v 0 -2.45 -0.2
v 0 -2.45 -0.3
v 0 -2.45 -0.8
v 0 -2.35 0.8
v 0 -2.35 0.6
v 0 -2.35 0.4
v 0 -2.35 0.3
v 0 -2.35 -0.3
v 0 -2.35 -0.4
v 0 -2.35 -0.5
v 0 -2.35 -0.7
v 0 -2.25 0.6
v 0 -2.25 0.4
v 0 -2.25 -0.4
v 0 -2.25 -0.5
v 0 -2.25 -0.7
v 0 -2.25 -0.8
v 0 -1.65 0.8
v 0 -1.65 0.7
v 0 -1.25 0.8
v 0 -1.25 0.7
v 0 -1.15 0.6
v 0 -1.15 0.5
v 0 -1.05 0.6
v 0 -1.05 0.5
v 0 -0.65 0.7
v 0 -0.65 0.5
v 0 -0.65 -0.7
v 0 -0.65 -0.8
v 0 -0.55 0.8
v 0 -0.55 0.7
v 0 -0.55 0.6
v 0 -0.55 -0.7
v 0 -0.55 -0.8
v 0 -0.55 -0.9
v 0 -0.45 -0.7
v 0 -0.45 -0.8
v 0 -0.35 0.8
v 0 -0.35 0.6
v 0 -0.35 0.5
v 0 -0.35 -0.6
v 0 -0.35 -0.7
v 0 -0.35 -0.8
v 0 -0.35 -0.9
v 0 -0.25 0.3
v 0 -0.25 0.2
v 0 -0.25 -0.6
v 0 -0.25 -0.8
v 0 0.0500002 0.3
v 0 0.0500002 0.2
v 0 0.45 0.4
v 0 0.45 0.3
v 0 0.45 -0.3
v 0 0.45 -0.4
v 0 0.55 0.3
v 0 0.55 0.2
v 0 0.55 -0.2
v 0 0.55 -0.3
v 0 0.65 -0.6
v 0 0.65 -0.8
v 0 0.75 -0.4
v 0 0.75 -0.6
v 0 0.75 -0.8
v 0 1.05 0.3
v 0 1.05 -0.3
v 0 1.05 -0.4
v 0 1.05 -0.8
v 0 1.05 -0.9
v 0 1.15 0.6
v 0 1.15 0.5
v 0 1.15 0.4
v 0 1.15 -0.4
v 0 1.15 -0.5
v 0 1.25 0.6
v 0 1.25 0.5
v 0 1.25 -0.4
v 0 1.25 -0.5
v 0 1.25 -0.8
v 0 1.25 -0.9
v 0 1.65 0.8
v 0 1.65 0.2
v 0 1.75 0.8
v 0 1.75 0.3
v 0 1.85 -0.2
v 0 1.85 -0.3
v 0 1.95 -0.2
v 0 1.95 -0.3
v 0 1.95 -0.6
v 0 1.95 -0.7
v 0 2.05 -0.6
v 0 2.05 -0.7
v 0 2.15 0.7
v 0 2.15 0.3
v 0 2.15 0.2
v 0 2.15 -0.1
v 0 2.15 -0.2
v 0 2.15 -0.5
v 0 2.15 -0.7
v 0 2.15 -0.8
v 0 2.25 -0.1
v 0 2.25 -0.2
v 0 2.25 -0.5
v 0 2.25 -0.7
v 0 2.45 0.7
v 0 2.45 -0.7
v 0.1 -0.55 0.8
v 0.1 -0.55 0.6
v 0.1 -0.35 0.8
v 0.1 -0.35 0.6
v 0.1 0.75 -0.4
v 0.1 0.75 -0.9
v 0.1 1.05 -0.4
v 0.1 1.05 -0.9
v 0.1 1.75 0.9
v 0.1 1.75 0.3
v 0.1 2.15 0.9
v 0.1 2.15 0.3
v -0.1 1.75 0.9
v -0.1 2.15 0.9
v 0.1 1.75 0.9
v 0.1 2.15 0.9
v -0.1 -2.45 0.8
v -0.1 -2.35 0.8
v -0.1 -1.65 0.8
v -0.1 -1.25 0.8
v -0.1 1.65 0.8
v -0.1 1.75 0.8
v 0 -2.45 0.8
v 0 -2.35 0.8
v 0 -1.65 0.8
v 0 -1.25 0.8
v 0 -0.55 0.8
v 0 -0.35 0.8
v 0 1.65 0.8
v 0 1.75 0.8
v 0.1 -0.55 0.8
v 0.1 -0.35 0.8
v -0.1 1.75 0.7
v -0.1 1.85 0.7
v -0.1 2.15 0.7
v -0.1 2.45 0.7
v 0 1.75 0.7
v 0 1.85 0.7
v 0 2.15 0.7
v 0 2.45 0.7
v -0.1 -2.45 -0.2
v -0.1 0.55 -0.2
v 0 -2.45 -0.2
v 0 0.55 -0.2
v -0.1 0.55 -0.3
v -0.1 1.05 -0.3
v 0 0.55 -0.3
v 0 1.05 -0.3
v 0 0.75 -0.4
v 0 1.05 -0.4
v 0.1 0.75 -0.4
v 0.1 1.05 -0.4
v -0.1 1.75 0.8
v -0.1 1.85 0.8
v 0 1.75 0.8
v 0 1.85 0.8
v 0 -0.55 0.6
v 0 -0.35 0.6
v 0.1 -0.55 0.6
v 0.1 -0.35 0.6
v -0.1 0.55 0.3
v -0.1 1.05 0.3
v 0 0.55 0.3
v 0 1.05 0.3
v 0 1.75 0.3
v 0 2.15 0.3
v 0.1 1.75 0.3
v 0.1 2.15 0.3
v -0.1 -2.45 0.2
v -0.1 -0.25 0.2
v -0.1 0.0500002 0.2
v -0.1 0.55 0.2
v 0 -2.45 0.2
v 0 -0.25 0.2
v 0 0.0500002 0.2
v 0 0.55 0.2
v -0.1 2.15 -0.7
v -0.1 2.25 -0.7
v -0.1 2.45 -0.7
v 0 2.15 -0.7
v 0 2.25 -0.7
v 0 2.45 -0.7
v -0.1 -2.45 -0.8
v -0.1 -2.25 -0.8
v -0.1 -0.65 -0.8
v -0.1 -0.55 -0.8
v -0.1 -0.35 -0.8
v -0.1 -0.25 -0.8
v -0.1 0.65 -0.8
v -0.1 0.75 -0.8
v -0.1 1.25 -0.8
v -0.1 2.15 -0.8
v 0 -2.45 -0.8
v 0 -2.25 -0.8
v 0 -0.65 -0.8
v 0 -0.55 -0.8
v 0 -0.35 -0.8
v 0 -0.25 -0.8
v 0 0.65 -0.8
v 0 0.75 -0.8
v 0 1.25 -0.8
v 0 2.15 -0.8
v -0.1 -0.55 -0.9
v -0.1 -0.35 -0.9
v -0.1 0.75 -0.9
v -0.1 1.25 -0.9
v 0 -0.55 -0.9
v 0 -0.35 -0.9
v 0 1.05 -0.9
v 0 1.25 -0.9
v 0.1 0.75 -0.9
v 0.1 1.05 -0.9
v -0.1 -2.45 0.8
v 0 -2.45 0.8
v -0.1 -2.45 0.3
v 0 -2.45 0.3
v -0.1 -2.45 0.2
v 0 -2.45 0.2
v -0.1 -2.45 -0.2
v 0 -2.45 -0.2
v -0.1 -2.45 -0.3
v 0 -2.45 -0.3
v -0.1 -2.45 -0.8
v 0 -2.45 -0.8
v 0 -0.55 0.8
v 0.1 -0.55 0.8
v 0 -0.55 0.7
v 0 -0.55 0.6
v 0.1 -0.55 0.6
v -0.1 -0.55 -0.8
v 0 -0.55 -0.8
v -0.1 -0.55 -0.9
v 0 -0.55 -0.9
v 0 0.75 -0.4
v 0.1 0.75 -0.4
v 0 0.75 -0.6
v -0.1 0.75 -0.8
v 0 0.75 -0.8
v -0.1 0.75 -0.9
v 0.1 0.75 -0.9
v -0.1 1.05 0.3
v 0 1.05 0.3
v -0.1 1.05 -0.3
v 0 1.05 -0.3
v -0.1 1.75 0.9
v 0.1 1.75 0.9
v -0.1 1.75 0.8
v 0 1.75 0.8
v 0 1.75 0.3
v 0.1 1.75 0.3
v -0.1 1.85 0.8
v 0 1.85 0.8
v -0.1 1.85 0.7
v 0 1.85 0.7
v 0 -0.35 0.8
v 0.1 -0.35 0.8
v 0 -0.35 0.6
v 0.1 -0.35 0.6
v -0.1 -0.35 -0.8
v 0 -0.35 -0.8
v -0.1 -0.35 -0.9
v 0 -0.35 -0.9
v -0.1 0.55 0.3
v 0 0.55 0.3
v -0.1 0.55 0.2
v 0 0.55 0.2
v -0.1 0.55 -0.2
v 0 0.55 -0.2
v -0.1 0.55 -0.3
v 0 0.55 -0.3
v 0 1.05 -0.4
v 0.1 1.05 -0.4
v 0 1.05 -0.8
v 0 1.05 -0.9
v 0.1 1.05 -0.9
v -0.1 1.25 -0.8
v 0 1.25 -0.8
v -0.1 1.25 -0.9
v 0 1.25 -0.9
v -0.1 1.75 0.8
v 0 1.75 0.8
v -0.1 1.75 0.7
v 0 1.75 0.7
v -0.1 2.15 0.9
v 0.1 2.15 0.9
v -0.1 2.15 0.7
v 0 2.15 0.7
v 0 2.15 0.3
v 0.1 2.15 0.3
v -0.1 2.15 -0.7
v 0 2.15 -0.7
v -0.1 2.15 -0.8
v 0 2.15 -0.8
v -0.1 2.45 0.7
v 0 2.45 0.7
v -0.1 2.45 -0.7
v 0 2.45 -0.7

# faces
f 7/3/1 2/3/1 1/3/1
f 8/3/1 2/3/1 7/3/1
f 9/3/1 2/3/1 8/3/1
f 10/2/1 3/2/1 2/2/1
f 10/3/1 2/3/1 9/3/1
f 11/3/1 6/3/1 5/3/1
f 11/2/1 5/2/1 4/2/1
f 12/3/1 6/3/1 11/3/1
f 13/3/1 6/3/1 12/3/1
f 14/3/1 6/3/1 13/3/1
f 15/3/1 9/3/1 8/3/1
f 15/4/1 8/4/1 7/4/1
f 16/4/1 10/4/1 9/4/1
f 16/3/1 9/3/1 15/3/1
f 17/4/1 12/4/1 11/4/1
f 17/3/1 13/3/1 12/3/1
f 18/4/1 14/4/1 13/4/1
f 18/3/1 13/3/1 17/3/1
f 19/3/1 6/3/1 14/3/1
f 19/4/1 14/4/1 18/4/1
f 20/3/1 6/3/1 19/3/1
f 21/4/1 15/4/1 7/4/1
f 21/4/1 16/4/1 15/4/1
f 22/4/1 16/4/1 21/4/1
f 23/3/1 22/3/1 21/3/1
f 24/4/1 16/4/1 22/4/1
f 24/3/1 22/3/1 23/3/1
f 25/4/1 24/4/1 23/4/1
f 25/4/1 16/4/1 24/4/1
f 26/4/1 16/4/1 25/4/1
f 27/4/1 25/4/1 23/4/1
f 27/3/1 26/3/1 25/3/1
f 28/4/1 16/4/1 26/4/1
f 28/3/1 26/3/1 27/3/1
f 29/4/1 27/4/1 23/4/1
f 29/4/1 28/4/1 27/4/1
f 30/4/1 16/4/1 28/4/1
f 30/4/1 28/4/1 29/4/1
f 31/4/1 18/4/1 17/4/1
f 31/4/1 20/4/1 19/4/1
f 31/4/1 19/4/1 18/4/1
f 32/4/1 20/4/1 31/4/1
f 33/4/1 31/4/1 17/4/1
f 33/3/1 32/3/1 31/3/1
f 34/3/1 32/3/1 33/3/1
f 36/4/1 34/4/1 33/4/1
f 36/4/1 33/4/1 17/4/1
f 37/3/1 35/3/1 34/3/1
f 37/4/1 34/4/1 36/4/1
f 38/3/1 30/3/1 29/3/1
f 38/4/1 29/4/1 23/4/1
f 39/4/1 16/4/1 30/4/1
f 39/3/1 30/3/1 38/3/1
f 40/4/1 36/4/1 17/4/1
f 41/3/1 37/3/1 36/3/1
f 41/4/1 36/4/1 40/4/1
f 42/3/1 35/3/1 37/3/1
f 42/3/1 37/3/1 41/3/1
f 43/3/1 35/3/1 42/3/1
f 44/2/1 3/2/1 10/2/1
f 44/4/1 16/4/1 39/4/1
f 44/4/1 10/4/1 16/4/1
f 44/4/1 39/4/1 38/4/1
f 45/2/1 3/2/1 44/2/1
f 46/3/1 42/3/1 41/3/1
f 46/3/1 41/3/1 40/3/1
f 46/4/1 40/4/1 17/4/1
f 47/3/1 42/3/1 46/3/1
f 48/1/1 45/1/1 44/1/1
f 48/4/1 44/4/1 38/4/1
f 49/1/1 45/1/1 48/1/1
f 50/4/1 48/4/1 38/4/1
f 51/2/1 49/2/1 48/2/1
f 51/4/1 48/4/1 50/4/1
f 52/4/1 17/4/1 11/4/1
f 52/2/1 11/2/1 4/2/1
f 52/4/1 47/4/1 46/4/1
f 52/4/1 46/4/1 17/4/1
f 53/4/1 47/4/1 52/4/1
f 54/2/1 49/2/1 51/2/1
f 54/2/1 51/2/1 50/2/1
f 55/2/1 49/2/1 54/2/1
f 56/2/1 53/2/1 52/2/1
f 56/2/1 52/2/1 4/2/1
f 57/2/1 53/2/1 56/2/1
f 58/4/1 47/4/1 53/4/1
f 59/4/1 47/4/1 58/4/1
f 60/4/1 58/4/1 53/4/1
f 60/3/1 59/3/1 58/3/1
f 61/3/1 59/3/1 60/3/1
f 63/2/1 54/2/1 50/2/1
f 64/2/1 53/2/1 57/2/1
f 65/4/1 50/4/1 38/4/1
f 66/4/1 50/4/1 65/4/1
f 67/2/1 63/2/1 50/2/1
f 67/4/1 50/4/1 66/4/1
f 67/2/1 64/2/1 63/2/1
f 68/4/1 61/4/1 60/4/1
f 68/2/1 64/2/1 67/2/1
f 68/4/1 60/4/1 53/4/1
f 68/2/1 53/2/1 64/2/1
f 69/4/1 61/4/1 68/4/1
f 70/3/1 66/3/1 65/3/1
f 70/4/1 65/4/1 38/4/1
f 71/4/1 67/4/1 66/4/1
f 71/3/1 66/3/1 70/3/1
f 71/4/1 68/4/1 67/4/1
f 72/3/1 69/3/1 68/3/1
f 72/4/1 68/4/1 71/4/1
f 73/4/1 61/4/1 69/4/1
f 73/3/1 69/3/1 72/3/1
f 74/3/1 62/3/1 61/3/1
f 74/4/1 61/4/1 73/4/1
f 75/3/1 62/3/1 74/3/1
f 76/4/1 38/4/1 23/4/1
f 76/4/1 70/4/1 38/4/1
f 76/4/1 74/4/1 73/4/1
f 76/4/1 72/4/1 71/4/1
f 76/4/1 73/4/1 72/4/1
f 76/4/1 71/4/1 70/4/1
f 77/4/1 74/4/1 76/4/1
f 79/3/1 77/3/1 76/3/1
f 80/3/1 77/3/1 79/3/1
f 81/3/1 79/3/1 78/3/1
f 82/3/1 77/3/1 80/3/1
f 83/4/1 74/4/1 77/4/1
f 84/4/1 74/4/1 83/4/1
f 85/4/1 83/4/1 77/4/1
f 85/3/1 84/3/1 83/3/1
f 86/4/1 74/4/1 84/4/1
f 86/3/1 84/3/1 85/3/1
f 87/4/1 74/4/1 86/4/1
f 88/4/1 74/4/1 87/4/1
f 89/4/1 86/4/1 85/4/1
f 89/4/1 87/4/1 86/4/1
f 89/3/1 88/3/1 87/3/1
f 90/4/1 74/4/1 88/4/1
f 90/3/1 88/3/1 89/3/1
f 91/3/1 82/3/1 81/3/1
f 91/3/1 81/3/1 78/3/1
f 92/3/1 77/3/1 82/3/1
f 92/3/1 82/3/1 91/3/1
f 93/4/1 90/4/1 89/4/1
f 93/3/1 77/3/1 92/3/1
f 93/4/1 85/4/1 77/4/1
f 93/4/1 89/4/1 85/4/1
f 94/4/1 90/4/1 93/4/1
f 95/4/1 90/4/1 94/4/1
f 96/4/1 90/4/1 95/4/1
f 97/4/1 74/4/1 90/4/1
f 97/4/1 90/4/1 96/4/1
f 98/4/1 74/4/1 97/4/1
f 99/4/1 93/4/1 92/4/1
f 99/4/1 94/4/1 93/4/1
f 99/3/1 95/3/1 94/3/1
f 100/4/1 96/4/1 95/4/1
f 100/3/1 95/3/1 99/3/1
f 101/3/1 97/3/1 96/3/1
f 101/4/1 96/4/1 100/4/1
f 102/3/1 97/3/1 101/3/1
f 103/4/1 99/4/1 92/4/1
f 103/4/1 100/4/1 99/4/1
f 103/4/1 102/4/1 101/4/1
f 103/4/1 101/4/1 100/4/1
f 104/4/1 102/4/1 103/4/1
f 107/3/1 106/3/1 105/3/1
f 108/3/1 106/3/1 107/3/1
f 109/3/2 110/3/2 115/3/2
f 115/3/2 110/3/2 116/3/2
f 116/3/2 110/3/2 117/3/2
f 110/2/2 111/2/2 118/2/2
f 117/3/2 110/3/2 118/3/2
f 113/3/2 114/3/2 119/3/2
f 112/2/2 113/2/2 119/2/2
f 119/3/2 114/3/2 120/3/2
f 120/3/2 114/3/2 121/3/2
f 121/3/2 114/3/2 122/3/2
f 116/3/2 117/3/2 123/3/2
f 115/4/2 116/4/2 123/4/2
f 117/4/2 118/4/2 124/4/2
f 123/3/2 117/3/2 124/3/2
f 119/4/2 120/4/2 125/4/2
f 120/3/2 121/3/2 125/3/2
f 121/4/2 122/4/2 126/4/2
f 125/3/2 121/3/2 126/3/2
f 122/3/2 114/3/2 127/3/2
f 126/4/2 122/4/2 127/4/2
f 127/3/2 114/3/2 128/3/2
f 115/4/2 123/4/2 129/4/2
f 123/4/2 124/4/2 129/4/2
f 129/4/2 124/4/2 130/4/2
f 129/3/2 130/3/2 131/3/2
f 130/4/2 124/4/2 132/4/2
f 131/3/2 130/3/2 132/3/2
f 131/4/2 132/4/2 133/4/2
f 132/4/2 124/4/2 133/4/2
f 133/4/2 124/4/2 134/4/2
f 131/4/2 133/4/2 135/4/2
f 133/3/2 134/3/2 135/3/2
f 134/4/2 124/4/2 136/4/2
f 135/3/2 134/3/2 136/3/2
f 131/4/2 135/4/2 137/4/2
f 135/4/2 136/4/2 137/4/2
f 136/4/2 124/4/2 138/4/2
f 137/4/2 136/4/2 138/4/2
f 125/4/2 126/4/2 139/4/2
f 127/4/2 128/4/2 139/4/2
f 126/4/2 127/4/2 139/4/2
f 139/4/2 128/4/2 140/4/2
f 131/4/2 137/4/2 141/4/2
f 137/3/2 138/3/2 142/3/2
f 141/4/2 137/4/2 142/4/2
f 142/3/2 138/3/2 143/3/2
f 125/4/2 139/4/2 144/4/2
f 139/3/2 140/3/2 144/3/2
f 144/3/2 140/3/2 145/3/2
f 144/4/2 145/4/2 147/4/2
f 125/4/2 144/4/2 147/4/2
f 145/3/2 146/3/2 148/3/2
f 147/4/2 145/4/2 148/4/2
f 143/3/2 138/3/2 150/3/2
f 138/4/2 124/4/2 151/4/2
f 150/3/2 138/3/2 151/3/2
f 125/4/2 147/4/2 152/4/2
f 147/3/2 148/3/2 153/3/2
f 152/4/2 147/4/2 153/4/2
f 148/3/2 146/3/2 154/3/2
f 153/3/2 148/3/2 154/3/2
f 154/3/2 146/3/2 155/3/2
f 118/2/2 111/2/2 156/2/2
f 149/4/2 150/4/2 156/4/2
f 151/4/2 124/4/2 156/4/2
f 150/4/2 151/4/2 156/4/2
f 124/4/2 118/4/2 156/4/2
f 156/2/2 111/2/2 157/2/2
f 153/3/2 154/3/2 158/3/2
f 125/4/2 152/4/2 158/4/2
f 152/3/2 153/3/2 158/3/2
f 158/3/2 154/3/2 159/3/2
f 156/1/2 157/1/2 160/1/2
f 149/4/2 156/4/2 160/4/2
f 160/1/2 157/1/2 161/1/2
f 149/4/2 160/4/2 162/4/2
f 160/2/2 161/2/2 163/2/2
f 162/4/2 160/4/2 163/4/2
f 119/4/2 125/4/2 164/4/2
f 112/2/2 119/2/2 164/2/2
f 158/4/2 159/4/2 164/4/2
f 125/4/2 158/4/2 164/4/2
f 164/4/2 159/4/2 165/4/2
f 163/2/2 161/2/2 166/2/2
f 162/2/2 163/2/2 166/2/2
f 166/2/2 161/2/2 167/2/2
f 164/2/2 165/2/2 168/2/2
f 112/2/2 164/2/2 168/2/2
f 168/2/2 165/2/2 169/2/2
f 165/4/2 159/4/2 170/4/2
f 170/4/2 159/4/2 171/4/2
f 169/2/2 165/2/2 172/2/2
f 165/4/2 170/4/2 172/4/2
f 170/3/2 171/3/2 173/3/2
f 172/4/2 170/4/2 173/4/2
f 173/3/2 171/3/2 174/3/2
f 162/2/2 166/2/2 175/2/2
f 169/2/2 172/2/2 176/2/2
f 176/2/2 172/2/2 177/2/2
f 149/4/2 162/4/2 180/4/2
f 180/4/2 162/4/2 181/4/2
f 176/2/2 177/2/2 182/2/2
f 181/4/2 162/4/2 182/4/2
f 175/2/2 176/2/2 182/2/2
f 162/2/2 175/2/2 182/2/2
f 177/4/2 178/4/2 183/4/2
f 182/2/2 177/2/2 183/2/2
f 183/4/2 178/4/2 184/4/2
f 180/3/2 181/3/2 185/3/2
f 149/4/2 180/4/2 185/4/2
f 181/4/2 182/4/2 186/4/2
f 185/3/2 181/3/2 186/3/2
f 182/4/2 183/4/2 186/4/2
f 183/3/2 184/3/2 187/3/2
f 186/4/2 183/4/2 187/4/2
f 184/4/2 178/4/2 188/4/2
f 187/3/2 184/3/2 188/3/2
f 178/3/2 179/3/2 189/3/2
f 188/4/2 178/4/2 189/4/2
f 189/3/2 179/3/2 190/3/2
f 149/4/2 185/4/2 191/4/2
f 186/4/2 187/4/2 191/4/2
f 188/4/2 189/4/2 191/4/2
f 187/4/2 188/4/2 191/4/2
f 185/4/2 186/4/2 191/4/2
f 191/4/2 189/4/2 192/4/2
f 191/3/2 192/3/2 193/3/2
f 193/3/2 192/3/2 194/3/2
f 192/4/2 189/4/2 195/4/2
f 195/4/2 189/4/2 196/4/2
f 192/4/2 195/4/2 197/4/2
f 195/3/2 196/3/2 197/3/2
f 196/4/2 189/4/2 198/4/2
f 197/3/2 196/3/2 198/3/2
f 198/4/2 189/4/2 199/4/2
f 199/4/2 189/4/2 200/4/2
f 197/4/2 198/4/2 201/4/2
f 198/4/2 199/4/2 201/4/2
f 199/3/2 200/3/2 201/3/2
f 200/4/2 189/4/2 202/4/2
f 201/3/2 200/3/2 202/3/2
f 194/3/2 192/3/2 204/3/2
f 192/4/2 197/4/2 205/4/2
f 197/4/2 201/4/2 205/4/2
f 204/3/2 192/3/2 205/3/2
f 201/4/2 202/4/2 205/4/2
f 205/4/2 202/4/2 206/4/2
f 206/4/2 202/4/2 207/4/2
f 207/4/2 202/4/2 208/4/2
f 202/4/2 189/4/2 209/4/2
f 208/4/2 202/4/2 209/4/2
f 209/4/2 189/4/2 210/4/2
f 203/4/2 204/4/2 211/4/2
f 204/4/2 205/4/2 211/4/2
f 205/4/2 206/4/2 211/4/2
f 206/3/2 207/3/2 211/3/2
f 207/4/2 208/4/2 212/4/2
f 211/3/2 207/3/2 212/3/2
f 208/3/2 209/3/2 213/3/2
f 212/4/2 208/4/2 213/4/2
f 213/3/2 209/3/2 214/3/2
f 203/4/2 211/4/2 215/4/2
f 211/4/2 212/4/2 215/4/2
f 213/4/2 214/4/2 215/4/2
f 212/4/2 213/4/2 215/4/2
f 215/4/2 214/4/2 216/4/2
f 217/3/2 218/3/2 219/3/2
f 219/3/2 218/3/2 220/3/2
f 221/3/2 222/3/2 223/3/2
f 223/3/2 222/3/2 224/3/2
f 225/3/2 226/3/2 227/3/2
f 227/3/2 226/3/2 228/3/2
f 231/3/3 230/3/3 229/3/3
f 232/3/3 230/3/3 231/3/3
f 239/3/3 234/3/3 233/3/3
f 240/4/3 235/4/3 234/4/3
f 240/3/3 234/3/3 239/3/3
f 241/3/3 236/3/3 235/3/3
f 241/4/3 235/4/3 240/4/3
f 242/4/3 237/4/3 236/4/3
f 242/3/3 236/3/3 241/3/3
f 243/4/3 237/4/3 242/4/3
f 244/4/3 237/4/3 243/4/3
f 245/3/3 238/3/3 237/3/3
f 245/4/3 237/4/3 244/4/3
f 246/3/3 238/3/3 245/3/3
f 247/3/3 244/3/3 243/3/3
f 248/3/3 244/3/3 247/3/3
f 253/3/3 250/3/3 249/3/3
f 254/3/3 250/3/3 253/3/3
f 255/4/3 252/4/3 251/4/3
f 256/4/3 252/4/3 255/4/3
f 259/2/3 258/2/3 257/2/3
f 260/2/3 258/2/3 259/2/3
f 263/2/3 262/2/3 261/2/3
f 264/2/3 262/2/3 263/2/3
f 267/3/3 266/3/3 265/3/3
f 268/3/3 266/3/3 267/3/3
f 269/3/4 270/3/4 271/3/4
f 271/3/4 270/3/4 272/3/4
f 273/3/4 274/3/4 275/3/4
f 275/3/4 274/3/4 276/3/4
f 277/2/4 278/2/4 279/2/4
f 279/2/4 278/2/4 280/2/4
f 281/3/4 282/3/4 283/3/4
f 283/3/4 282/3/4 284/3/4
f 285/2/4 286/2/4 289/2/4
f 286/1/4 287/1/4 290/1/4
f 289/2/4 286/2/4 290/2/4
f 287/2/4 288/2/4 291/2/4
f 290/1/4 287/1/4 291/1/4
f 291/2/4 288/2/4 292/2/4
f 293/3/4 294/3/4 296/3/4
f 294/4/4 295/4/4 297/4/4
f 296/3/4 294/3/4 297/3/4
f 297/4/4 295/4/4 298/4/4
f 299/3/4 300/3/4 309/3/4
f 300/4/4 301/4/4 310/4/4
f 309/3/4 300/3/4 310/3/4
f 301/3/4 302/3/4 311/3/4
f 310/4/4 301/4/4 311/4/4
f 311/3/4 302/3/4 312/3/4
f 303/3/4 304/3/4 313/3/4
f 304/4/4 305/4/4 314/4/4
f 313/3/4 304/3/4 314/3/4
f 305/3/4 306/3/4 315/3/4
f 314/4/4 305/4/4 315/4/4
f 315/3/4 306/3/4 316/3/4
f 307/4/4 308/4/4 317/4/4
f 317/4/4 308/4/4 318/4/4
f 319/3/4 320/3/4 323/3/4
f 323/3/4 320/3/4 324/3/4
f 321/3/4 322/3/4 325/3/4
f 325/3/4 322/3/4 326/3/4
f 321/3/4 325/3/4 327/3/4
f 327/3/4 325/3/4 328/3/4
f 331/3/5 330/3/5 329/3/5
f 332/3/5 330/3/5 331/3/5
f 333/2/5 332/2/5 331/2/5
f 334/2/5 332/2/5 333/2/5
f 337/2/5 336/2/5 335/2/5
f 338/2/5 336/2/5 337/2/5
f 339/3/5 338/3/5 337/3/5
f 340/3/5 338/3/5 339/3/5
f 343/3/5 342/3/5 341/3/5
f 344/3/5 342/3/5 343/3/5
f 345/3/5 342/3/5 344/3/5
f 348/3/5 347/3/5 346/3/5
f 349/3/5 347/3/5 348/3/5
f 352/3/5 351/3/5 350/3/5
f 354/3/5 351/3/5 352/3/5
f 355/3/5 354/3/5 353/3/5
f 356/3/5 351/3/5 354/3/5
f 356/3/5 354/3/5 355/3/5
f 359/2/5 358/2/5 357/2/5
f 360/2/5 358/2/5 359/2/5
f 363/3/5 362/3/5 361/3/5
f 364/3/5 362/3/5 363/3/5
f 365/3/5 362/3/5 364/3/5
f 366/3/5 362/3/5 365/3/5
f 369/3/5 368/3/5 367/3/5
f 370/3/5 368/3/5 369/3/5
f 371/3/6 372/3/6 373/3/6
f 373/3/6 372/3/6 374/3/6
f 375/3/6 376/3/6 377/3/6
f 377/3/6 376/3/6 378/3/6
f 379/2/6 380/2/6 381/2/6
f 381/2/6 380/2/6 382/2/6
f 383/2/6 384/2/6 385/2/6
f 385/2/6 384/2/6 386/2/6
f 387/3/6 388/3/6 389/3/6
f 389/3/6 388/3/6 390/3/6
f 390/3/6 388/3/6 391/3/6
f 392/3/6 393/3/6 394/3/6
f 394/3/6 393/3/6 395/3/6
f 396/3/6 397/3/6 398/3/6
f 398/3/6 397/3/6 399/3/6
f 400/3/6 401/3/6 402/3/6
f 402/3/6 401/3/6 403/3/6
f 403/3/6 401/3/6 404/3/6
f 404/3/6 401/3/6 405/3/6
f 406/4/6 407/4/6 408/4/6
f 408/4/6 407/4/6 409/4/6
f 410/4/6 411/4/6 412/4/6
f 412/4/6 411/4/6 413/4/6
