# MagicaVoxel @ Ephtracy

# group
o 

# material
mtllib SmallBuilding04-6.mtl
usemtl palette

# normals
vn -1 0 0
vn 1 0 0
vn 0 0 1
vn 0 0 -1
vn 0 -1 0
vn 0 1 0

# texcoords
vt 0.759766 0.5
vt 0.939453 0.5
vt 0.943359 0.5

# verts
v -0.1 -1.85 0.9
v -0.1 -1.85 0.4
v -0.1 -1.55 0.9
v -0.1 -1.55 0.4
v -0.1 -0.15 -0.3
v -0.1 -0.15 -0.6
v -0.1 0.0500002 -0.3
v -0.1 0.0500002 -0.6
v -0.1 0.15 -0.5
v -0.1 0.15 -0.8
v -0.1 0.35 -0.5
v -0.1 0.35 -0.8
v -0.1 1.85 -0.5
v -0.1 1.85 -0.9
v -0.1 2.15 -0.5
v -0.1 2.15 -0.9
v 0 -2.45 0.8
v 0 -2.45 0.3
v 0 -2.45 0.2
v 0 -2.45 -0.2
v 0 -2.45 -0.3
v 0 -2.45 -0.8
v 0 -2.35 0.8
v 0 -2.35 0.6
v 0 -2.35 0.5
v 0 -2.35 0.4
v 0 -2.35 -0.3
v 0 -2.35 -0.7
v 0 -2.25 0.6
v 0 -2.25 0.5
v 0 -2.25 0.4
v 0 -2.25 0.3
v 0 -2.25 -0.7
v 0 -2.25 -0.8
v 0 -1.95 0.8
v 0 -1.95 0.6
v 0 -1.85 0.8
v 0 -1.85 0.6
v 0 -1.85 0.4
v 0 -1.55 0.8
v 0 -1.55 0.4
v 0 -1.35 -0.7
v 0 -1.35 -0.8
v 0 -1.25 -0.8
v 0 -1.25 -0.9
v 0 -1.05 -0.7
v 0 -1.05 -0.8
v 0 -1.05 -0.9
v 0 -0.95 0.8
v 0 -0.95 0.7
v 0 -0.85 0.8
v 0 -0.85 0.7
v 0 -0.25 0.6
v 0 -0.25 0.4
v 0 -0.25 -0.3
v 0 -0.25 -0.6
v 0 -0.15 0.6
v 0 -0.15 0.4
v 0 -0.15 -0.3
v 0 -0.15 -0.6
v 0 0.0500002 -0.3
v 0 0.0500002 -0.4
v 0 0.0500002 -0.6
v 0 0.0500002 -0.7
v 0 0.15 -0.5
v 0 0.15 -0.7
v 0 0.15 -0.8
v 0 0.35 -0.4
v 0 0.35 -0.5
v 0 0.35 -0.8
v 0 0.45 0.8
v 0 0.45 0.7
v 0 0.45 0.4
v 0 0.45 0.3
v 0 0.45 -0.3
v 0 0.45 -0.4
v 0 0.55 0.9
v 0 0.55 0.8
v 0 0.55 0.3
v 0 0.55 0.2
v 0 0.55 -0.2
v 0 0.55 -0.3
v 0 0.75 0.9
v 0 0.75 0.8
v 0 0.75 0.7
v 0 1.05 0.3
v 0 1.05 -0.3
v 0 1.15 0.4
v 0 1.15 -0.4
v 0 1.75 0.1
v 0 1.75 0
v 0 1.75 -0.4
v 0 1.75 -0.8
v 0 1.85 0.4
v 0 1.85 0.3
v 0 1.85 0.1
v 0 1.85 0
v 0 1.85 -0.5
v 0 1.85 -0.8
v 0 1.95 0.4
v 0 1.95 0.3
v 0 2.05 0.2
v 0 2.05 0.1
v 0 2.15 0.8
v 0 2.15 0.7
v 0 2.15 0.2
v 0 2.15 0.1
v 0 2.15 -0.4
v 0 2.15 -0.5
v 0 2.15 -0.7
v 0 2.45 0.7
v 0 2.45 -0.7
v 0.1 -2.45 0.8
v 0.1 -2.45 0.3
v 0.1 -2.45 0.2
v 0.1 -2.45 -0.2
v 0.1 -2.45 -0.3
v 0.1 -2.45 -0.8
v 0.1 -2.35 0.8
v 0.1 -2.35 0.6
v 0.1 -2.35 0.5
v 0.1 -2.35 0.4
v 0.1 -2.35 -0.3
v 0.1 -2.35 -0.7
v 0.1 -2.25 0.6
v 0.1 -2.25 0.5
v 0.1 -2.25 0.4
v 0.1 -2.25 0.3
v 0.1 -2.25 -0.7
v 0.1 -2.25 -0.8
v 0.1 -1.95 0.8
v 0.1 -1.95 0.6
v 0.1 -1.85 0.9
v 0.1 -1.85 0.8
v 0.1 -1.55 0.9
v 0.1 -1.55 0.8
v 0.1 -1.55 0.6
v 0.1 -1.35 -0.7
v 0.1 -1.35 -0.8
v 0.1 -1.25 -0.8
v 0.1 -1.25 -0.9
v 0.1 -1.05 -0.7
v 0.1 -1.05 -0.8
v 0.1 -1.05 -0.9
v 0.1 -0.95 0.8
v 0.1 -0.95 0.7
v 0.1 -0.85 0.8
v 0.1 -0.85 0.7
v 0.1 -0.25 0.6
v 0.1 -0.25 0.4
v 0.1 -0.25 -0.3
v 0.1 -0.25 -0.6
v 0.1 -0.15 0.6
v 0.1 -0.15 0.4
v 0.1 -0.05 -0.3
v 0.1 -0.05 -0.6
v 0.1 0.0500002 -0.4
v 0.1 0.0500002 -0.7
v 0.1 0.35 -0.4
v 0.1 0.35 -0.7
v 0.1 0.45 0.8
v 0.1 0.45 0.7
v 0.1 0.45 0.4
v 0.1 0.45 0.3
v 0.1 0.45 -0.3
v 0.1 0.45 -0.4
v 0.1 0.55 0.9
v 0.1 0.55 0.8
v 0.1 0.55 0.3
v 0.1 0.55 0.2
v 0.1 0.55 -0.2
v 0.1 0.55 -0.3
v 0.1 0.75 0.9
v 0.1 0.75 0.8
v 0.1 0.75 0.7
v 0.1 1.05 0.3
v 0.1 1.05 -0.3
v 0.1 1.15 0.4
v 0.1 1.15 -0.4
v 0.1 1.75 0.1
v 0.1 1.75 0
v 0.1 1.75 -0.4
v 0.1 1.75 -0.8
v 0.1 1.85 0.4
v 0.1 1.85 0.3
v 0.1 1.85 0.1
v 0.1 1.85 0
v 0.1 1.85 -0.8
v 0.1 1.85 -0.9
v 0.1 1.95 0.4
v 0.1 1.95 0.3
v 0.1 2.05 0.2
v 0.1 2.05 0.1
v 0.1 2.15 0.8
v 0.1 2.15 0.7
v 0.1 2.15 0.2
v 0.1 2.15 0.1
v 0.1 2.15 -0.4
v 0.1 2.15 -0.7
v 0.1 2.15 -0.9
v 0.1 2.45 0.7
v 0.1 2.45 -0.7
v -0.1 -1.85 0.9
v -0.1 -1.55 0.9
v 0 0.55 0.9
v 0 0.75 0.9
v 0.1 -1.85 0.9
v 0.1 -1.55 0.9
v 0.1 0.55 0.9
v 0.1 0.75 0.9
v 0 -2.45 0.8
v 0 -2.35 0.8
v 0 -1.95 0.8
v 0 -1.85 0.8
v 0 -1.55 0.8
v 0 -0.95 0.8
v 0 -0.85 0.8
v 0 0.45 0.8
v 0 0.55 0.8
v 0 0.75 0.8
v 0 2.15 0.8
v 0.1 -2.45 0.8
v 0.1 -2.35 0.8
v 0.1 -1.95 0.8
v 0.1 -1.85 0.8
v 0.1 -1.55 0.8
v 0.1 -0.95 0.8
v 0.1 -0.85 0.8
v 0.1 0.45 0.8
v 0.1 0.55 0.8
v 0.1 0.75 0.8
v 0.1 2.15 0.8
v 0 2.15 0.7
v 0 2.45 0.7
v 0.1 2.15 0.7
v 0.1 2.45 0.7
v 0 -2.45 -0.2
v 0 0.55 -0.2
v 0.1 -2.45 -0.2
v 0.1 0.55 -0.2
v -0.1 -0.15 -0.3
v -0.1 0.0500002 -0.3
v 0 -0.15 -0.3
v 0 0.0500002 -0.3
v 0 0.55 -0.3
v 0 1.05 -0.3
v 0.1 0.55 -0.3
v 0.1 1.05 -0.3
v -0.1 0.15 -0.5
v -0.1 0.35 -0.5
v -0.1 1.85 -0.5
v -0.1 2.15 -0.5
v 0 0.15 -0.5
v 0 0.35 -0.5
v 0 1.85 -0.5
v 0 2.15 -0.5
v -0.1 -1.85 0.4
v -0.1 -1.55 0.4
v 0 -1.85 0.4
v 0 -1.55 0.4
v 0 0.55 0.3
v 0 1.05 0.3
v 0.1 0.55 0.3
v 0.1 1.05 0.3
v 0 -2.45 0.2
v 0 0.55 0.2
v 0.1 -2.45 0.2
v 0.1 0.55 0.2
v -0.1 -0.15 -0.6
v -0.1 0.0500002 -0.6
v 0 -0.15 -0.6
v 0 0.0500002 -0.6
v 0 2.15 -0.7
v 0 2.45 -0.7
v 0.1 2.15 -0.7
v 0.1 2.45 -0.7
v -0.1 0.15 -0.8
v -0.1 0.35 -0.8
v 0 -2.45 -0.8
v 0 -2.25 -0.8
v 0 -1.35 -0.8
v 0 -1.25 -0.8
v 0 -1.05 -0.8
v 0 0.15 -0.8
v 0 0.35 -0.8
v 0 1.75 -0.8
v 0 1.85 -0.8
v 0.1 -2.45 -0.8
v 0.1 -2.25 -0.8
v 0.1 -1.35 -0.8
v 0.1 -1.25 -0.8
v 0.1 -1.05 -0.8
v 0.1 1.75 -0.8
v 0.1 1.85 -0.8
v -0.1 1.85 -0.9
v -0.1 2.15 -0.9
v 0 -1.25 -0.9
v 0 -1.05 -0.9
v 0.1 -1.25 -0.9
v 0.1 -1.05 -0.9
v 0.1 1.85 -0.9
v 0.1 2.15 -0.9
v 0 -2.45 0.8
v 0.1 -2.45 0.8
v 0 -2.45 0.3
v 0.1 -2.45 0.3
v 0 -2.45 0.2
v 0.1 -2.45 0.2
v 0 -2.45 -0.2
v 0.1 -2.45 -0.2
v 0 -2.45 -0.3
v 0.1 -2.45 -0.3
v 0 -2.45 -0.8
v 0.1 -2.45 -0.8
v -0.1 -1.85 0.9
v 0.1 -1.85 0.9
v 0 -1.85 0.8
v 0.1 -1.85 0.8
v 0 -1.85 0.6
v -0.1 -1.85 0.4
v 0 -1.85 0.4
v 0 -1.25 -0.8
v 0.1 -1.25 -0.8
v 0 -1.25 -0.9
v 0.1 -1.25 -0.9
v -0.1 -0.15 -0.3
v 0 -0.15 -0.3
v -0.1 -0.15 -0.6
v 0 -0.15 -0.6
v -0.1 0.15 -0.5
v 0 0.15 -0.5
v 0 0.15 -0.7
v -0.1 0.15 -0.8
v 0 0.15 -0.8
v 0 0.55 0.9
v 0.1 0.55 0.9
v 0 0.55 0.8
v 0.1 0.55 0.8
v 0 1.05 0.3
v 0.1 1.05 0.3
v 0 1.05 -0.3
v 0.1 1.05 -0.3
v -0.1 1.85 -0.5
v 0 1.85 -0.5
v 0 1.85 -0.8
v 0.1 1.85 -0.8
v -0.1 1.85 -0.9
v 0.1 1.85 -0.9
v -0.1 -1.55 0.9
v 0.1 -1.55 0.9
v 0 -1.55 0.8
v 0.1 -1.55 0.8
v -0.1 -1.55 0.4
v 0 -1.55 0.4
v 0 -1.05 -0.8
v 0.1 -1.05 -0.8
v 0 -1.05 -0.9
v 0.1 -1.05 -0.9
v -0.1 0.0500002 -0.3
v 0 0.0500002 -0.3
v 0 0.0500002 -0.4
v -0.1 0.0500002 -0.6
v 0 0.0500002 -0.6
v -0.1 0.35 -0.5
v 0 0.35 -0.5
v -0.1 0.35 -0.8
v 0 0.35 -0.8
v 0 0.55 0.3
v 0.1 0.55 0.3
v 0 0.55 0.2
v 0.1 0.55 0.2
v 0 0.55 -0.2
v 0.1 0.55 -0.2
v 0 0.55 -0.3
v 0.1 0.55 -0.3
v 0 0.75 0.9
v 0.1 0.75 0.9
v 0 0.75 0.8
v 0.1 0.75 0.8
v 0 2.15 0.8
v 0.1 2.15 0.8
v 0 2.15 0.7
v 0.1 2.15 0.7
v -0.1 2.15 -0.5
v 0 2.15 -0.5
v 0 2.15 -0.7
v 0.1 2.15 -0.7
v -0.1 2.15 -0.9
v 0.1 2.15 -0.9
v 0 2.45 0.7
v 0.1 2.45 0.7
v 0 2.45 -0.7
v 0.1 2.45 -0.7

# faces
f 3/2/1 2/2/1 1/2/1
f 4/2/1 2/2/1 3/2/1
f 7/2/1 6/2/1 5/2/1
f 8/2/1 6/2/1 7/2/1
f 11/2/1 10/2/1 9/2/1
f 12/2/1 10/2/1 11/2/1
f 15/2/1 14/2/1 13/2/1
f 16/2/1 14/2/1 15/2/1
f 23/2/1 18/2/1 17/2/1
f 24/2/1 18/2/1 23/2/1
f 25/2/1 18/2/1 24/2/1
f 26/2/1 18/2/1 25/2/1
f 27/2/1 22/2/1 21/2/1
f 27/1/1 21/1/1 20/1/1
f 28/2/1 22/2/1 27/2/1
f 29/3/1 24/3/1 23/3/1
f 29/2/1 25/2/1 24/2/1
f 30/3/1 26/3/1 25/3/1
f 30/2/1 25/2/1 29/2/1
f 31/2/1 18/2/1 26/2/1
f 31/3/1 26/3/1 30/3/1
f 32/1/1 19/1/1 18/1/1
f 32/2/1 18/2/1 31/2/1
f 33/2/1 22/2/1 28/2/1
f 33/3/1 28/3/1 27/3/1
f 34/2/1 22/2/1 33/2/1
f 35/3/1 30/3/1 29/3/1
f 35/3/1 31/3/1 30/3/1
f 35/3/1 29/3/1 23/3/1
f 35/3/1 32/3/1 31/3/1
f 36/3/1 32/3/1 35/3/1
f 37/2/1 36/2/1 35/2/1
f 38/3/1 32/3/1 36/3/1
f 38/2/1 36/2/1 37/2/1
f 39/3/1 32/3/1 38/3/1
f 41/3/1 32/3/1 39/3/1
f 42/3/1 34/3/1 33/3/1
f 42/3/1 33/3/1 27/3/1
f 43/3/1 34/3/1 42/3/1
f 44/2/1 43/2/1 42/2/1
f 46/2/1 44/2/1 42/2/1
f 46/2/1 45/2/1 44/2/1
f 46/3/1 42/3/1 27/3/1
f 47/2/1 45/2/1 46/2/1
f 48/2/1 45/2/1 47/2/1
f 49/3/1 41/3/1 40/3/1
f 50/3/1 41/3/1 49/3/1
f 51/2/1 50/2/1 49/2/1
f 52/3/1 41/3/1 50/3/1
f 52/2/1 50/2/1 51/2/1
f 53/3/1 52/3/1 51/3/1
f 53/3/1 41/3/1 52/3/1
f 54/3/1 32/3/1 41/3/1
f 54/3/1 41/3/1 53/3/1
f 55/1/1 27/1/1 20/1/1
f 55/3/1 46/3/1 27/3/1
f 55/3/1 47/3/1 46/3/1
f 56/3/1 47/3/1 55/3/1
f 57/3/1 53/3/1 51/3/1
f 57/2/1 54/2/1 53/2/1
f 58/3/1 32/3/1 54/3/1
f 58/2/1 54/2/1 57/2/1
f 59/2/1 56/2/1 55/2/1
f 59/1/1 55/1/1 20/1/1
f 60/3/1 47/3/1 56/3/1
f 60/2/1 56/2/1 59/2/1
f 61/1/1 59/1/1 20/1/1
f 63/3/1 47/3/1 60/3/1
f 64/3/1 47/3/1 63/3/1
f 65/2/1 63/2/1 62/2/1
f 65/2/1 64/2/1 63/2/1
f 66/3/1 47/3/1 64/3/1
f 66/2/1 64/2/1 65/2/1
f 67/3/1 47/3/1 66/3/1
f 68/3/1 62/3/1 61/3/1
f 68/2/1 65/2/1 62/2/1
f 69/2/1 65/2/1 68/2/1
f 71/3/1 57/3/1 51/3/1
f 71/3/1 58/3/1 57/3/1
f 72/3/1 58/3/1 71/3/1
f 73/3/1 32/3/1 58/3/1
f 73/3/1 58/3/1 72/3/1
f 74/1/1 19/1/1 32/1/1
f 74/3/1 32/3/1 73/3/1
f 75/3/1 70/3/1 69/3/1
f 75/3/1 69/3/1 68/3/1
f 75/1/1 61/1/1 20/1/1
f 75/3/1 68/3/1 61/3/1
f 76/3/1 70/3/1 75/3/1
f 78/2/1 72/2/1 71/2/1
f 79/1/1 19/1/1 74/1/1
f 79/1/1 74/1/1 73/1/1
f 80/1/1 19/1/1 79/1/1
f 81/1/1 75/1/1 20/1/1
f 81/1/1 76/1/1 75/1/1
f 82/1/1 76/1/1 81/1/1
f 83/2/1 78/2/1 77/2/1
f 84/2/1 72/2/1 78/2/1
f 84/2/1 78/2/1 83/2/1
f 85/3/1 73/3/1 72/3/1
f 85/2/1 72/2/1 84/2/1
f 86/1/1 79/1/1 73/1/1
f 87/1/1 76/1/1 82/1/1
f 88/3/1 73/3/1 85/3/1
f 88/1/1 87/1/1 86/1/1
f 88/1/1 86/1/1 73/1/1
f 88/3/1 85/3/1 84/3/1
f 89/1/1 76/1/1 87/1/1
f 89/1/1 87/1/1 88/1/1
f 89/3/1 70/3/1 76/3/1
f 90/3/1 89/3/1 88/3/1
f 91/3/1 89/3/1 90/3/1
f 92/3/1 70/3/1 89/3/1
f 92/3/1 89/3/1 91/3/1
f 93/3/1 70/3/1 92/3/1
f 94/3/1 88/3/1 84/3/1
f 94/3/1 90/3/1 88/3/1
f 95/3/1 90/3/1 94/3/1
f 96/2/1 91/2/1 90/2/1
f 96/3/1 90/3/1 95/3/1
f 97/3/1 92/3/1 91/3/1
f 97/2/1 91/2/1 96/2/1
f 98/2/1 93/2/1 92/2/1
f 99/2/1 93/2/1 98/2/1
f 100/2/1 95/2/1 94/2/1
f 100/3/1 94/3/1 84/3/1
f 101/3/1 96/3/1 95/3/1
f 101/2/1 95/2/1 100/2/1
f 101/3/1 97/3/1 96/3/1
f 102/3/1 101/3/1 100/3/1
f 102/3/1 97/3/1 101/3/1
f 103/3/1 97/3/1 102/3/1
f 104/3/1 100/3/1 84/3/1
f 104/3/1 102/3/1 100/3/1
f 105/3/1 102/3/1 104/3/1
f 106/2/1 103/2/1 102/2/1
f 106/3/1 102/3/1 105/3/1
f 107/3/1 97/3/1 103/3/1
f 107/2/1 103/2/1 106/2/1
f 108/3/1 92/3/1 97/3/1
f 108/3/1 97/3/1 107/3/1
f 108/2/1 98/2/1 92/2/1
f 109/2/1 98/2/1 108/2/1
f 111/3/1 107/3/1 106/3/1
f 111/3/1 110/3/1 109/3/1
f 111/3/1 109/3/1 108/3/1
f 111/3/1 108/3/1 107/3/1
f 111/3/1 106/3/1 105/3/1
f 112/3/1 110/3/1 111/3/1
f 113/2/2 114/2/2 119/2/2
f 119/2/2 114/2/2 120/2/2
f 120/2/2 114/2/2 121/2/2
f 121/2/2 114/2/2 122/2/2
f 117/2/2 118/2/2 123/2/2
f 116/1/2 117/1/2 123/1/2
f 123/2/2 118/2/2 124/2/2
f 119/3/2 120/3/2 125/3/2
f 120/2/2 121/2/2 125/2/2
f 121/3/2 122/3/2 126/3/2
f 125/2/2 121/2/2 126/2/2
f 122/2/2 114/2/2 127/2/2
f 126/3/2 122/3/2 127/3/2
f 114/1/2 115/1/2 128/1/2
f 127/2/2 114/2/2 128/2/2
f 124/2/2 118/2/2 129/2/2
f 123/3/2 124/3/2 129/3/2
f 129/2/2 118/2/2 130/2/2
f 125/3/2 126/3/2 131/3/2
f 126/3/2 127/3/2 131/3/2
f 119/3/2 125/3/2 131/3/2
f 127/3/2 128/3/2 131/3/2
f 131/3/2 128/3/2 132/3/2
f 131/2/2 132/2/2 134/2/2
f 133/2/2 134/2/2 135/2/2
f 134/2/2 132/2/2 136/2/2
f 135/2/2 134/2/2 136/2/2
f 132/3/2 128/3/2 137/3/2
f 136/2/2 132/2/2 137/2/2
f 129/3/2 130/3/2 138/3/2
f 123/3/2 129/3/2 138/3/2
f 138/3/2 130/3/2 139/3/2
f 138/2/2 139/2/2 140/2/2
f 138/2/2 140/2/2 142/2/2
f 140/2/2 141/2/2 142/2/2
f 123/3/2 138/3/2 142/3/2
f 142/2/2 141/2/2 143/2/2
f 143/2/2 141/2/2 144/2/2
f 136/3/2 137/3/2 145/3/2
f 145/3/2 137/3/2 146/3/2
f 145/2/2 146/2/2 147/2/2
f 146/3/2 137/3/2 148/3/2
f 147/2/2 146/2/2 148/2/2
f 137/3/2 128/3/2 149/3/2
f 148/3/2 137/3/2 149/3/2
f 147/3/2 148/3/2 149/3/2
f 149/3/2 128/3/2 150/3/2
f 116/1/2 123/1/2 151/1/2
f 123/3/2 142/3/2 151/3/2
f 142/3/2 143/3/2 151/3/2
f 151/3/2 143/3/2 152/3/2
f 149/2/2 150/2/2 153/2/2
f 147/3/2 149/3/2 153/3/2
f 150/3/2 128/3/2 154/3/2
f 153/2/2 150/2/2 154/2/2
f 151/2/2 152/2/2 155/2/2
f 116/1/2 151/1/2 155/1/2
f 152/3/2 143/3/2 156/3/2
f 155/2/2 152/2/2 156/2/2
f 155/3/2 156/3/2 157/3/2
f 156/3/2 143/3/2 158/3/2
f 157/3/2 156/3/2 158/3/2
f 155/3/2 157/3/2 159/3/2
f 157/2/2 158/2/2 159/2/2
f 158/3/2 143/3/2 160/3/2
f 159/2/2 158/2/2 160/2/2
f 147/3/2 153/3/2 161/3/2
f 153/3/2 154/3/2 161/3/2
f 161/3/2 154/3/2 162/3/2
f 154/3/2 128/3/2 163/3/2
f 162/3/2 154/3/2 163/3/2
f 128/1/2 115/1/2 164/1/2
f 163/3/2 128/3/2 164/3/2
f 116/1/2 155/1/2 165/1/2
f 159/3/2 160/3/2 165/3/2
f 155/3/2 159/3/2 165/3/2
f 165/3/2 160/3/2 166/3/2
f 161/2/2 162/2/2 168/2/2
f 164/1/2 115/1/2 169/1/2
f 163/1/2 164/1/2 169/1/2
f 169/1/2 115/1/2 170/1/2
f 116/1/2 165/1/2 171/1/2
f 165/1/2 166/1/2 171/1/2
f 171/1/2 166/1/2 172/1/2
f 167/2/2 168/2/2 173/2/2
f 168/2/2 162/2/2 174/2/2
f 173/2/2 168/2/2 174/2/2
f 162/3/2 163/3/2 175/3/2
f 174/2/2 162/2/2 175/2/2
f 163/1/2 169/1/2 176/1/2
f 172/1/2 166/1/2 177/1/2
f 175/3/2 163/3/2 178/3/2
f 176/1/2 177/1/2 178/1/2
f 163/1/2 176/1/2 178/1/2
f 174/3/2 175/3/2 178/3/2
f 177/1/2 166/1/2 179/1/2
f 178/1/2 177/1/2 179/1/2
f 166/3/2 160/3/2 179/3/2
f 178/3/2 179/3/2 180/3/2
f 180/3/2 179/3/2 181/3/2
f 179/3/2 160/3/2 182/3/2
f 181/3/2 179/3/2 182/3/2
f 160/3/2 143/3/2 183/3/2
f 182/3/2 160/3/2 183/3/2
f 174/3/2 178/3/2 184/3/2
f 178/3/2 180/3/2 184/3/2
f 184/3/2 180/3/2 185/3/2
f 180/2/2 181/2/2 186/2/2
f 185/3/2 180/3/2 186/3/2
f 181/3/2 182/3/2 187/3/2
f 186/2/2 181/2/2 187/2/2
f 182/2/2 183/2/2 188/2/2
f 184/2/2 185/2/2 190/2/2
f 174/3/2 184/3/2 190/3/2
f 185/3/2 186/3/2 191/3/2
f 190/2/2 185/2/2 191/2/2
f 186/3/2 187/3/2 191/3/2
f 190/3/2 191/3/2 192/3/2
f 191/3/2 187/3/2 192/3/2
f 192/3/2 187/3/2 193/3/2
f 174/3/2 190/3/2 194/3/2
f 190/3/2 192/3/2 194/3/2
f 194/3/2 192/3/2 195/3/2
f 192/2/2 193/2/2 196/2/2
f 195/3/2 192/3/2 196/3/2
f 193/3/2 187/3/2 197/3/2
f 196/2/2 193/2/2 197/2/2
f 182/2/2 188/2/2 198/2/2
f 197/3/2 187/3/2 198/3/2
f 188/2/2 189/2/2 198/2/2
f 187/3/2 182/3/2 198/3/2
f 198/2/2 189/2/2 199/2/2
f 199/2/2 189/2/2 200/2/2
f 196/3/2 197/3/2 201/3/2
f 195/3/2 196/3/2 201/3/2
f 198/3/2 199/3/2 201/3/2
f 197/3/2 198/3/2 201/3/2
f 201/3/2 199/3/2 202/3/2
f 207/2/3 204/2/3 203/2/3
f 208/2/3 204/2/3 207/2/3
f 209/2/3 206/2/3 205/2/3
f 210/2/3 206/2/3 209/2/3
f 222/2/3 212/2/3 211/2/3
f 223/3/3 213/3/3 212/3/3
f 223/2/3 212/2/3 222/2/3
f 224/2/3 214/2/3 213/2/3
f 224/3/3 213/3/3 223/3/3
f 225/2/3 214/2/3 224/2/3
f 226/3/3 216/3/3 215/3/3
f 227/2/3 217/2/3 216/2/3
f 227/3/3 216/3/3 226/3/3
f 228/3/3 218/3/3 217/3/3
f 228/2/3 217/2/3 227/2/3
f 229/2/3 219/2/3 218/2/3
f 229/3/3 218/3/3 228/3/3
f 230/2/3 219/2/3 229/2/3
f 231/3/3 221/3/3 220/3/3
f 232/3/3 221/3/3 231/3/3
f 235/3/3 234/3/3 233/3/3
f 236/3/3 234/3/3 235/3/3
f 239/1/3 238/1/3 237/1/3
f 240/1/3 238/1/3 239/1/3
f 243/2/3 242/2/3 241/2/3
f 244/2/3 242/2/3 243/2/3
f 247/1/3 246/1/3 245/1/3
f 248/1/3 246/1/3 247/1/3
f 253/2/3 250/2/3 249/2/3
f 254/2/3 250/2/3 253/2/3
f 255/2/3 252/2/3 251/2/3
f 256/2/3 252/2/3 255/2/3
f 257/2/4 258/2/4 259/2/4
f 259/2/4 258/2/4 260/2/4
f 261/1/4 262/1/4 263/1/4
f 263/1/4 262/1/4 264/1/4
f 265/1/4 266/1/4 267/1/4
f 267/1/4 266/1/4 268/1/4
f 269/2/4 270/2/4 271/2/4
f 271/2/4 270/2/4 272/2/4
f 273/3/4 274/3/4 275/3/4
f 275/3/4 274/3/4 276/3/4
f 277/2/4 278/2/4 284/2/4
f 284/2/4 278/2/4 285/2/4
f 279/2/4 280/2/4 288/2/4
f 280/3/4 281/3/4 289/3/4
f 288/2/4 280/2/4 289/2/4
f 281/2/4 282/2/4 290/2/4
f 289/3/4 281/3/4 290/3/4
f 290/2/4 282/2/4 291/2/4
f 283/3/4 284/3/4 292/3/4
f 284/3/4 285/3/4 292/3/4
f 285/3/4 286/3/4 292/3/4
f 286/2/4 287/2/4 293/2/4
f 292/3/4 286/3/4 293/3/4
f 293/2/4 287/2/4 294/2/4
f 297/2/4 298/2/4 299/2/4
f 299/2/4 298/2/4 300/2/4
f 295/2/4 296/2/4 301/2/4
f 301/2/4 296/2/4 302/2/4
f 305/2/5 304/2/5 303/2/5
f 306/2/5 304/2/5 305/2/5
f 307/1/5 306/1/5 305/1/5
f 308/1/5 306/1/5 307/1/5
f 311/1/5 310/1/5 309/1/5
f 312/1/5 310/1/5 311/1/5
f 313/2/5 312/2/5 311/2/5
f 314/2/5 312/2/5 313/2/5
f 317/2/5 316/2/5 315/2/5
f 318/2/5 316/2/5 317/2/5
f 319/2/5 317/2/5 315/2/5
f 320/2/5 319/2/5 315/2/5
f 321/2/5 319/2/5 320/2/5
f 324/2/5 323/2/5 322/2/5
f 325/2/5 323/2/5 324/2/5
f 328/2/5 327/2/5 326/2/5
f 329/2/5 327/2/5 328/2/5
f 332/2/5 331/2/5 330/2/5
f 333/2/5 332/2/5 330/2/5
f 334/2/5 332/2/5 333/2/5
f 337/2/5 336/2/5 335/2/5
f 338/2/5 336/2/5 337/2/5
f 341/1/5 340/1/5 339/1/5
f 342/1/5 340/1/5 341/1/5
f 345/2/5 344/2/5 343/2/5
f 347/2/5 345/2/5 343/2/5
f 347/2/5 346/2/5 345/2/5
f 348/2/5 346/2/5 347/2/5
f 349/2/6 350/2/6 351/2/6
f 351/2/6 350/2/6 352/2/6
f 349/2/6 351/2/6 353/2/6
f 353/2/6 351/2/6 354/2/6
f 355/2/6 356/2/6 357/2/6
f 357/2/6 356/2/6 358/2/6
f 359/2/6 360/2/6 361/2/6
f 359/2/6 361/2/6 362/2/6
f 362/2/6 361/2/6 363/2/6
f 364/2/6 365/2/6 366/2/6
f 366/2/6 365/2/6 367/2/6
f 368/1/6 369/1/6 370/1/6
f 370/1/6 369/1/6 371/1/6
f 372/1/6 373/1/6 374/1/6
f 374/1/6 373/1/6 375/1/6
f 376/2/6 377/2/6 378/2/6
f 378/2/6 377/2/6 379/2/6
f 380/3/6 381/3/6 382/3/6
f 382/3/6 381/3/6 383/3/6
f 384/2/6 385/2/6 386/2/6
f 384/2/6 386/2/6 388/2/6
f 386/2/6 387/2/6 388/2/6
f 388/2/6 387/2/6 389/2/6
f 390/3/6 391/3/6 392/3/6
f 392/3/6 391/3/6 393/3/6
