# MagicaVoxel @ Ephtracy

# group
o 

# material
mtllib SmallBuilding04-2.mtl
usemtl palette

# normals
vn -1 0 0
vn 1 0 0
vn 0 0 1
vn 0 0 -1
vn 0 -1 0
vn 0 1 0

# texcoords
vt 0.759766 0.5
vt 0.939453 0.5
vt 0.943359 0.5

# verts
v -0.9 0.15 0.1
v -0.9 0.15 0
v -0.9 0.35 0.1
v -0.9 0.35 0
v -0.9 1.85 0.1
v -0.9 1.85 -0.1
v -0.9 2.15 0.1
v -0.9 2.15 -0.1
v -0.8 -2.45 0.1
v -0.8 -2.45 0
v -0.8 -2.25 0.1
v -0.8 -2.25 0
v -0.8 -1.35 0.1
v -0.8 -1.35 0
v -0.8 -1.25 0
v -0.8 -1.25 -0.1
v -0.8 -1.05 0.1
v -0.8 -1.05 0
v -0.8 -1.05 -0.1
v -0.8 0.15 0.1
v -0.8 0.15 0
v -0.8 0.35 0.1
v -0.8 0.35 0
v -0.8 1.75 0.1
v -0.8 1.75 0
v -0.8 1.85 0.1
v -0.8 1.85 0
v -0.7 2.15 0.1
v -0.7 2.15 0
v -0.7 2.45 0.1
v -0.7 2.45 0
v -0.6 1.85 0.1
v -0.6 1.85 0
v -0.6 2.05 0.1
v -0.6 2.05 0
v -0.6 2.15 0.1
v -0.6 2.15 0
v -0.3 2.05 0
v -0.3 2.05 -0.1
v -0.3 2.25 0
v -0.3 2.25 -0.1
v 0.2 -1.45 0.1
v 0.2 -1.45 0
v 0.2 1.05 0.1
v 0.2 1.05 0
v 0.5 -0.55 0
v 0.5 -0.55 -0.1
v 0.5 -0.35 0
v 0.5 -0.35 -0.1
v 0.5 1.05 0
v 0.5 1.05 -0.1
v 0.5 1.25 0
v 0.5 1.25 -0.1
v 0.6 0.75 0
v 0.6 0.75 -0.1
v 0.6 1.05 0
v 0.6 1.05 -0.1
v -0.7 1.85 0.1
v -0.7 1.85 0
v -0.7 2.15 0.1
v -0.7 2.15 0
v -0.5 -1.25 0
v -0.5 -1.25 -0.1
v -0.5 -1.05 0
v -0.5 -1.05 -0.1
v -0.5 1.85 0
v -0.5 1.85 -0.1
v -0.5 2.15 0
v -0.5 2.15 -0.1
v -0.2 -1.45 0.1
v -0.2 -1.45 0
v -0.2 1.05 0.1
v -0.2 1.05 0
v 0 2.05 0
v 0 2.05 -0.1
v 0 2.25 0
v 0 2.25 -0.1
v 0.7 2.15 0.1
v 0.7 2.15 0
v 0.7 2.25 0.1
v 0.7 2.25 0
v 0.7 2.45 0.1
v 0.7 2.45 0
v 0.8 -2.45 0.1
v 0.8 -2.45 0
v 0.8 -2.25 0.1
v 0.8 -2.25 0
v 0.8 -0.65 0.1
v 0.8 -0.65 0
v 0.8 -0.55 0.1
v 0.8 -0.55 0
v 0.8 -0.55 -0.1
v 0.8 -0.45 0.1
v 0.8 -0.45 0
v 0.8 -0.35 0
v 0.8 -0.35 -0.1
v 0.8 -0.25 0.1
v 0.8 -0.25 0
v 0.8 0.65 0.1
v 0.8 0.65 0
v 0.8 0.75 0.1
v 0.8 0.75 0
v 0.8 1.05 0.1
v 0.8 1.05 0
v 0.8 1.05 -0.1
v 0.8 1.25 0
v 0.8 1.25 -0.1
v 0.8 2.15 0.1
v 0.8 2.15 0
v 0.9 0.75 0.1
v 0.9 0.75 -0.1
v 0.9 1.05 0.1
v 0.9 1.05 -0.1
v -0.9 0.15 0.1
v -0.9 0.35 0.1
v -0.9 1.85 0.1
v -0.9 2.15 0.1
v -0.8 -2.45 0.1
v -0.8 -2.25 0.1
v -0.8 -1.35 0.1
v -0.8 -1.05 0.1
v -0.8 0.15 0.1
v -0.8 0.35 0.1
v -0.8 1.75 0.1
v -0.8 1.85 0.1
v -0.7 -2.35 0.1
v -0.7 -2.25 0.1
v -0.7 1.85 0.1
v -0.7 2.15 0.1
v -0.7 2.45 0.1
v -0.6 -2.35 0.1
v -0.6 -2.25 0.1
v -0.6 -0.05 0.1
v -0.6 0.0500002 0.1
v -0.6 1.85 0.1
v -0.6 2.05 0.1
v -0.6 2.15 0.1
v -0.5 -2.35 0.1
v -0.5 -2.25 0.1
v -0.5 -1.35 0.1
v -0.5 -1.05 0.1
v -0.5 -0.05 0.1
v -0.5 0.0500002 0.1
v -0.5 0.95 0.1
v -0.5 1.05 0.1
v -0.5 1.75 0.1
v -0.5 1.85 0.1
v -0.5 2.05 0.1
v -0.5 2.15 0.1
v -0.4 -2.35 0.1
v -0.4 -2.25 0.1
v -0.4 0.95 0.1
v -0.4 1.05 0.1
v -0.4 1.95 0.1
v -0.4 2.25 0.1
v -0.3 -1.55 0.1
v -0.3 1.15 0.1
v -0.2 -2.35 0.1
v -0.2 -2.25 0.1
v -0.2 -1.45 0.1
v -0.2 1.05 0.1
v -0.1 -2.35 0.1
v -0.1 -2.25 0.1
v 0 -2.35 0.1
v 0 -2.25 0.1
v 0 1.95 0.1
v 0 2.25 0.1
v 0.1 2.25 0.1
v 0.1 2.35 0.1
v 0.2 -1.45 0.1
v 0.2 1.05 0.1
v 0.2 2.25 0.1
v 0.2 2.35 0.1
v 0.3 -1.55 0.1
v 0.3 1.15 0.1
v 0.3 1.95 0.1
v 0.3 2.05 0.1
v 0.4 -2.35 0.1
v 0.4 -2.25 0.1
v 0.4 -1.75 0.1
v 0.4 -1.65 0.1
v 0.4 -0.65 0.1
v 0.4 -0.35 0.1
v 0.4 1.95 0.1
v 0.4 2.05 0.1
v 0.5 -1.75 0.1
v 0.5 -1.65 0.1
v 0.5 -0.55 0.1
v 0.5 -0.35 0.1
v 0.5 -0.25 0.1
v 0.5 -0.15 0.1
v 0.5 2.05 0.1
v 0.5 2.15 0.1
v 0.6 -2.35 0.1
v 0.6 -2.25 0.1
v 0.6 -0.25 0.1
v 0.6 -0.15 0.1
v 0.6 2.05 0.1
v 0.6 2.15 0.1
v 0.6 2.25 0.1
v 0.7 -2.35 0.1
v 0.7 -2.25 0.1
v 0.7 -0.45 0.1
v 0.7 -0.25 0.1
v 0.7 0.65 0.1
v 0.7 0.75 0.1
v 0.7 2.15 0.1
v 0.7 2.25 0.1
v 0.7 2.45 0.1
v 0.8 -2.45 0.1
v 0.8 -2.25 0.1
v 0.8 -0.65 0.1
v 0.8 -0.55 0.1
v 0.8 -0.45 0.1
v 0.8 -0.25 0.1
v 0.8 0.65 0.1
v 0.8 0.75 0.1
v 0.8 1.05 0.1
v 0.8 2.15 0.1
v 0.9 0.75 0.1
v 0.9 1.05 0.1
v -0.7 1.85 0
v -0.7 2.15 0
v -0.6 1.85 0
v -0.6 2.05 0
v -0.6 2.15 0
v -0.9 0.15 0
v -0.9 0.35 0
v -0.8 -2.45 0
v -0.8 -2.25 0
v -0.8 -1.35 0
v -0.8 -1.25 0
v -0.8 -1.05 0
v -0.8 0.15 0
v -0.8 0.35 0
v -0.8 1.75 0
v -0.8 1.85 0
v -0.7 -2.35 0
v -0.7 -2.25 0
v -0.7 2.15 0
v -0.7 2.45 0
v -0.6 -2.35 0
v -0.6 -2.25 0
v -0.6 -0.05 0
v -0.6 0.0500002 0
v -0.5 -2.35 0
v -0.5 -2.25 0
v -0.5 -1.35 0
v -0.5 -1.25 0
v -0.5 -1.05 0
v -0.5 -0.05 0
v -0.5 0.0500002 0
v -0.5 0.95 0
v -0.5 1.05 0
v -0.5 1.75 0
v -0.5 1.85 0
v -0.5 2.15 0
v -0.4 -2.35 0
v -0.4 -2.25 0
v -0.4 0.95 0
v -0.4 1.05 0
v -0.4 1.95 0
v -0.4 2.25 0
v -0.3 -1.55 0
v -0.3 1.15 0
v -0.3 2.05 0
v -0.3 2.25 0
v -0.2 -2.35 0
v -0.2 -2.25 0
v -0.2 -1.45 0
v -0.2 1.05 0
v -0.1 -2.35 0
v -0.1 -2.25 0
v 0 -2.35 0
v 0 -2.25 0
v 0 1.95 0
v 0 2.05 0
v 0 2.25 0
v 0.1 2.25 0
v 0.1 2.35 0
v 0.2 -1.45 0
v 0.2 1.05 0
v 0.2 2.25 0
v 0.2 2.35 0
v 0.3 -1.55 0
v 0.3 1.15 0
v 0.3 1.95 0
v 0.3 2.05 0
v 0.4 -2.35 0
v 0.4 -2.25 0
v 0.4 -1.75 0
v 0.4 -1.65 0
v 0.4 -0.65 0
v 0.4 -0.35 0
v 0.4 1.95 0
v 0.4 2.05 0
v 0.5 -1.75 0
v 0.5 -1.65 0
v 0.5 -0.55 0
v 0.5 -0.35 0
v 0.5 -0.25 0
v 0.5 -0.15 0
v 0.5 1.05 0
v 0.5 1.25 0
v 0.5 2.05 0
v 0.5 2.15 0
v 0.6 -2.35 0
v 0.6 -2.25 0
v 0.6 -0.25 0
v 0.6 -0.15 0
v 0.6 0.75 0
v 0.6 1.05 0
v 0.6 2.05 0
v 0.6 2.15 0
v 0.6 2.25 0
v 0.7 -2.35 0
v 0.7 -2.25 0
v 0.7 -0.35 0
v 0.7 -0.25 0
v 0.7 0.65 0
v 0.7 0.75 0
v 0.7 2.15 0
v 0.7 2.25 0
v 0.7 2.45 0
v 0.8 -2.45 0
v 0.8 -2.25 0
v 0.8 -0.65 0
v 0.8 -0.55 0
v 0.8 -0.35 0
v 0.8 -0.25 0
v 0.8 0.65 0
v 0.8 0.75 0
v 0.8 1.25 0
v 0.8 2.15 0
v -0.9 1.85 -0.1
v -0.9 2.15 -0.1
v -0.8 -1.25 -0.1
v -0.8 -1.05 -0.1
v -0.5 -1.25 -0.1
v -0.5 -1.05 -0.1
v -0.5 1.85 -0.1
v -0.5 2.15 -0.1
v -0.3 2.05 -0.1
v -0.3 2.25 -0.1
v 0 2.05 -0.1
v 0 2.25 -0.1
v 0.5 -0.55 -0.1
v 0.5 -0.35 -0.1
v 0.5 1.05 -0.1
v 0.5 1.25 -0.1
v 0.6 0.75 -0.1
v 0.6 1.05 -0.1
v 0.8 -0.55 -0.1
v 0.8 -0.35 -0.1
v 0.8 1.05 -0.1
v 0.8 1.25 -0.1
v 0.9 0.75 -0.1
v 0.9 1.05 -0.1
v -0.8 -2.45 0.1
v 0.8 -2.45 0.1
v -0.8 -2.45 0
v 0.8 -2.45 0
v -0.8 -1.25 0
v -0.5 -1.25 0
v -0.8 -1.25 -0.1
v -0.5 -1.25 -0.1
v 0.5 -0.55 0
v 0.8 -0.55 0
v 0.5 -0.55 -0.1
v 0.8 -0.55 -0.1
v -0.9 0.15 0.1
v -0.8 0.15 0.1
v -0.9 0.15 0
v -0.8 0.15 0
v 0.8 0.75 0.1
v 0.9 0.75 0.1
v 0.6 0.75 0
v 0.7 0.75 0
v 0.8 0.75 0
v 0.6 0.75 -0.1
v 0.9 0.75 -0.1
v -0.2 1.05 0.1
v 0.2 1.05 0.1
v -0.2 1.05 0
v 0.2 1.05 0
v 0.5 1.05 0
v 0.6 1.05 0
v 0.5 1.05 -0.1
v 0.6 1.05 -0.1
v -0.9 1.85 0.1
v -0.8 1.85 0.1
v -0.8 1.85 0
v -0.5 1.85 0
v -0.9 1.85 -0.1
v -0.5 1.85 -0.1
v -0.3 2.05 0
v 0 2.05 0
v -0.3 2.05 -0.1
v 0 2.05 -0.1
v -0.7 2.15 0.1
v -0.6 2.15 0.1
v -0.7 2.15 0
v -0.6 2.15 0
v -0.2 -1.45 0.1
v 0.2 -1.45 0.1
v -0.2 -1.45 0
v 0.2 -1.45 0
v -0.8 -1.05 0
v -0.5 -1.05 0
v -0.8 -1.05 -0.1
v -0.5 -1.05 -0.1
v 0.5 -0.35 0
v 0.7 -0.35 0
v 0.8 -0.35 0
v 0.5 -0.35 -0.1
v 0.8 -0.35 -0.1
v -0.9 0.35 0.1
v -0.8 0.35 0.1
v -0.9 0.35 0
v -0.8 0.35 0
v 0.8 1.05 0.1
v 0.9 1.05 0.1
v 0.8 1.05 0
v 0.8 1.05 -0.1
v 0.9 1.05 -0.1
v 0.5 1.25 0
v 0.8 1.25 0
v 0.5 1.25 -0.1
v 0.8 1.25 -0.1
v -0.7 1.85 0.1
v -0.6 1.85 0.1
v -0.7 1.85 0
v -0.6 1.85 0
v -0.9 2.15 0.1
v -0.7 2.15 0.1
v 0.7 2.15 0.1
v 0.8 2.15 0.1
v -0.7 2.15 0
v -0.5 2.15 0
v 0.7 2.15 0
v 0.8 2.15 0
v -0.9 2.15 -0.1
v -0.5 2.15 -0.1
v -0.3 2.25 0
v 0 2.25 0
v -0.3 2.25 -0.1
v 0 2.25 -0.1
v -0.7 2.45 0.1
v 0.7 2.45 0.1
v -0.7 2.45 0
v 0.7 2.45 0

# faces
f 3/2/1 2/2/1 1/2/1
f 4/2/1 2/2/1 3/2/1
f 7/2/1 6/2/1 5/2/1
f 8/2/1 6/2/1 7/2/1
f 11/2/1 10/2/1 9/2/1
f 12/2/1 10/2/1 11/2/1
f 13/3/1 12/3/1 11/3/1
f 14/3/1 12/3/1 13/3/1
f 15/2/1 14/2/1 13/2/1
f 17/2/1 15/2/1 13/2/1
f 17/2/1 16/2/1 15/2/1
f 18/2/1 16/2/1 17/2/1
f 19/2/1 16/2/1 18/2/1
f 20/3/1 18/3/1 17/3/1
f 21/3/1 18/3/1 20/3/1
f 24/3/1 23/3/1 22/3/1
f 25/3/1 23/3/1 24/3/1
f 26/2/1 25/2/1 24/2/1
f 27/2/1 25/2/1 26/2/1
f 30/3/1 29/3/1 28/3/1
f 31/3/1 29/3/1 30/3/1
f 34/3/1 33/3/1 32/3/1
f 35/3/1 33/3/1 34/3/1
f 36/2/1 35/2/1 34/2/1
f 37/2/1 35/2/1 36/2/1
f 40/2/1 39/2/1 38/2/1
f 41/2/1 39/2/1 40/2/1
f 44/1/1 43/1/1 42/1/1
f 45/1/1 43/1/1 44/1/1
f 48/2/1 47/2/1 46/2/1
f 49/2/1 47/2/1 48/2/1
f 52/2/1 51/2/1 50/2/1
f 53/2/1 51/2/1 52/2/1
f 56/2/1 55/2/1 54/2/1
f 57/2/1 55/2/1 56/2/1
f 58/2/2 59/2/2 60/2/2
f 60/2/2 59/2/2 61/2/2
f 62/2/2 63/2/2 64/2/2
f 64/2/2 63/2/2 65/2/2
f 66/2/2 67/2/2 68/2/2
f 68/2/2 67/2/2 69/2/2
f 70/1/2 71/1/2 72/1/2
f 72/1/2 71/1/2 73/1/2
f 74/2/2 75/2/2 76/2/2
f 76/2/2 75/2/2 77/2/2
f 78/2/2 79/2/2 80/2/2
f 80/2/2 79/2/2 81/2/2
f 80/3/2 81/3/2 82/3/2
f 82/3/2 81/3/2 83/3/2
f 84/2/2 85/2/2 86/2/2
f 86/2/2 85/2/2 87/2/2
f 86/3/2 87/3/2 88/3/2
f 88/3/2 87/3/2 89/3/2
f 88/2/2 89/2/2 90/2/2
f 90/2/2 89/2/2 91/2/2
f 90/3/2 91/3/2 93/3/2
f 91/2/2 92/2/2 94/2/2
f 93/3/2 91/3/2 94/3/2
f 93/2/2 94/2/2 95/2/2
f 94/2/2 92/2/2 95/2/2
f 95/2/2 92/2/2 96/2/2
f 93/2/2 95/2/2 97/2/2
f 97/2/2 95/2/2 98/2/2
f 97/3/2 98/3/2 99/3/2
f 99/3/2 98/3/2 100/3/2
f 99/2/2 100/2/2 101/2/2
f 101/2/2 100/2/2 102/2/2
f 103/3/2 104/3/2 106/3/2
f 104/2/2 105/2/2 106/2/2
f 106/2/2 105/2/2 107/2/2
f 103/3/2 106/3/2 108/3/2
f 108/3/2 106/3/2 109/3/2
f 110/2/2 111/2/2 112/2/2
f 112/2/2 111/2/2 113/2/2
f 122/2/3 115/2/3 114/2/3
f 123/2/3 115/2/3 122/2/3
f 125/2/3 117/2/3 116/2/3
f 126/2/3 119/2/3 118/2/3
f 127/3/3 120/3/3 119/3/3
f 127/2/3 119/2/3 126/2/3
f 128/2/3 125/2/3 124/2/3
f 128/2/3 117/2/3 125/2/3
f 129/2/3 117/2/3 128/2/3
f 131/2/3 126/2/3 118/2/3
f 131/3/3 127/3/3 126/3/3
f 132/3/3 120/3/3 127/3/3
f 132/3/3 127/3/3 131/3/3
f 133/3/3 124/3/3 123/3/3
f 133/3/3 122/3/3 121/3/3
f 133/3/3 123/3/3 122/3/3
f 134/3/3 124/3/3 133/3/3
f 135/2/3 128/2/3 124/2/3
f 137/3/3 130/3/3 129/3/3
f 138/2/3 131/2/3 118/2/3
f 138/2/3 132/2/3 131/2/3
f 139/3/3 120/3/3 132/3/3
f 139/2/3 132/2/3 138/2/3
f 140/2/3 121/2/3 120/2/3
f 140/3/3 120/3/3 139/3/3
f 141/3/3 133/3/3 121/3/3
f 141/2/3 121/2/3 140/2/3
f 142/2/3 134/2/3 133/2/3
f 142/3/3 133/3/3 141/3/3
f 143/3/3 124/3/3 134/3/3
f 143/2/3 134/2/3 142/2/3
f 144/3/3 124/3/3 143/3/3
f 145/3/3 124/3/3 144/3/3
f 146/2/3 135/2/3 124/2/3
f 146/3/3 124/3/3 145/3/3
f 147/3/3 136/3/3 135/3/3
f 147/2/3 135/2/3 146/2/3
f 148/2/3 137/2/3 136/2/3
f 148/3/3 136/3/3 147/3/3
f 149/3/3 130/3/3 137/3/3
f 149/2/3 137/2/3 148/2/3
f 150/3/3 139/3/3 138/3/3
f 150/2/3 138/2/3 118/2/3
f 150/3/3 142/3/3 141/3/3
f 150/3/3 144/3/3 143/3/3
f 150/3/3 143/3/3 142/3/3
f 150/3/3 140/3/3 139/3/3
f 150/3/3 141/3/3 140/3/3
f 151/3/3 144/3/3 150/3/3
f 152/2/3 145/2/3 144/2/3
f 152/3/3 144/3/3 151/3/3
f 153/3/3 149/3/3 148/3/3
f 153/2/3 145/2/3 152/2/3
f 153/3/3 147/3/3 146/3/3
f 153/3/3 146/3/3 145/3/3
f 153/3/3 148/3/3 147/3/3
f 154/3/3 149/3/3 153/3/3
f 155/3/3 130/3/3 149/3/3
f 155/3/3 149/3/3 154/3/3
f 156/3/3 154/3/3 153/3/3
f 156/3/3 152/3/3 151/3/3
f 156/3/3 153/3/3 152/3/3
f 157/3/3 154/3/3 156/3/3
f 158/2/3 150/2/3 118/2/3
f 158/2/3 151/2/3 150/2/3
f 159/3/3 156/3/3 151/3/3
f 159/2/3 151/2/3 158/2/3
f 160/1/3 157/1/3 156/1/3
f 161/1/3 157/1/3 160/1/3
f 162/2/3 158/2/3 118/2/3
f 162/3/3 159/3/3 158/3/3
f 163/3/3 156/3/3 159/3/3
f 163/3/3 159/3/3 162/3/3
f 164/2/3 162/2/3 118/2/3
f 164/2/3 163/2/3 162/2/3
f 165/3/3 156/3/3 163/3/3
f 165/2/3 163/2/3 164/2/3
f 166/2/3 155/2/3 154/2/3
f 166/3/3 154/3/3 157/3/3
f 167/3/3 130/3/3 155/3/3
f 167/2/3 155/2/3 166/2/3
f 168/3/3 167/3/3 166/3/3
f 168/3/3 130/3/3 167/3/3
f 169/3/3 130/3/3 168/3/3
f 170/1/3 160/1/3 156/1/3
f 171/1/3 157/1/3 161/1/3
f 172/3/3 168/3/3 166/3/3
f 172/2/3 169/2/3 168/2/3
f 173/3/3 130/3/3 169/3/3
f 173/2/3 169/2/3 172/2/3
f 174/3/3 156/3/3 165/3/3
f 174/3/3 165/3/3 164/3/3
f 174/1/3 170/1/3 156/1/3
f 174/1/3 171/1/3 170/1/3
f 175/3/3 166/3/3 157/3/3
f 175/1/3 171/1/3 174/1/3
f 175/3/3 173/3/3 172/3/3
f 175/1/3 157/1/3 171/1/3
f 175/3/3 172/3/3 166/3/3
f 176/3/3 173/3/3 175/3/3
f 177/3/3 173/3/3 176/3/3
f 178/3/3 174/3/3 164/3/3
f 178/2/3 164/2/3 118/2/3
f 178/3/3 175/3/3 174/3/3
f 178/3/3 176/3/3 175/3/3
f 179/3/3 176/3/3 178/3/3
f 180/3/3 176/3/3 179/3/3
f 181/3/3 176/3/3 180/3/3
f 182/3/3 176/3/3 181/3/3
f 183/3/3 176/3/3 182/3/3
f 184/2/3 177/2/3 176/2/3
f 184/3/3 176/3/3 183/3/3
f 185/3/3 173/3/3 177/3/3
f 185/2/3 177/2/3 184/2/3
f 186/3/3 180/3/3 179/3/3
f 186/2/3 181/2/3 180/2/3
f 187/3/3 182/3/3 181/3/3
f 187/2/3 181/2/3 186/2/3
f 188/2/3 183/2/3 182/2/3
f 189/3/3 184/3/3 183/3/3
f 189/2/3 183/2/3 188/2/3
f 189/3/3 185/3/3 184/3/3
f 190/3/3 185/3/3 189/3/3
f 191/3/3 185/3/3 190/3/3
f 192/3/3 173/3/3 185/3/3
f 192/3/3 185/3/3 191/3/3
f 193/3/3 173/3/3 192/3/3
f 194/2/3 178/2/3 118/2/3
f 194/2/3 179/2/3 178/2/3
f 195/3/3 187/3/3 186/3/3
f 195/2/3 179/2/3 194/2/3
f 195/3/3 186/3/3 179/3/3
f 196/2/3 191/2/3 190/2/3
f 196/3/3 189/3/3 188/3/3
f 196/3/3 190/3/3 189/3/3
f 197/3/3 192/3/3 191/3/3
f 197/2/3 191/2/3 196/2/3
f 198/2/3 193/2/3 192/2/3
f 198/3/3 192/3/3 197/3/3
f 199/3/3 173/3/3 193/3/3
f 199/2/3 193/2/3 198/2/3
f 200/3/3 173/3/3 199/3/3
f 201/2/3 194/2/3 118/2/3
f 201/3/3 195/3/3 194/3/3
f 202/3/3 187/3/3 195/3/3
f 202/3/3 195/3/3 201/3/3
f 203/3/3 198/3/3 197/3/3
f 203/3/3 197/3/3 196/3/3
f 203/3/3 196/3/3 188/3/3
f 203/3/3 199/3/3 198/3/3
f 204/3/3 199/3/3 203/3/3
f 205/3/3 199/3/3 204/3/3
f 206/3/3 199/3/3 205/3/3
f 207/2/3 200/2/3 199/2/3
f 207/3/3 199/3/3 206/3/3
f 208/3/3 173/3/3 200/3/3
f 208/2/3 200/2/3 207/2/3
f 209/3/3 130/3/3 173/3/3
f 209/3/3 173/3/3 208/3/3
f 210/2/3 202/2/3 201/2/3
f 210/2/3 201/2/3 118/2/3
f 211/3/3 187/3/3 202/3/3
f 211/2/3 202/2/3 210/2/3
f 212/2/3 188/2/3 182/2/3
f 212/3/3 187/3/3 211/3/3
f 212/3/3 182/3/3 187/3/3
f 213/3/3 203/3/3 188/3/3
f 213/2/3 188/2/3 212/2/3
f 214/2/3 204/2/3 203/2/3
f 214/3/3 203/3/3 213/3/3
f 215/3/3 205/3/3 204/3/3
f 215/2/3 204/2/3 214/2/3
f 216/2/3 206/2/3 205/2/3
f 216/3/3 205/3/3 215/3/3
f 217/3/3 207/3/3 206/3/3
f 217/2/3 206/2/3 216/2/3
f 218/3/3 207/3/3 217/3/3
f 219/3/3 207/3/3 218/3/3
f 220/2/3 218/2/3 217/2/3
f 221/2/3 218/2/3 220/2/3
f 224/2/3 223/2/3 222/2/3
f 225/2/3 223/2/3 224/2/3
f 226/2/3 223/2/3 225/2/3
f 227/2/4 228/2/4 234/2/4
f 234/2/4 228/2/4 235/2/4
f 229/2/4 230/2/4 238/2/4
f 230/3/4 231/3/4 239/3/4
f 238/2/4 230/2/4 239/2/4
f 229/2/4 238/2/4 242/2/4
f 238/3/4 239/3/4 242/3/4
f 239/3/4 231/3/4 243/3/4
f 242/3/4 239/3/4 243/3/4
f 233/3/4 234/3/4 244/3/4
f 234/3/4 235/3/4 244/3/4
f 235/3/4 236/3/4 244/3/4
f 244/3/4 236/3/4 245/3/4
f 242/2/4 243/2/4 246/2/4
f 229/2/4 242/2/4 246/2/4
f 243/3/4 231/3/4 247/3/4
f 246/2/4 243/2/4 247/2/4
f 231/2/4 232/2/4 248/2/4
f 247/3/4 231/3/4 248/3/4
f 248/2/4 232/2/4 249/2/4
f 233/3/4 244/3/4 250/3/4
f 244/2/4 245/2/4 251/2/4
f 250/3/4 244/3/4 251/3/4
f 245/3/4 236/3/4 252/3/4
f 251/2/4 245/2/4 252/2/4
f 252/3/4 236/3/4 253/3/4
f 253/3/4 236/3/4 254/3/4
f 236/2/4 237/2/4 255/2/4
f 254/3/4 236/3/4 255/3/4
f 255/2/4 237/2/4 256/2/4
f 240/3/4 241/3/4 257/3/4
f 246/3/4 247/3/4 258/3/4
f 229/2/4 246/2/4 258/2/4
f 250/3/4 251/3/4 258/3/4
f 249/3/4 250/3/4 258/3/4
f 248/3/4 249/3/4 258/3/4
f 252/3/4 253/3/4 258/3/4
f 251/3/4 252/3/4 258/3/4
f 247/3/4 248/3/4 258/3/4
f 258/3/4 253/3/4 259/3/4
f 253/2/4 254/2/4 260/2/4
f 259/3/4 253/3/4 260/3/4
f 256/3/4 257/3/4 261/3/4
f 260/2/4 254/2/4 261/2/4
f 255/3/4 256/3/4 261/3/4
f 254/3/4 255/3/4 261/3/4
f 261/3/4 257/3/4 262/3/4
f 257/3/4 241/3/4 263/3/4
f 262/3/4 257/3/4 263/3/4
f 259/3/4 260/3/4 264/3/4
f 261/3/4 262/3/4 264/3/4
f 260/3/4 261/3/4 264/3/4
f 264/3/4 262/3/4 265/3/4
f 262/2/4 263/2/4 266/2/4
f 263/3/4 241/3/4 267/3/4
f 266/2/4 263/2/4 267/2/4
f 258/2/4 259/2/4 268/2/4
f 229/2/4 258/2/4 268/2/4
f 259/3/4 264/3/4 269/3/4
f 268/2/4 259/2/4 269/2/4
f 264/1/4 265/1/4 270/1/4
f 270/1/4 265/1/4 271/1/4
f 229/2/4 268/2/4 272/2/4
f 268/3/4 269/3/4 272/3/4
f 269/3/4 264/3/4 273/3/4
f 272/3/4 269/3/4 273/3/4
f 229/2/4 272/2/4 274/2/4
f 272/2/4 273/2/4 274/2/4
f 273/3/4 264/3/4 275/3/4
f 274/2/4 273/2/4 275/2/4
f 262/2/4 266/2/4 276/2/4
f 265/3/4 262/3/4 276/3/4
f 276/2/4 266/2/4 277/2/4
f 267/3/4 241/3/4 278/3/4
f 276/3/4 277/3/4 279/3/4
f 277/3/4 278/3/4 279/3/4
f 278/3/4 241/3/4 279/3/4
f 279/3/4 241/3/4 280/3/4
f 264/1/4 270/1/4 281/1/4
f 271/1/4 265/1/4 282/1/4
f 276/3/4 279/3/4 283/3/4
f 279/2/4 280/2/4 283/2/4
f 280/3/4 241/3/4 284/3/4
f 283/2/4 280/2/4 284/2/4
f 275/3/4 264/3/4 285/3/4
f 274/3/4 275/3/4 285/3/4
f 264/1/4 281/1/4 285/1/4
f 281/1/4 282/1/4 285/1/4
f 283/3/4 284/3/4 286/3/4
f 285/1/4 282/1/4 286/1/4
f 276/3/4 283/3/4 286/3/4
f 282/1/4 265/1/4 286/1/4
f 265/3/4 276/3/4 286/3/4
f 286/3/4 284/3/4 287/3/4
f 287/3/4 284/3/4 288/3/4
f 229/2/4 274/2/4 289/2/4
f 274/3/4 285/3/4 289/3/4
f 285/3/4 286/3/4 289/3/4
f 286/3/4 287/3/4 289/3/4
f 289/3/4 287/3/4 290/3/4
f 290/3/4 287/3/4 291/3/4
f 291/3/4 287/3/4 292/3/4
f 292/3/4 287/3/4 293/3/4
f 293/3/4 287/3/4 294/3/4
f 287/2/4 288/2/4 295/2/4
f 294/3/4 287/3/4 295/3/4
f 288/3/4 284/3/4 296/3/4
f 295/2/4 288/2/4 296/2/4
f 290/3/4 291/3/4 297/3/4
f 291/2/4 292/2/4 297/2/4
f 292/3/4 293/3/4 298/3/4
f 297/2/4 292/2/4 298/2/4
f 293/2/4 294/2/4 299/2/4
f 294/3/4 295/3/4 300/3/4
f 299/2/4 294/2/4 300/2/4
f 295/3/4 296/3/4 300/3/4
f 300/3/4 296/3/4 301/3/4
f 301/3/4 296/3/4 302/3/4
f 302/3/4 296/3/4 303/3/4
f 303/3/4 296/3/4 304/3/4
f 296/3/4 284/3/4 305/3/4
f 304/3/4 296/3/4 305/3/4
f 305/3/4 284/3/4 306/3/4
f 229/2/4 289/2/4 307/2/4
f 289/2/4 290/2/4 307/2/4
f 297/3/4 298/3/4 308/3/4
f 307/2/4 290/2/4 308/2/4
f 290/3/4 297/3/4 308/3/4
f 301/2/4 302/2/4 309/2/4
f 300/3/4 301/3/4 309/3/4
f 302/3/4 303/3/4 310/3/4
f 309/2/4 302/2/4 310/2/4
f 310/3/4 303/3/4 311/3/4
f 311/3/4 303/3/4 312/3/4
f 305/2/4 306/2/4 313/2/4
f 304/3/4 305/3/4 313/3/4
f 306/3/4 284/3/4 314/3/4
f 313/2/4 306/2/4 314/2/4
f 314/3/4 284/3/4 315/3/4
f 229/2/4 307/2/4 316/2/4
f 307/3/4 308/3/4 316/3/4
f 308/3/4 298/3/4 317/3/4
f 316/3/4 308/3/4 317/3/4
f 310/3/4 311/3/4 318/3/4
f 300/3/4 309/3/4 318/3/4
f 309/3/4 310/3/4 318/3/4
f 318/3/4 311/3/4 319/3/4
f 319/3/4 311/3/4 320/3/4
f 320/3/4 311/3/4 321/3/4
f 314/2/4 315/2/4 322/2/4
f 313/3/4 314/3/4 322/3/4
f 315/3/4 284/3/4 323/3/4
f 322/2/4 315/2/4 323/2/4
f 284/3/4 241/3/4 324/3/4
f 323/3/4 284/3/4 324/3/4
f 229/2/4 316/2/4 325/2/4
f 316/2/4 317/2/4 325/2/4
f 317/3/4 298/3/4 326/3/4
f 325/2/4 317/2/4 326/2/4
f 293/2/4 299/2/4 327/2/4
f 326/3/4 298/3/4 327/3/4
f 298/3/4 293/3/4 327/3/4
f 327/2/4 299/2/4 328/2/4
f 318/2/4 319/2/4 329/2/4
f 319/3/4 320/3/4 330/3/4
f 329/2/4 319/2/4 330/2/4
f 320/2/4 321/2/4 331/2/4
f 330/3/4 320/3/4 331/3/4
f 331/2/4 321/2/4 332/2/4
f 304/3/4 313/3/4 333/3/4
f 313/3/4 322/3/4 333/3/4
f 333/3/4 322/3/4 334/3/4
f 337/2/4 338/2/4 339/2/4
f 339/2/4 338/2/4 340/2/4
f 335/2/4 336/2/4 341/2/4
f 341/2/4 336/2/4 342/2/4
f 343/2/4 344/2/4 345/2/4
f 345/2/4 344/2/4 346/2/4
f 349/2/4 350/2/4 352/2/4
f 347/2/4 348/2/4 353/2/4
f 353/2/4 348/2/4 354/2/4
f 351/2/4 352/2/4 355/2/4
f 352/2/4 350/2/4 355/2/4
f 355/2/4 350/2/4 356/2/4
f 351/2/4 355/2/4 357/2/4
f 357/2/4 355/2/4 358/2/4
f 361/2/5 360/2/5 359/2/5
f 362/2/5 360/2/5 361/2/5
f 365/2/5 364/2/5 363/2/5
f 366/2/5 364/2/5 365/2/5
f 369/2/5 368/2/5 367/2/5
f 370/2/5 368/2/5 369/2/5
f 373/2/5 372/2/5 371/2/5
f 374/2/5 372/2/5 373/2/5
f 379/2/5 376/2/5 375/2/5
f 380/2/5 378/2/5 377/2/5
f 380/2/5 379/2/5 378/2/5
f 381/2/5 376/2/5 379/2/5
f 381/2/5 379/2/5 380/2/5
f 384/1/5 383/1/5 382/1/5
f 385/1/5 383/1/5 384/1/5
f 388/2/5 387/2/5 386/2/5
f 389/2/5 387/2/5 388/2/5
f 392/2/5 391/2/5 390/2/5
f 394/2/5 392/2/5 390/2/5
f 394/2/5 393/2/5 392/2/5
f 395/2/5 393/2/5 394/2/5
f 398/2/5 397/2/5 396/2/5
f 399/2/5 397/2/5 398/2/5
f 402/3/5 401/3/5 400/3/5
f 403/3/5 401/3/5 402/3/5
f 404/1/6 405/1/6 406/1/6
f 406/1/6 405/1/6 407/1/6
f 408/2/6 409/2/6 410/2/6
f 410/2/6 409/2/6 411/2/6
f 412/2/6 413/2/6 415/2/6
f 413/2/6 414/2/6 415/2/6
f 415/2/6 414/2/6 416/2/6
f 417/2/6 418/2/6 419/2/6
f 419/2/6 418/2/6 420/2/6
f 421/2/6 422/2/6 423/2/6
f 423/2/6 422/2/6 424/2/6
f 424/2/6 422/2/6 425/2/6
f 426/2/6 427/2/6 428/2/6
f 428/2/6 427/2/6 429/2/6
f 430/2/6 431/2/6 432/2/6
f 432/2/6 431/2/6 433/2/6
f 434/2/6 435/2/6 438/2/6
f 436/3/6 437/3/6 440/3/6
f 440/3/6 437/3/6 441/3/6
f 438/2/6 439/2/6 442/2/6
f 434/2/6 438/2/6 442/2/6
f 442/2/6 439/2/6 443/2/6
f 444/2/6 445/2/6 446/2/6
f 446/2/6 445/2/6 447/2/6
f 448/3/6 449/3/6 450/3/6
f 450/3/6 449/3/6 451/3/6
