# MagicaVoxel @ Ephtracy

# group
o 

# material
mtllib SmallBuilding04-0.mtl
usemtl palette

# normals
vn -1 0 0
vn 1 0 0
vn 0 0 1
vn 0 0 -1
vn 0 -1 0
vn 0 1 0

# texcoords
vt 0.759766 0.5
vt 0.912109 0.5
vt 0.939453 0.5
vt 0.943359 0.5
vt 0.947266 0.5

# verts
v -0.75 -0.1 0.4
v -0.75 -0.1 0.1
v -0.75 0.1 0.4
v -0.75 0.1 0.1
v -0.65 -0.5 0.6
v -0.65 -0.5 0.2
v -0.65 -0.5 0.1
v -0.65 -0.5 -0.1
v -0.65 -0.5 -0.2
v -0.65 -0.5 -0.6
v -0.65 -0.4 0.3
v -0.65 -0.4 0.2
v -0.65 -0.2 0.5
v -0.65 -0.2 0.3
v -0.65 -0.2 0.2
v -0.65 -0.2 0.1
v -0.65 -0.1 0.4
v -0.65 -0.1 0.1
v -0.65 0.1 0.4
v -0.65 0.1 0.2
v -0.65 0.1 0.1
v -0.65 0.2 0.5
v -0.65 0.2 0.4
v -0.65 0.2 0.1
v -0.65 0.2 -0.1
v -0.65 0.3 0.6
v -0.65 0.3 0.2
v -0.65 0.3 -0.2
v -0.65 0.3 -0.6
v -0.55 -0.5 0.7
v -0.55 -0.5 0.6
v -0.55 -0.5 -0.6
v -0.55 -0.5 -0.7
v -0.55 -0.4 -0.6
v -0.55 -0.4 -0.7
v -0.55 -0.4 -0.8
v -0.55 -0.2 -0.7
v -0.55 -0.2 -0.8
v -0.55 0.3 0.7
v -0.55 0.3 0.6
v -0.55 0.3 0.5
v -0.55 0.3 0.2
v -0.55 0.3 -0.2
v -0.55 0.3 -0.5
v -0.55 0.3 -0.6
v -0.55 0.3 -0.7
v -0.55 0.4 0.5
v -0.55 0.4 -0.5
v -0.45 0.3 0.6
v -0.45 0.3 0.5
v -0.45 0.3 -0.5
v -0.45 0.3 -0.6
v -0.45 0.4 0.6
v -0.45 0.4 0.5
v -0.45 0.4 -0.5
v -0.45 0.4 -0.6
v -0.45 0.5 0.5
v -0.45 0.5 -0.5
v -0.35 -0.4 0.8
v -0.35 -0.4 0.7
v -0.35 -0.2 0.8
v -0.35 -0.2 0.7
v -0.35 -0.2 0.1
v -0.35 -0.2 -0.1
v -0.35 -0.1 0.1
v -0.35 -0.1 -0.1
v 0.15 -0.5 0.7
v 0.15 -0.5 0.6
v 0.15 -0.5 0.2
v 0.15 -0.5 0.1
v 0.15 -0.5 -0.1
v 0.15 -0.5 -0.2
v 0.15 -0.5 -0.6
v 0.15 -0.5 -0.7
v 0.15 -0.2 0.4
v 0.15 -0.2 0.3
v 0.15 -0.2 -0.3
v 0.15 -0.2 -0.4
v 0.15 -0.1 0.4
v 0.15 -0.1 0.3
v 0.15 -0.1 -0.3
v 0.15 -0.1 -0.4
v 0.15 0.2 0.7
v 0.15 0.2 0.6
v 0.15 0.2 0.2
v 0.15 0.2 0.1
v 0.15 0.2 -0.1
v 0.15 0.2 -0.2
v 0.15 0.2 -0.6
v 0.15 0.2 -0.7
v 0.25 -0.1 -0.7
v 0.25 -0.1 -0.8
v 0.25 0.1 -0.7
v 0.25 0.1 -0.8
v 0.35 -0.2 0.1
v 0.35 -0.2 -0.1
v 0.35 -0.1 0.1
v 0.35 -0.1 -0.1
v 0.45 -0.5 -0.6
v 0.45 -0.5 -0.7
v 0.45 -0.4 -0.6
v 0.45 -0.4 -0.7
v -0.25 -0.4 -0.7
v -0.25 -0.4 -0.8
v -0.25 -0.2 0.1
v -0.25 -0.2 -0.1
v -0.25 -0.2 -0.7
v -0.25 -0.2 -0.8
v -0.25 -0.1 0.1
v -0.25 -0.1 -0.1
v -0.05 -0.5 0.7
v -0.05 -0.5 0.6
v -0.05 -0.5 0.1
v -0.05 -0.5 -0.1
v -0.05 -0.5 -0.6
v -0.05 -0.5 -0.7
v -0.05 -0.4 0.8
v -0.05 -0.4 0.7
v -0.05 -0.2 0.8
v -0.05 -0.2 0.7
v -0.05 -0.2 0.4
v -0.05 -0.2 0.3
v -0.05 -0.2 -0.3
v -0.05 -0.2 -0.4
v -0.05 -0.1 0.4
v -0.05 -0.1 0.3
v -0.05 -0.1 -0.3
v -0.05 -0.1 -0.4
v -0.05 0.2 0.7
v -0.05 0.2 0.6
v -0.05 0.2 0.1
v -0.05 0.2 -0.1
v -0.05 0.2 -0.6
v -0.05 0.2 -0.7
v 0.25 -0.5 0.7
v 0.25 -0.5 0.6
v 0.25 -0.5 -0.6
v 0.25 -0.5 -0.7
v 0.25 -0.4 0.7
v 0.25 -0.4 0.6
v 0.25 -0.4 -0.6
v 0.25 -0.4 -0.7
v 0.45 -0.2 0.1
v 0.45 -0.2 -0.1
v 0.45 -0.1 0.1
v 0.45 -0.1 -0.1
v 0.55 -0.1 -0.7
v 0.55 -0.1 -0.8
v 0.55 0.1 -0.7
v 0.55 0.1 -0.8
v 0.55 0.3 0.6
v 0.55 0.3 0.5
v 0.55 0.3 -0.5
v 0.55 0.3 -0.6
v 0.55 0.4 0.6
v 0.55 0.4 0.5
v 0.55 0.4 -0.5
v 0.55 0.4 -0.6
v 0.55 0.5 0.5
v 0.55 0.5 -0.5
v 0.65 -0.5 -0.6
v 0.65 -0.5 -0.7
v 0.65 -0.4 0.7
v 0.65 -0.4 0.6
v 0.65 -0.4 -0.6
v 0.65 -0.4 -0.7
v 0.65 -0.3 -0.6
v 0.65 -0.3 -0.7
v 0.65 -0.2 0.7
v 0.65 -0.2 0.6
v 0.65 0.3 0.7
v 0.65 0.3 0.6
v 0.65 0.3 0.5
v 0.65 0.3 -0.5
v 0.65 0.3 -0.6
v 0.65 0.3 -0.7
v 0.65 0.4 0.5
v 0.65 0.4 -0.5
v 0.75 -0.5 0.6
v 0.75 -0.5 0.1
v 0.75 -0.5 -0.1
v 0.75 -0.5 -0.6
v 0.75 -0.2 0.3
v 0.75 -0.2 0.2
v 0.75 -0.1 0.3
v 0.75 -0.1 0.2
v 0.75 -0.1 -0.1
v 0.75 -0.1 -0.4
v 0.75 0.1 -0.1
v 0.75 0.1 -0.4
v 0.75 0.2 0.1
v 0.75 0.2 -0.1
v 0.75 0.3 0.6
v 0.75 0.3 -0.6
v -0.35 -0.4 0.8
v -0.35 -0.2 0.8
v -0.05 -0.4 0.8
v -0.05 -0.2 0.8
v -0.55 -0.5 0.7
v -0.55 0.3 0.7
v -0.45 -0.2 0.7
v -0.45 0.1 0.7
v -0.35 -0.5 0.7
v -0.35 -0.4 0.7
v -0.35 -0.2 0.7
v -0.15 -0.5 0.7
v -0.15 -0.4 0.7
v -0.15 -0.2 0.7
v -0.15 0.1 0.7
v -0.15 0.3 0.7
v -0.05 -0.5 0.7
v -0.05 -0.4 0.7
v -0.05 -0.2 0.7
v -0.05 0.2 0.7
v 0.15 -0.5 0.7
v 0.15 0.2 0.7
v 0.25 -0.5 0.7
v 0.25 -0.4 0.7
v 0.25 0.3 0.7
v 0.35 -0.4 0.7
v 0.35 -0.2 0.7
v 0.65 -0.4 0.7
v 0.65 -0.2 0.7
v 0.65 0.3 0.7
v -0.65 -0.5 0.6
v -0.65 0.3 0.6
v -0.55 -0.5 0.6
v -0.55 0.3 0.6
v -0.45 0.3 0.6
v -0.45 0.4 0.6
v -0.15 0.3 0.6
v 0.25 -0.5 0.6
v 0.25 -0.4 0.6
v 0.25 0.3 0.6
v 0.35 -0.4 0.6
v 0.55 0.3 0.6
v 0.55 0.4 0.6
v 0.65 -0.5 0.6
v 0.65 -0.4 0.6
v 0.65 -0.2 0.6
v 0.65 0.3 0.6
v 0.75 -0.5 0.6
v 0.75 0.3 0.6
v -0.55 0.3 0.5
v -0.55 0.4 0.5
v -0.45 0.3 0.5
v -0.45 0.4 0.5
v -0.45 0.5 0.5
v 0.55 0.3 0.5
v 0.55 0.4 0.5
v 0.55 0.5 0.5
v 0.65 0.3 0.5
v 0.65 0.4 0.5
v -0.75 -0.1 0.4
v -0.75 0.1 0.4
v -0.65 -0.1 0.4
v -0.65 0.1 0.4
v -0.05 -0.2 0.4
v -0.05 -0.1 0.4
v 0.15 -0.2 0.4
v 0.15 -0.1 0.4
v -0.65 -0.5 -0.1
v -0.65 0.2 -0.1
v -0.55 -0.5 -0.1
v -0.55 0.2 -0.1
v -0.35 -0.2 -0.1
v -0.35 -0.1 -0.1
v -0.25 -0.2 -0.1
v -0.25 -0.1 -0.1
v -0.05 -0.5 -0.1
v -0.05 0.2 -0.1
v 0.15 -0.5 -0.1
v 0.15 0.2 -0.1
v 0.25 -0.5 -0.1
v 0.25 0.2 -0.1
v 0.35 -0.2 -0.1
v 0.35 -0.1 -0.1
v 0.45 -0.2 -0.1
v 0.45 -0.1 -0.1
v 0.65 -0.5 -0.1
v 0.65 -0.1 -0.1
v 0.65 0.1 -0.1
v 0.65 0.2 -0.1
v 0.75 -0.5 -0.1
v 0.75 -0.1 -0.1
v 0.75 0.1 -0.1
v 0.75 0.2 -0.1
v -0.05 -0.2 -0.3
v -0.05 -0.1 -0.3
v 0.15 -0.2 -0.3
v 0.15 -0.1 -0.3
v -0.05 -0.2 0.3
v -0.05 -0.1 0.3
v 0.15 -0.2 0.3
v 0.15 -0.1 0.3
v -0.75 -0.1 0.1
v -0.75 0.1 0.1
v -0.65 -0.5 0.1
v -0.65 -0.2 0.1
v -0.65 -0.1 0.1
v -0.65 0.1 0.1
v -0.65 0.2 0.1
v -0.55 -0.5 0.1
v -0.55 -0.2 0.1
v -0.55 -0.1 0.1
v -0.55 0.2 0.1
v -0.35 -0.2 0.1
v -0.35 -0.1 0.1
v -0.25 -0.2 0.1
v -0.25 -0.1 0.1
v -0.05 -0.5 0.1
v -0.05 0.2 0.1
v 0.15 -0.5 0.1
v 0.15 0.2 0.1
v 0.25 -0.5 0.1
v 0.25 0.2 0.1
v 0.35 -0.2 0.1
v 0.35 -0.1 0.1
v 0.45 -0.2 0.1
v 0.45 -0.1 0.1
v 0.65 -0.5 0.1
v 0.65 0.2 0.1
v 0.75 -0.5 0.1
v 0.75 0.2 0.1
v -0.05 -0.2 -0.4
v -0.05 -0.1 -0.4
v 0.15 -0.2 -0.4
v 0.15 -0.1 -0.4
v -0.55 0.3 -0.5
v -0.55 0.4 -0.5
v -0.45 0.3 -0.5
v -0.45 0.4 -0.5
v -0.45 0.5 -0.5
v 0.55 0.3 -0.5
v 0.55 0.4 -0.5
v 0.55 0.5 -0.5
v 0.65 0.3 -0.5
v 0.65 0.4 -0.5
v -0.65 -0.5 -0.6
v -0.65 0.3 -0.6
v -0.55 -0.5 -0.6
v -0.55 -0.4 -0.6
v -0.55 0.3 -0.6
v -0.45 0.3 -0.6
v -0.45 0.4 -0.6
v -0.15 0.3 -0.6
v 0.25 -0.5 -0.6
v 0.25 -0.4 -0.6
v 0.25 0.3 -0.6
v 0.45 -0.5 -0.6
v 0.45 -0.4 -0.6
v 0.55 0.3 -0.6
v 0.55 0.4 -0.6
v 0.65 -0.5 -0.6
v 0.65 -0.4 -0.6
v 0.65 -0.3 -0.6
v 0.65 0.3 -0.6
v 0.75 -0.5 -0.6
v 0.75 0.3 -0.6
v -0.55 -0.5 -0.7
v -0.55 -0.4 -0.7
v -0.55 -0.2 -0.7
v -0.55 0.3 -0.7
v -0.25 -0.4 -0.7
v -0.25 -0.2 -0.7
v -0.15 -0.5 -0.7
v -0.15 -0.4 -0.7
v -0.15 0.3 -0.7
v -0.05 -0.5 -0.7
v -0.05 0.2 -0.7
v 0.15 -0.5 -0.7
v 0.15 0.2 -0.7
v 0.25 -0.5 -0.7
v 0.25 -0.4 -0.7
v 0.25 -0.2 -0.7
v 0.25 -0.1 -0.7
v 0.25 0.1 -0.7
v 0.25 0.3 -0.7
v 0.45 -0.5 -0.7
v 0.45 -0.4 -0.7
v 0.45 -0.2 -0.7
v 0.55 -0.4 -0.7
v 0.55 -0.3 -0.7
v 0.55 -0.1 -0.7
v 0.55 0.1 -0.7
v 0.65 -0.5 -0.7
v 0.65 -0.4 -0.7
v 0.65 -0.3 -0.7
v 0.65 0.3 -0.7
v -0.55 -0.4 -0.8
v -0.55 -0.2 -0.8
v -0.25 -0.4 -0.8
v -0.25 -0.2 -0.8
v 0.25 -0.1 -0.8
v 0.25 0.1 -0.8
v 0.55 -0.1 -0.8
v 0.55 0.1 -0.8
v -0.55 -0.5 0.7
v -0.35 -0.5 0.7
v -0.15 -0.5 0.7
v -0.05 -0.5 0.7
v 0.15 -0.5 0.7
v 0.25 -0.5 0.7
v -0.65 -0.5 0.6
v -0.55 -0.5 0.6
v -0.35 -0.5 0.6
v -0.15 -0.5 0.6
v -0.05 -0.5 0.6
v 0.15 -0.5 0.6
v 0.25 -0.5 0.6
v 0.65 -0.5 0.6
v 0.75 -0.5 0.6
v -0.65 -0.5 0.2
v -0.55 -0.5 0.2
v 0.15 -0.5 0.2
v 0.25 -0.5 0.2
v -0.65 -0.5 0.1
v -0.55 -0.5 0.1
v -0.05 -0.5 0.1
v 0.15 -0.5 0.1
v 0.25 -0.5 0.1
v 0.65 -0.5 0.1
v 0.75 -0.5 0.1
v -0.65 -0.5 -0.1
v -0.55 -0.5 -0.1
v -0.05 -0.5 -0.1
v 0.15 -0.5 -0.1
v 0.25 -0.5 -0.1
v 0.65 -0.5 -0.1
v 0.75 -0.5 -0.1
v -0.65 -0.5 -0.2
v -0.55 -0.5 -0.2
v 0.15 -0.5 -0.2
v 0.25 -0.5 -0.2
v -0.65 -0.5 -0.6
v -0.55 -0.5 -0.6
v -0.15 -0.5 -0.6
v -0.05 -0.5 -0.6
v 0.15 -0.5 -0.6
v 0.25 -0.5 -0.6
v 0.45 -0.5 -0.6
v 0.65 -0.5 -0.6
v 0.75 -0.5 -0.6
v -0.55 -0.5 -0.7
v -0.15 -0.5 -0.7
v -0.05 -0.5 -0.7
v 0.15 -0.5 -0.7
v 0.25 -0.5 -0.7
v 0.45 -0.5 -0.7
v 0.65 -0.5 -0.7
v -0.35 -0.4 0.8
v -0.05 -0.4 0.8
v -0.35 -0.4 0.7
v -0.15 -0.4 0.7
v -0.05 -0.4 0.7
v 0.25 -0.4 0.7
v 0.35 -0.4 0.7
v 0.65 -0.4 0.7
v 0.25 -0.4 0.6
v 0.35 -0.4 0.6
v 0.65 -0.4 0.6
v 0.25 -0.4 -0.6
v 0.45 -0.4 -0.6
v -0.55 -0.4 -0.7
v -0.25 -0.4 -0.7
v 0.25 -0.4 -0.7
v 0.45 -0.4 -0.7
v -0.55 -0.4 -0.8
v -0.25 -0.4 -0.8
v -0.05 -0.2 0.4
v 0.15 -0.2 0.4
v -0.05 -0.2 0.3
v 0.15 -0.2 0.3
v -0.35 -0.2 0.1
v -0.25 -0.2 0.1
v 0.35 -0.2 0.1
v 0.45 -0.2 0.1
v -0.35 -0.2 -0.1
v -0.25 -0.2 -0.1
v 0.35 -0.2 -0.1
v 0.45 -0.2 -0.1
v -0.05 -0.2 -0.3
v 0.15 -0.2 -0.3
v -0.05 -0.2 -0.4
v 0.15 -0.2 -0.4
v -0.75 -0.1 0.4
v -0.65 -0.1 0.4
v -0.75 -0.1 0.1
v -0.65 -0.1 0.1
v 0.25 -0.1 -0.7
v 0.55 -0.1 -0.7
v 0.25 -0.1 -0.8
v 0.55 -0.1 -0.8
v -0.05 0.2 0.7
v 0.15 0.2 0.7
v -0.05 0.2 0.6
v 0.15 0.2 0.6
v 0.15 0.2 0.2
v -0.65 0.2 0.1
v -0.55 0.2 0.1
v -0.05 0.2 0.1
v 0.15 0.2 0.1
v 0.25 0.2 0.1
v 0.65 0.2 0.1
v 0.75 0.2 0.1
v -0.65 0.2 -0.1
v -0.55 0.2 -0.1
v -0.05 0.2 -0.1
v 0.15 0.2 -0.1
v 0.25 0.2 -0.1
v 0.65 0.2 -0.1
v 0.75 0.2 -0.1
v 0.15 0.2 -0.2
v -0.05 0.2 -0.6
v 0.15 0.2 -0.6
v -0.05 0.2 -0.7
v 0.15 0.2 -0.7
v -0.35 -0.2 0.8
v -0.05 -0.2 0.8
v -0.35 -0.2 0.7
v -0.15 -0.2 0.7
v -0.05 -0.2 0.7
v -0.55 -0.2 -0.7
v -0.25 -0.2 -0.7
v -0.55 -0.2 -0.8
v -0.25 -0.2 -0.8
v -0.05 -0.1 0.4
v 0.15 -0.1 0.4
v -0.05 -0.1 0.3
v 0.15 -0.1 0.3
v -0.35 -0.1 0.1
v -0.25 -0.1 0.1
v 0.35 -0.1 0.1
v 0.45 -0.1 0.1
v -0.35 -0.1 -0.1
v -0.25 -0.1 -0.1
v 0.35 -0.1 -0.1
v 0.45 -0.1 -0.1
v -0.05 -0.1 -0.3
v 0.15 -0.1 -0.3
v -0.05 -0.1 -0.4
v 0.15 -0.1 -0.4
v -0.75 0.1 0.4
v -0.65 0.1 0.4
v -0.65 0.1 0.2
v -0.75 0.1 0.1
v -0.65 0.1 0.1
v 0.25 0.1 -0.7
v 0.55 0.1 -0.7
v 0.25 0.1 -0.8
v 0.55 0.1 -0.8
v -0.55 0.3 0.7
v -0.15 0.3 0.7
v 0.25 0.3 0.7
v 0.65 0.3 0.7
v -0.65 0.3 0.6
v -0.55 0.3 0.6
v -0.45 0.3 0.6
v -0.15 0.3 0.6
v 0.25 0.3 0.6
v 0.55 0.3 0.6
v 0.65 0.3 0.6
v 0.75 0.3 0.6
v -0.55 0.3 0.5
v -0.45 0.3 0.5
v 0.55 0.3 0.5
v 0.65 0.3 0.5
v -0.65 0.3 0.2
v -0.55 0.3 0.2
v -0.65 0.3 -0.2
v -0.55 0.3 -0.2
v -0.55 0.3 -0.5
v -0.45 0.3 -0.5
v 0.55 0.3 -0.5
v 0.65 0.3 -0.5
v -0.65 0.3 -0.6
v -0.55 0.3 -0.6
v -0.45 0.3 -0.6
v -0.15 0.3 -0.6
v 0.25 0.3 -0.6
v 0.55 0.3 -0.6
v 0.65 0.3 -0.6
v 0.75 0.3 -0.6
v -0.55 0.3 -0.7
v -0.15 0.3 -0.7
v 0.25 0.3 -0.7
v 0.65 0.3 -0.7
v -0.45 0.4 0.6
v 0.55 0.4 0.6
v -0.55 0.4 0.5
v -0.45 0.4 0.5
v 0.55 0.4 0.5
v 0.65 0.4 0.5
v -0.55 0.4 -0.5
v -0.45 0.4 -0.5
v 0.55 0.4 -0.5
v 0.65 0.4 -0.5
v -0.45 0.4 -0.6
v 0.55 0.4 -0.6
v -0.45 0.5 0.5
v 0.55 0.5 0.5
v -0.45 0.5 -0.5
v 0.55 0.5 -0.5

# faces
f 3/3/1 2/3/1 1/3/1
f 4/3/1 2/3/1 3/3/1
f 11/5/1 6/5/1 5/5/1
f 12/1/1 7/1/1 6/1/1
f 12/5/1 6/5/1 11/5/1
f 13/5/1 11/5/1 5/5/1
f 14/4/1 12/4/1 11/4/1
f 14/5/1 11/5/1 13/5/1
f 15/1/1 7/1/1 12/1/1
f 15/4/1 12/4/1 14/4/1
f 16/1/1 7/1/1 15/1/1
f 17/4/1 14/4/1 13/4/1
f 17/4/1 15/4/1 14/4/1
f 17/4/1 16/4/1 15/4/1
f 18/4/1 16/4/1 17/4/1
f 19/4/1 17/4/1 13/4/1
f 22/5/1 13/5/1 5/5/1
f 22/4/1 19/4/1 13/4/1
f 23/5/1 20/5/1 19/5/1
f 23/4/1 19/4/1 22/4/1
f 24/1/1 21/1/1 20/1/1
f 25/1/1 9/1/1 8/1/1
f 26/5/1 23/5/1 22/5/1
f 26/5/1 22/5/1 5/5/1
f 27/1/1 24/1/1 20/1/1
f 27/5/1 23/5/1 26/5/1
f 27/1/1 25/1/1 24/1/1
f 27/5/1 20/5/1 23/5/1
f 28/5/1 10/5/1 9/5/1
f 28/1/1 25/1/1 27/1/1
f 28/1/1 9/1/1 25/1/1
f 29/5/1 10/5/1 28/5/1
f 34/4/1 33/4/1 32/4/1
f 35/4/1 33/4/1 34/4/1
f 37/5/1 35/5/1 34/5/1
f 37/3/1 36/3/1 35/3/1
f 38/3/1 36/3/1 37/3/1
f 39/5/1 31/5/1 30/5/1
f 40/5/1 31/5/1 39/5/1
f 45/5/1 37/5/1 34/5/1
f 46/5/1 37/5/1 45/5/1
f 47/1/1 44/1/1 43/1/1
f 47/1/1 42/1/1 41/1/1
f 47/1/1 43/1/1 42/1/1
f 48/1/1 44/1/1 47/1/1
f 53/1/1 50/1/1 49/1/1
f 54/1/1 50/1/1 53/1/1
f 55/1/1 52/1/1 51/1/1
f 56/1/1 52/1/1 55/1/1
f 57/1/1 55/1/1 54/1/1
f 58/1/1 55/1/1 57/1/1
f 61/3/1 60/3/1 59/3/1
f 62/3/1 60/3/1 61/3/1
f 65/2/1 64/2/1 63/2/1
f 66/2/1 64/2/1 65/2/1
f 75/4/1 69/4/1 68/4/1
f 76/4/1 69/4/1 75/4/1
f 77/4/1 73/4/1 72/4/1
f 78/4/1 73/4/1 77/4/1
f 79/4/1 75/4/1 68/4/1
f 80/4/1 69/4/1 76/4/1
f 81/4/1 77/4/1 72/4/1
f 82/4/1 73/4/1 78/4/1
f 83/1/1 68/1/1 67/1/1
f 84/4/1 79/4/1 68/4/1
f 84/1/1 68/1/1 83/1/1
f 84/4/1 80/4/1 79/4/1
f 85/1/1 70/1/1 69/1/1
f 85/4/1 80/4/1 84/4/1
f 85/4/1 69/4/1 80/4/1
f 86/1/1 70/1/1 85/1/1
f 87/1/1 72/1/1 71/1/1
f 88/4/1 82/4/1 81/4/1
f 88/1/1 72/1/1 87/1/1
f 88/4/1 81/4/1 72/4/1
f 89/1/1 74/1/1 73/1/1
f 89/4/1 82/4/1 88/4/1
f 89/4/1 73/4/1 82/4/1
f 90/1/1 74/1/1 89/1/1
f 93/3/1 92/3/1 91/3/1
f 94/3/1 92/3/1 93/3/1
f 97/2/1 96/2/1 95/2/1
f 98/2/1 96/2/1 97/2/1
f 101/5/1 100/5/1 99/5/1
f 102/5/1 100/5/1 101/5/1
f 103/3/2 104/3/2 107/3/2
f 107/3/2 104/3/2 108/3/2
f 105/2/2 106/2/2 109/2/2
f 109/2/2 106/2/2 110/2/2
f 111/1/2 112/1/2 118/1/2
f 117/3/2 118/3/2 119/3/2
f 118/1/2 112/1/2 120/1/2
f 119/3/2 118/3/2 120/3/2
f 112/4/2 113/4/2 121/4/2
f 121/4/2 113/4/2 122/4/2
f 114/4/2 115/4/2 123/4/2
f 123/4/2 115/4/2 124/4/2
f 112/4/2 121/4/2 125/4/2
f 122/4/2 113/4/2 126/4/2
f 114/4/2 123/4/2 127/4/2
f 124/4/2 115/4/2 128/4/2
f 120/1/2 112/1/2 129/1/2
f 112/4/2 125/4/2 130/4/2
f 129/1/2 112/1/2 130/1/2
f 125/4/2 126/4/2 130/4/2
f 126/4/2 113/4/2 131/4/2
f 130/4/2 126/4/2 131/4/2
f 127/4/2 128/4/2 132/4/2
f 114/4/2 127/4/2 132/4/2
f 115/1/2 116/1/2 133/1/2
f 132/4/2 128/4/2 133/4/2
f 128/4/2 115/4/2 133/4/2
f 133/1/2 116/1/2 134/1/2
f 135/1/2 136/1/2 139/1/2
f 139/1/2 136/1/2 140/1/2
f 137/1/2 138/1/2 141/1/2
f 141/1/2 138/1/2 142/1/2
f 143/2/2 144/2/2 145/2/2
f 145/2/2 144/2/2 146/2/2
f 147/3/2 148/3/2 149/3/2
f 149/3/2 148/3/2 150/3/2
f 151/1/2 152/1/2 155/1/2
f 155/1/2 152/1/2 156/1/2
f 153/1/2 154/1/2 157/1/2
f 157/1/2 154/1/2 158/1/2
f 156/1/2 157/1/2 159/1/2
f 159/1/2 157/1/2 160/1/2
f 161/5/2 162/5/2 165/5/2
f 165/5/2 162/5/2 166/5/2
f 165/4/2 166/4/2 167/4/2
f 167/4/2 166/4/2 168/4/2
f 163/4/2 164/4/2 169/4/2
f 169/4/2 164/4/2 170/4/2
f 169/5/2 170/5/2 171/5/2
f 171/5/2 170/5/2 172/5/2
f 167/5/2 168/5/2 175/5/2
f 175/5/2 168/5/2 176/5/2
f 173/1/2 174/1/2 177/1/2
f 177/1/2 174/1/2 178/1/2
f 179/5/2 180/5/2 183/5/2
f 183/5/2 180/5/2 184/5/2
f 179/5/2 183/5/2 185/5/2
f 183/4/2 184/4/2 185/4/2
f 184/5/2 180/5/2 186/5/2
f 185/4/2 184/4/2 186/4/2
f 181/5/2 182/5/2 187/5/2
f 187/5/2 182/5/2 188/5/2
f 187/4/2 188/4/2 189/4/2
f 188/5/2 182/5/2 190/5/2
f 189/4/2 188/4/2 190/4/2
f 186/5/2 180/5/2 191/5/2
f 185/5/2 186/5/2 191/5/2
f 189/5/2 190/5/2 192/5/2
f 179/5/2 185/5/2 193/5/2
f 191/5/2 192/5/2 193/5/2
f 185/5/2 191/5/2 193/5/2
f 190/5/2 182/5/2 194/5/2
f 193/5/2 192/5/2 194/5/2
f 192/5/2 190/5/2 194/5/2
f 197/3/3 196/3/3 195/3/3
f 198/3/3 196/3/3 197/3/3
f 201/5/3 200/5/3 199/5/3
f 202/5/3 200/5/3 201/5/3
f 203/5/3 201/5/3 199/5/3
f 204/5/3 201/5/3 203/5/3
f 205/4/3 202/4/3 201/4/3
f 205/5/3 201/5/3 204/5/3
f 206/4/3 204/4/3 203/4/3
f 207/4/3 204/4/3 206/4/3
f 208/4/3 202/4/3 205/4/3
f 209/5/3 200/5/3 202/5/3
f 209/4/3 202/4/3 208/4/3
f 210/5/3 200/5/3 209/5/3
f 211/1/3 207/1/3 206/1/3
f 212/1/3 207/1/3 211/1/3
f 213/1/3 209/1/3 208/1/3
f 213/1/3 210/1/3 209/1/3
f 214/1/3 210/1/3 213/1/3
f 216/1/3 210/1/3 214/1/3
f 217/1/3 216/1/3 215/1/3
f 218/1/3 216/1/3 217/1/3
f 219/1/3 210/1/3 216/1/3
f 219/1/3 216/1/3 218/1/3
f 220/5/3 219/5/3 218/5/3
f 221/5/3 219/5/3 220/5/3
f 222/4/3 221/4/3 220/4/3
f 223/5/3 219/5/3 221/5/3
f 223/4/3 221/4/3 222/4/3
f 224/5/3 219/5/3 223/5/3
f 227/5/3 226/5/3 225/5/3
f 228/5/3 226/5/3 227/5/3
f 231/1/3 230/1/3 229/1/3
f 234/1/3 230/1/3 231/1/3
f 235/4/3 233/4/3 232/4/3
f 236/1/3 230/1/3 234/1/3
f 237/1/3 230/1/3 236/1/3
f 238/4/3 235/4/3 232/4/3
f 239/4/3 235/4/3 238/4/3
f 242/5/3 239/5/3 238/5/3
f 242/5/3 241/5/3 240/5/3
f 242/5/3 240/5/3 239/5/3
f 243/5/3 241/5/3 242/5/3
f 246/1/3 245/1/3 244/1/3
f 247/1/3 245/1/3 246/1/3
f 250/1/3 248/1/3 247/1/3
f 251/1/3 248/1/3 250/1/3
f 252/1/3 250/1/3 249/1/3
f 253/1/3 250/1/3 252/1/3
f 256/3/3 255/3/3 254/3/3
f 257/3/3 255/3/3 256/3/3
f 260/2/3 259/2/3 258/2/3
f 261/2/3 259/2/3 260/2/3
f 264/1/3 263/1/3 262/1/3
f 265/1/3 263/1/3 264/1/3
f 266/4/3 265/4/3 264/4/3
f 267/4/3 265/4/3 266/4/3
f 268/4/3 266/4/3 264/4/3
f 269/4/3 265/4/3 267/4/3
f 270/4/3 268/4/3 264/4/3
f 270/4/3 269/4/3 268/4/3
f 271/4/3 265/4/3 269/4/3
f 271/4/3 269/4/3 270/4/3
f 274/1/3 273/1/3 272/1/3
f 275/1/3 273/1/3 274/1/3
f 276/4/3 275/4/3 274/4/3
f 277/4/3 275/4/3 276/4/3
f 278/4/3 276/4/3 274/4/3
f 279/4/3 275/4/3 277/4/3
f 280/4/3 278/4/3 274/4/3
f 280/4/3 279/4/3 278/4/3
f 281/4/3 275/4/3 279/4/3
f 281/4/3 279/4/3 280/4/3
f 282/4/3 275/4/3 281/4/3
f 283/4/3 275/4/3 282/4/3
f 284/5/3 281/5/3 280/5/3
f 285/4/3 282/4/3 281/4/3
f 285/5/3 281/5/3 284/5/3
f 286/5/3 283/5/3 282/5/3
f 286/4/3 282/4/3 285/4/3
f 287/5/3 283/5/3 286/5/3
f 290/2/3 289/2/3 288/2/3
f 291/2/3 289/2/3 290/2/3
f 292/2/4 293/2/4 294/2/4
f 294/2/4 293/2/4 295/2/4
f 296/3/4 297/3/4 300/3/4
f 300/3/4 297/3/4 301/3/4
f 298/1/4 299/1/4 303/1/4
f 299/4/4 300/4/4 304/4/4
f 303/1/4 299/1/4 304/1/4
f 301/1/4 302/1/4 305/1/4
f 304/4/4 300/4/4 305/4/4
f 300/1/4 301/1/4 305/1/4
f 305/1/4 302/1/4 306/1/4
f 303/4/4 304/4/4 307/4/4
f 304/4/4 305/4/4 307/4/4
f 305/4/4 306/4/4 307/4/4
f 307/4/4 306/4/4 308/4/4
f 303/4/4 307/4/4 309/4/4
f 308/4/4 306/4/4 310/4/4
f 303/4/4 309/4/4 311/4/4
f 309/4/4 310/4/4 311/4/4
f 310/4/4 306/4/4 312/4/4
f 311/4/4 310/4/4 312/4/4
f 313/1/4 314/1/4 315/1/4
f 315/1/4 314/1/4 316/1/4
f 315/4/4 316/4/4 317/4/4
f 317/4/4 316/4/4 318/4/4
f 315/4/4 317/4/4 319/4/4
f 318/4/4 316/4/4 320/4/4
f 315/4/4 319/4/4 321/4/4
f 319/4/4 320/4/4 321/4/4
f 320/4/4 316/4/4 322/4/4
f 321/4/4 320/4/4 322/4/4
f 321/5/4 322/5/4 323/5/4
f 323/5/4 322/5/4 324/5/4
f 325/2/4 326/2/4 327/2/4
f 327/2/4 326/2/4 328/2/4
f 329/1/4 330/1/4 331/1/4
f 331/1/4 330/1/4 332/1/4
f 332/1/4 333/1/4 335/1/4
f 335/1/4 333/1/4 336/1/4
f 334/1/4 335/1/4 337/1/4
f 337/1/4 335/1/4 338/1/4
f 339/5/4 340/5/4 341/5/4
f 341/5/4 340/5/4 342/5/4
f 342/5/4 340/5/4 343/5/4
f 344/1/4 345/1/4 346/1/4
f 346/1/4 345/1/4 349/1/4
f 347/4/4 348/4/4 350/4/4
f 350/4/4 348/4/4 351/4/4
f 349/1/4 345/1/4 352/1/4
f 352/1/4 345/1/4 353/1/4
f 354/5/4 355/5/4 358/5/4
f 356/5/4 357/5/4 358/5/4
f 355/5/4 356/5/4 358/5/4
f 358/5/4 357/5/4 359/5/4
f 360/4/4 361/4/4 364/4/4
f 362/5/4 363/5/4 365/5/4
f 360/4/4 364/4/4 366/4/4
f 364/5/4 365/5/4 367/5/4
f 366/4/4 364/4/4 367/4/4
f 365/5/4 363/5/4 368/5/4
f 367/5/4 365/5/4 368/5/4
f 366/1/4 367/1/4 369/1/4
f 367/1/4 368/1/4 369/1/4
f 369/1/4 368/1/4 370/1/4
f 370/1/4 368/1/4 372/1/4
f 371/1/4 372/1/4 373/1/4
f 373/1/4 372/1/4 374/1/4
f 374/1/4 372/1/4 375/1/4
f 375/1/4 372/1/4 376/1/4
f 376/1/4 372/1/4 377/1/4
f 372/1/4 368/1/4 378/1/4
f 377/1/4 372/1/4 378/1/4
f 374/4/4 375/4/4 380/4/4
f 375/5/4 376/5/4 381/5/4
f 380/4/4 375/4/4 381/4/4
f 379/5/4 380/5/4 382/5/4
f 380/5/4 381/5/4 382/5/4
f 382/5/4 381/5/4 383/5/4
f 381/5/4 376/5/4 384/5/4
f 383/5/4 381/5/4 384/5/4
f 377/5/4 378/5/4 385/5/4
f 379/5/4 382/5/4 386/5/4
f 382/4/4 383/4/4 387/4/4
f 386/5/4 382/5/4 387/5/4
f 383/5/4 384/5/4 388/5/4
f 387/4/4 383/4/4 388/4/4
f 384/5/4 385/5/4 388/5/4
f 385/5/4 378/5/4 389/5/4
f 388/5/4 385/5/4 389/5/4
f 390/3/4 391/3/4 392/3/4
f 392/3/4 391/3/4 393/3/4
f 394/3/4 395/3/4 396/3/4
f 396/3/4 395/3/4 397/3/4
f 405/5/5 399/5/5 398/5/5
f 406/4/5 400/4/5 399/4/5
f 406/5/5 399/5/5 405/5/5
f 407/1/5 401/1/5 400/1/5
f 407/4/5 400/4/5 406/4/5
f 408/1/5 401/1/5 407/1/5
f 409/1/5 403/1/5 402/1/5
f 410/1/5 403/1/5 409/1/5
f 413/5/5 405/5/5 404/5/5
f 414/4/5 408/4/5 407/4/5
f 414/5/5 405/5/5 413/5/5
f 414/4/5 406/4/5 405/4/5
f 414/4/5 407/4/5 406/4/5
f 415/4/5 411/4/5 410/4/5
f 415/4/5 410/4/5 409/4/5
f 416/4/5 411/4/5 415/4/5
f 417/1/5 414/1/5 413/1/5
f 418/4/5 408/4/5 414/4/5
f 418/1/5 414/1/5 417/1/5
f 419/4/5 408/4/5 418/4/5
f 420/1/5 416/1/5 415/1/5
f 421/4/5 411/4/5 416/4/5
f 421/1/5 416/1/5 420/1/5
f 422/5/5 412/5/5 411/5/5
f 422/4/5 411/4/5 421/4/5
f 423/5/5 412/5/5 422/5/5
f 431/1/5 425/1/5 424/1/5
f 432/4/5 426/4/5 425/4/5
f 432/1/5 425/1/5 431/1/5
f 433/1/5 428/1/5 427/1/5
f 434/4/5 429/4/5 428/4/5
f 434/1/5 428/1/5 433/1/5
f 435/5/5 432/5/5 431/5/5
f 436/4/5 426/4/5 432/4/5
f 436/5/5 432/5/5 435/5/5
f 437/4/5 426/4/5 436/4/5
f 438/4/5 426/4/5 437/4/5
f 439/4/5 434/4/5 433/4/5
f 440/4/5 429/4/5 434/4/5
f 440/4/5 434/4/5 439/4/5
f 441/4/5 429/4/5 440/4/5
f 442/5/5 430/5/5 429/5/5
f 442/4/5 429/4/5 441/4/5
f 443/5/5 430/5/5 442/5/5
f 444/4/5 437/4/5 436/4/5
f 445/1/5 438/1/5 437/1/5
f 445/4/5 437/4/5 444/4/5
f 446/1/5 438/1/5 445/1/5
f 447/1/5 440/1/5 439/1/5
f 448/1/5 440/1/5 447/1/5
f 449/5/5 442/5/5 441/5/5
f 450/5/5 442/5/5 449/5/5
f 453/3/5 452/3/5 451/3/5
f 454/3/5 452/3/5 453/3/5
f 455/3/5 452/3/5 454/3/5
f 459/5/5 457/5/5 456/5/5
f 460/4/5 458/4/5 457/4/5
f 460/5/5 457/5/5 459/5/5
f 461/4/5 458/4/5 460/4/5
f 466/4/5 463/4/5 462/4/5
f 467/4/5 463/4/5 466/4/5
f 468/3/5 465/3/5 464/3/5
f 469/3/5 465/3/5 468/3/5
f 472/2/5 471/2/5 470/2/5
f 473/2/5 471/2/5 472/2/5
f 478/2/5 475/2/5 474/2/5
f 479/2/5 475/2/5 478/2/5
f 480/2/5 477/2/5 476/2/5
f 481/2/5 477/2/5 480/2/5
f 484/2/5 483/2/5 482/2/5
f 485/2/5 483/2/5 484/2/5
f 488/3/5 487/3/5 486/3/5
f 489/3/5 487/3/5 488/3/5
f 492/3/5 491/3/5 490/3/5
f 493/3/5 491/3/5 492/3/5
f 496/1/5 495/1/5 494/1/5
f 497/1/5 495/1/5 496/1/5
f 498/4/5 497/4/5 496/4/5
f 501/4/5 498/4/5 496/4/5
f 502/4/5 498/4/5 501/4/5
f 506/1/5 500/1/5 499/1/5
f 507/4/5 502/4/5 501/4/5
f 507/1/5 500/1/5 506/1/5
f 507/4/5 501/4/5 500/4/5
f 508/4/5 502/4/5 507/4/5
f 509/1/5 503/1/5 502/1/5
f 509/4/5 502/4/5 508/4/5
f 510/4/5 504/4/5 503/4/5
f 510/1/5 503/1/5 509/1/5
f 511/5/5 505/5/5 504/5/5
f 511/4/5 504/4/5 510/4/5
f 512/5/5 505/5/5 511/5/5
f 513/4/5 509/4/5 508/4/5
f 514/4/5 513/4/5 508/4/5
f 515/4/5 513/4/5 514/4/5
f 516/1/5 515/1/5 514/1/5
f 517/1/5 515/1/5 516/1/5
f 518/3/6 519/3/6 520/3/6
f 520/3/6 519/3/6 521/3/6
f 521/3/6 519/3/6 522/3/6
f 523/3/6 524/3/6 525/3/6
f 525/3/6 524/3/6 526/3/6
f 527/2/6 528/2/6 529/2/6
f 529/2/6 528/2/6 530/2/6
f 531/2/6 532/2/6 535/2/6
f 535/2/6 532/2/6 536/2/6
f 533/2/6 534/2/6 537/2/6
f 537/2/6 534/2/6 538/2/6
f 539/2/6 540/2/6 541/2/6
f 541/2/6 540/2/6 542/2/6
f 543/3/6 544/3/6 545/3/6
f 543/3/6 545/3/6 546/3/6
f 546/3/6 545/3/6 547/3/6
f 548/3/6 549/3/6 550/3/6
f 550/3/6 549/3/6 551/3/6
f 552/5/6 553/5/6 557/5/6
f 557/5/6 553/5/6 558/5/6
f 553/1/6 554/1/6 559/1/6
f 558/5/6 553/5/6 559/5/6
f 554/5/6 555/5/6 560/5/6
f 559/1/6 554/1/6 560/1/6
f 560/5/6 555/5/6 561/5/6
f 561/5/6 555/5/6 562/5/6
f 557/5/6 558/5/6 564/5/6
f 556/5/6 557/5/6 564/5/6
f 564/5/6 558/5/6 565/5/6
f 562/5/6 563/5/6 566/5/6
f 561/5/6 562/5/6 566/5/6
f 566/5/6 563/5/6 567/5/6
f 556/5/6 564/5/6 568/5/6
f 568/5/6 564/5/6 569/5/6
f 568/1/6 569/1/6 570/1/6
f 570/1/6 569/1/6 571/1/6
f 570/5/6 571/5/6 572/5/6
f 567/5/6 563/5/6 575/5/6
f 572/5/6 573/5/6 576/5/6
f 570/5/6 572/5/6 576/5/6
f 576/5/6 573/5/6 577/5/6
f 577/5/6 573/5/6 578/5/6
f 574/5/6 575/5/6 581/5/6
f 575/5/6 563/5/6 582/5/6
f 581/5/6 575/5/6 582/5/6
f 582/5/6 563/5/6 583/5/6
f 577/5/6 578/5/6 584/5/6
f 578/5/6 579/5/6 584/5/6
f 579/1/6 580/1/6 585/1/6
f 584/5/6 579/5/6 585/5/6
f 580/5/6 581/5/6 586/5/6
f 585/1/6 580/1/6 586/1/6
f 581/5/6 582/5/6 586/5/6
f 586/5/6 582/5/6 587/5/6
f 588/1/6 589/1/6 591/1/6
f 591/1/6 589/1/6 592/1/6
f 590/1/6 591/1/6 594/1/6
f 594/1/6 591/1/6 595/1/6
f 592/1/6 593/1/6 596/1/6
f 596/1/6 593/1/6 597/1/6
f 595/1/6 596/1/6 598/1/6
f 598/1/6 596/1/6 599/1/6
f 600/1/6 601/1/6 602/1/6
f 602/1/6 601/1/6 603/1/6
