# MagicaVoxel @ Ephtracy

# group
o 

# material
mtllib SmallBuilding04-5.mtl
usemtl palette

# normals
vn -1 0 0
vn 1 0 0
vn 0 0 1
vn 0 0 -1
vn 0 -1 0
vn 0 1 0

# texcoords
vt 0.908203 0.5
vt 0.912109 0.5

# verts
v -0.2 -1.25 0.05
v -0.2 -1.25 -0.05
v -0.2 -1.15 0.05
v -0.2 -1.15 -0.05
v -0.2 -1.05 0.05
v -0.2 -1.05 -0.05
v -0.2 -0.95 0.05
v -0.2 -0.95 -0.05
v -0.2 -0.85 0.05
v -0.2 -0.85 -0.05
v -0.2 -0.75 0.05
v -0.2 -0.75 -0.05
v -0.2 -0.65 0.05
v -0.2 -0.65 -0.05
v -0.2 -0.55 0.05
v -0.2 -0.55 -0.05
v -0.2 -0.45 0.05
v -0.2 -0.45 -0.05
v -0.2 -0.35 0.05
v -0.2 -0.35 -0.05
v -0.2 -0.25 0.05
v -0.2 -0.25 -0.05
v -0.2 -0.15 0.05
v -0.2 -0.15 -0.05
v -0.2 -0.05 0.05
v -0.2 -0.05 -0.05
v -0.2 0.05 0.05
v -0.2 0.05 -0.05
v -0.2 0.15 0.05
v -0.2 0.15 -0.05
v -0.2 0.25 0.05
v -0.2 0.25 -0.05
v -0.2 0.35 0.05
v -0.2 0.35 -0.05
v -0.2 0.45 0.05
v -0.2 0.45 -0.05
v -0.2 0.55 0.05
v -0.2 0.55 -0.05
v -0.2 0.65 0.05
v -0.2 0.65 -0.05
v -0.2 0.75 0.05
v -0.2 0.75 -0.05
v -0.2 0.85 0.05
v -0.2 0.85 -0.05
v -0.2 0.95 0.05
v -0.2 0.95 -0.05
v -0.2 1.05 0.05
v -0.2 1.05 -0.05
v -0.2 1.15 0.05
v -0.2 1.15 -0.05
v -0.2 1.25 0.05
v -0.2 1.25 -0.05
v 0.2 -1.25 0.05
v 0.2 -1.25 -0.05
v 0.2 -1.15 0.05
v 0.2 -1.15 -0.05
v 0.2 -1.05 0.05
v 0.2 -1.05 -0.05
v 0.2 -0.95 0.05
v 0.2 -0.95 -0.05
v 0.2 -0.85 0.05
v 0.2 -0.85 -0.05
v 0.2 -0.75 0.05
v 0.2 -0.75 -0.05
v 0.2 -0.65 0.05
v 0.2 -0.65 -0.05
v 0.2 -0.55 0.05
v 0.2 -0.55 -0.05
v 0.2 -0.45 0.05
v 0.2 -0.45 -0.05
v 0.2 -0.35 0.05
v 0.2 -0.35 -0.05
v 0.2 -0.25 0.05
v 0.2 -0.25 -0.05
v 0.2 -0.15 0.05
v 0.2 -0.15 -0.05
v 0.2 -0.05 0.05
v 0.2 -0.05 -0.05
v 0.2 0.05 0.05
v 0.2 0.05 -0.05
v 0.2 0.15 0.05
v 0.2 0.15 -0.05
v 0.2 0.25 0.05
v 0.2 0.25 -0.05
v 0.2 0.35 0.05
v 0.2 0.35 -0.05
v 0.2 0.45 0.05
v 0.2 0.45 -0.05
v 0.2 0.55 0.05
v 0.2 0.55 -0.05
v 0.2 0.65 0.05
v 0.2 0.65 -0.05
v 0.2 0.75 0.05
v 0.2 0.75 -0.05
v 0.2 0.85 0.05
v 0.2 0.85 -0.05
v 0.2 0.95 0.05
v 0.2 0.95 -0.05
v 0.2 1.05 0.05
v 0.2 1.05 -0.05
v 0.2 1.15 0.05
v 0.2 1.15 -0.05
v 0.2 1.25 0.05
v 0.2 1.25 -0.05
v -0.2 -1.25 0.05
v -0.2 -1.15 0.05
v -0.2 -1.05 0.05
v -0.2 -0.95 0.05
v -0.2 -0.85 0.05
v -0.2 -0.75 0.05
v -0.2 -0.65 0.05
v -0.2 -0.55 0.05
v -0.2 -0.45 0.05
v -0.2 -0.35 0.05
v -0.2 -0.25 0.05
v -0.2 -0.15 0.05
v -0.2 -0.05 0.05
v -0.2 0.05 0.05
v -0.2 0.15 0.05
v -0.2 0.25 0.05
v -0.2 0.35 0.05
v -0.2 0.45 0.05
v -0.2 0.55 0.05
v -0.2 0.65 0.05
v -0.2 0.75 0.05
v -0.2 0.85 0.05
v -0.2 0.95 0.05
v -0.2 1.05 0.05
v -0.2 1.15 0.05
v -0.2 1.25 0.05
v -0.1 -1.25 0.05
v -0.1 -1.15 0.05
v -0.1 -1.05 0.05
v -0.1 -0.95 0.05
v -0.1 -0.85 0.05
v -0.1 -0.75 0.05
v -0.1 -0.65 0.05
v -0.1 -0.55 0.05
v -0.1 -0.45 0.05
v -0.1 -0.35 0.05
v -0.1 -0.25 0.05
v -0.1 -0.15 0.05
v -0.1 -0.05 0.05
v -0.1 0.05 0.05
v -0.1 0.15 0.05
v -0.1 0.25 0.05
v -0.1 0.35 0.05
v -0.1 0.45 0.05
v -0.1 0.55 0.05
v -0.1 0.65 0.05
v -0.1 0.75 0.05
v -0.1 0.85 0.05
v -0.1 0.95 0.05
v -0.1 1.05 0.05
v -0.1 1.15 0.05
v -0.1 1.25 0.05
v 0.1 -1.25 0.05
v 0.1 -1.15 0.05
v 0.1 -1.05 0.05
v 0.1 -0.95 0.05
v 0.1 -0.85 0.05
v 0.1 -0.75 0.05
v 0.1 -0.65 0.05
v 0.1 -0.55 0.05
v 0.1 -0.45 0.05
v 0.1 -0.35 0.05
v 0.1 -0.25 0.05
v 0.1 -0.15 0.05
v 0.1 -0.05 0.05
v 0.1 0.05 0.05
v 0.1 0.15 0.05
v 0.1 0.25 0.05
v 0.1 0.35 0.05
v 0.1 0.45 0.05
v 0.1 0.55 0.05
v 0.1 0.65 0.05
v 0.1 0.75 0.05
v 0.1 0.85 0.05
v 0.1 0.95 0.05
v 0.1 1.05 0.05
v 0.1 1.15 0.05
v 0.1 1.25 0.05
v 0.2 -1.25 0.05
v 0.2 -1.15 0.05
v 0.2 -1.05 0.05
v 0.2 -0.95 0.05
v 0.2 -0.85 0.05
v 0.2 -0.75 0.05
v 0.2 -0.65 0.05
v 0.2 -0.55 0.05
v 0.2 -0.45 0.05
v 0.2 -0.35 0.05
v 0.2 -0.25 0.05
v 0.2 -0.15 0.05
v 0.2 -0.05 0.05
v 0.2 0.05 0.05
v 0.2 0.15 0.05
v 0.2 0.25 0.05
v 0.2 0.35 0.05
v 0.2 0.45 0.05
v 0.2 0.55 0.05
v 0.2 0.65 0.05
v 0.2 0.75 0.05
v 0.2 0.85 0.05
v 0.2 0.95 0.05
v 0.2 1.05 0.05
v 0.2 1.15 0.05
v 0.2 1.25 0.05
v -0.2 -1.25 -0.05
v -0.2 -1.15 -0.05
v -0.2 -1.05 -0.05
v -0.2 -0.95 -0.05
v -0.2 -0.85 -0.05
v -0.2 -0.75 -0.05
v -0.2 -0.65 -0.05
v -0.2 -0.55 -0.05
v -0.2 -0.45 -0.05
v -0.2 -0.35 -0.05
v -0.2 -0.25 -0.05
v -0.2 -0.15 -0.05
v -0.2 -0.05 -0.05
v -0.2 0.05 -0.05
v -0.2 0.15 -0.05
v -0.2 0.25 -0.05
v -0.2 0.35 -0.05
v -0.2 0.45 -0.05
v -0.2 0.55 -0.05
v -0.2 0.65 -0.05
v -0.2 0.75 -0.05
v -0.2 0.85 -0.05
v -0.2 0.95 -0.05
v -0.2 1.05 -0.05
v -0.2 1.15 -0.05
v -0.2 1.25 -0.05
v -0.1 -1.25 -0.05
v -0.1 -1.15 -0.05
v -0.1 -1.05 -0.05
v -0.1 -0.95 -0.05
v -0.1 -0.85 -0.05
v -0.1 -0.75 -0.05
v -0.1 -0.65 -0.05
v -0.1 -0.55 -0.05
v -0.1 -0.45 -0.05
v -0.1 -0.35 -0.05
v -0.1 -0.25 -0.05
v -0.1 -0.15 -0.05
v -0.1 -0.05 -0.05
v -0.1 0.05 -0.05
v -0.1 0.15 -0.05
v -0.1 0.25 -0.05
v -0.1 0.35 -0.05
v -0.1 0.45 -0.05
v -0.1 0.55 -0.05
v -0.1 0.65 -0.05
v -0.1 0.75 -0.05
v -0.1 0.85 -0.05
v -0.1 0.95 -0.05
v -0.1 1.05 -0.05
v -0.1 1.15 -0.05
v -0.1 1.25 -0.05
v 0.1 -1.25 -0.05
v 0.1 -1.15 -0.05
v 0.1 -1.05 -0.05
v 0.1 -0.95 -0.05
v 0.1 -0.85 -0.05
v 0.1 -0.75 -0.05
v 0.1 -0.65 -0.05
v 0.1 -0.55 -0.05
v 0.1 -0.45 -0.05
v 0.1 -0.35 -0.05
v 0.1 -0.25 -0.05
v 0.1 -0.15 -0.05
v 0.1 -0.05 -0.05
v 0.1 0.05 -0.05
v 0.1 0.15 -0.05
v 0.1 0.25 -0.05
v 0.1 0.35 -0.05
v 0.1 0.45 -0.05
v 0.1 0.55 -0.05
v 0.1 0.65 -0.05
v 0.1 0.75 -0.05
v 0.1 0.85 -0.05
v 0.1 0.95 -0.05
v 0.1 1.05 -0.05
v 0.1 1.15 -0.05
v 0.1 1.25 -0.05
v 0.2 -1.25 -0.05
v 0.2 -1.15 -0.05
v 0.2 -1.05 -0.05
v 0.2 -0.95 -0.05
v 0.2 -0.85 -0.05
v 0.2 -0.75 -0.05
v 0.2 -0.65 -0.05
v 0.2 -0.55 -0.05
v 0.2 -0.45 -0.05
v 0.2 -0.35 -0.05
v 0.2 -0.25 -0.05
v 0.2 -0.15 -0.05
v 0.2 -0.05 -0.05
v 0.2 0.05 -0.05
v 0.2 0.15 -0.05
v 0.2 0.25 -0.05
v 0.2 0.35 -0.05
v 0.2 0.45 -0.05
v 0.2 0.55 -0.05
v 0.2 0.65 -0.05
v 0.2 0.75 -0.05
v 0.2 0.85 -0.05
v 0.2 0.95 -0.05
v 0.2 1.05 -0.05
v 0.2 1.15 -0.05
v 0.2 1.25 -0.05
v -0.2 -1.25 0.05
v -0.1 -1.25 0.05
v 0.1 -1.25 0.05
v 0.2 -1.25 0.05
v -0.2 -1.25 -0.05
v -0.1 -1.25 -0.05
v 0.1 -1.25 -0.05
v 0.2 -1.25 -0.05
v -0.2 -1.05 0.05
v -0.1 -1.05 0.05
v 0.1 -1.05 0.05
v 0.2 -1.05 0.05
v -0.2 -1.05 -0.05
v -0.1 -1.05 -0.05
v 0.1 -1.05 -0.05
v 0.2 -1.05 -0.05
v -0.2 -0.85 0.05
v -0.1 -0.85 0.05
v 0.1 -0.85 0.05
v 0.2 -0.85 0.05
v -0.2 -0.85 -0.05
v -0.1 -0.85 -0.05
v 0.1 -0.85 -0.05
v 0.2 -0.85 -0.05
v -0.2 -0.65 0.05
v -0.1 -0.65 0.05
v 0.1 -0.65 0.05
v 0.2 -0.65 0.05
v -0.2 -0.65 -0.05
v -0.1 -0.65 -0.05
v 0.1 -0.65 -0.05
v 0.2 -0.65 -0.05
v -0.2 -0.45 0.05
v -0.1 -0.45 0.05
v 0.1 -0.45 0.05
v 0.2 -0.45 0.05
v -0.2 -0.45 -0.05
v -0.1 -0.45 -0.05
v 0.1 -0.45 -0.05
v 0.2 -0.45 -0.05
v -0.2 -0.25 0.05
v -0.1 -0.25 0.05
v 0.1 -0.25 0.05
v 0.2 -0.25 0.05
v -0.2 -0.25 -0.05
v -0.1 -0.25 -0.05
v 0.1 -0.25 -0.05
v 0.2 -0.25 -0.05
v -0.2 -0.05 0.05
v -0.1 -0.05 0.05
v 0.1 -0.05 0.05
v 0.2 -0.05 0.05
v -0.2 -0.05 -0.05
v -0.1 -0.05 -0.05
v 0.1 -0.05 -0.05
v 0.2 -0.05 -0.05
v -0.2 0.15 0.05
v -0.1 0.15 0.05
v 0.1 0.15 0.05
v 0.2 0.15 0.05
v -0.2 0.15 -0.05
v -0.1 0.15 -0.05
v 0.1 0.15 -0.05
v 0.2 0.15 -0.05
v -0.2 0.35 0.05
v -0.1 0.35 0.05
v 0.1 0.35 0.05
v 0.2 0.35 0.05
v -0.2 0.35 -0.05
v -0.1 0.35 -0.05
v 0.1 0.35 -0.05
v 0.2 0.35 -0.05
v -0.2 0.55 0.05
v -0.1 0.55 0.05
v 0.1 0.55 0.05
v 0.2 0.55 0.05
v -0.2 0.55 -0.05
v -0.1 0.55 -0.05
v 0.1 0.55 -0.05
v 0.2 0.55 -0.05
v -0.2 0.75 0.05
v -0.1 0.75 0.05
v 0.1 0.75 0.05
v 0.2 0.75 0.05
v -0.2 0.75 -0.05
v -0.1 0.75 -0.05
v 0.1 0.75 -0.05
v 0.2 0.75 -0.05
v -0.2 0.95 0.05
v -0.1 0.95 0.05
v 0.1 0.95 0.05
v 0.2 0.95 0.05
v -0.2 0.95 -0.05
v -0.1 0.95 -0.05
v 0.1 0.95 -0.05
v 0.2 0.95 -0.05
v -0.2 1.15 0.05
v -0.1 1.15 0.05
v 0.1 1.15 0.05
v 0.2 1.15 0.05
v -0.2 1.15 -0.05
v -0.1 1.15 -0.05
v 0.1 1.15 -0.05
v 0.2 1.15 -0.05
v -0.2 -1.15 0.05
v -0.1 -1.15 0.05
v 0.1 -1.15 0.05
v 0.2 -1.15 0.05
v -0.2 -1.15 -0.05
v -0.1 -1.15 -0.05
v 0.1 -1.15 -0.05
v 0.2 -1.15 -0.05
v -0.2 -0.95 0.05
v -0.1 -0.95 0.05
v 0.1 -0.95 0.05
v 0.2 -0.95 0.05
v -0.2 -0.95 -0.05
v -0.1 -0.95 -0.05
v 0.1 -0.95 -0.05
v 0.2 -0.95 -0.05
v -0.2 -0.75 0.05
v -0.1 -0.75 0.05
v 0.1 -0.75 0.05
v 0.2 -0.75 0.05
v -0.2 -0.75 -0.05
v -0.1 -0.75 -0.05
v 0.1 -0.75 -0.05
v 0.2 -0.75 -0.05
v -0.2 -0.55 0.05
v -0.1 -0.55 0.05
v 0.1 -0.55 0.05
v 0.2 -0.55 0.05
v -0.2 -0.55 -0.05
v -0.1 -0.55 -0.05
v 0.1 -0.55 -0.05
v 0.2 -0.55 -0.05
v -0.2 -0.35 0.05
v -0.1 -0.35 0.05
v 0.1 -0.35 0.05
v 0.2 -0.35 0.05
v -0.2 -0.35 -0.05
v -0.1 -0.35 -0.05
v 0.1 -0.35 -0.05
v 0.2 -0.35 -0.05
v -0.2 -0.15 0.05
v -0.1 -0.15 0.05
v 0.1 -0.15 0.05
v 0.2 -0.15 0.05
v -0.2 -0.15 -0.05
v -0.1 -0.15 -0.05
v 0.1 -0.15 -0.05
v 0.2 -0.15 -0.05
v -0.2 0.05 0.05
v -0.1 0.05 0.05
v 0.1 0.05 0.05
v 0.2 0.05 0.05
v -0.2 0.05 -0.05
v -0.1 0.05 -0.05
v 0.1 0.05 -0.05
v 0.2 0.05 -0.05
v -0.2 0.25 0.05
v -0.1 0.25 0.05
v 0.1 0.25 0.05
v 0.2 0.25 0.05
v -0.2 0.25 -0.05
v -0.1 0.25 -0.05
v 0.1 0.25 -0.05
v 0.2 0.25 -0.05
v -0.2 0.45 0.05
v -0.1 0.45 0.05
v 0.1 0.45 0.05
v 0.2 0.45 0.05
v -0.2 0.45 -0.05
v -0.1 0.45 -0.05
v 0.1 0.45 -0.05
v 0.2 0.45 -0.05
v -0.2 0.65 0.05
v -0.1 0.65 0.05
v 0.1 0.65 0.05
v 0.2 0.65 0.05
v -0.2 0.65 -0.05
v -0.1 0.65 -0.05
v 0.1 0.65 -0.05
v 0.2 0.65 -0.05
v -0.2 0.85 0.05
v -0.1 0.85 0.05
v 0.1 0.85 0.05
v 0.2 0.85 0.05
v -0.2 0.85 -0.05
v -0.1 0.85 -0.05
v 0.1 0.85 -0.05
v 0.2 0.85 -0.05
v -0.2 1.05 0.05
v -0.1 1.05 0.05
v 0.1 1.05 0.05
v 0.2 1.05 0.05
v -0.2 1.05 -0.05
v -0.1 1.05 -0.05
v 0.1 1.05 -0.05
v 0.2 1.05 -0.05
v -0.2 1.25 0.05
v -0.1 1.25 0.05
v 0.1 1.25 0.05
v 0.2 1.25 0.05
v -0.2 1.25 -0.05
v -0.1 1.25 -0.05
v 0.1 1.25 -0.05
v 0.2 1.25 -0.05

# faces
f 3/1/1 2/1/1 1/1/1
f 4/1/1 2/1/1 3/1/1
f 7/1/1 6/1/1 5/1/1
f 8/1/1 6/1/1 7/1/1
f 11/1/1 10/1/1 9/1/1
f 12/1/1 10/1/1 11/1/1
f 15/1/1 14/1/1 13/1/1
f 16/1/1 14/1/1 15/1/1
f 19/1/1 18/1/1 17/1/1
f 20/1/1 18/1/1 19/1/1
f 23/1/1 22/1/1 21/1/1
f 24/1/1 22/1/1 23/1/1
f 27/1/1 26/1/1 25/1/1
f 28/1/1 26/1/1 27/1/1
f 31/1/1 30/1/1 29/1/1
f 32/1/1 30/1/1 31/1/1
f 35/1/1 34/1/1 33/1/1
f 36/1/1 34/1/1 35/1/1
f 39/1/1 38/1/1 37/1/1
f 40/1/1 38/1/1 39/1/1
f 43/1/1 42/1/1 41/1/1
f 44/1/1 42/1/1 43/1/1
f 47/1/1 46/1/1 45/1/1
f 48/1/1 46/1/1 47/1/1
f 51/1/1 50/1/1 49/1/1
f 52/1/1 50/1/1 51/1/1
f 53/1/2 54/1/2 55/1/2
f 55/1/2 54/1/2 56/1/2
f 57/1/2 58/1/2 59/1/2
f 59/1/2 58/1/2 60/1/2
f 61/1/2 62/1/2 63/1/2
f 63/1/2 62/1/2 64/1/2
f 65/1/2 66/1/2 67/1/2
f 67/1/2 66/1/2 68/1/2
f 69/1/2 70/1/2 71/1/2
f 71/1/2 70/1/2 72/1/2
f 73/1/2 74/1/2 75/1/2
f 75/1/2 74/1/2 76/1/2
f 77/1/2 78/1/2 79/1/2
f 79/1/2 78/1/2 80/1/2
f 81/1/2 82/1/2 83/1/2
f 83/1/2 82/1/2 84/1/2
f 85/1/2 86/1/2 87/1/2
f 87/1/2 86/1/2 88/1/2
f 89/1/2 90/1/2 91/1/2
f 91/1/2 90/1/2 92/1/2
f 93/1/2 94/1/2 95/1/2
f 95/1/2 94/1/2 96/1/2
f 97/1/2 98/1/2 99/1/2
f 99/1/2 98/1/2 100/1/2
f 101/1/2 102/1/2 103/1/2
f 103/1/2 102/1/2 104/1/2
f 131/1/3 106/1/3 105/1/3
f 132/1/3 106/1/3 131/1/3
f 133/1/3 108/1/3 107/1/3
f 134/1/3 108/1/3 133/1/3
f 135/1/3 110/1/3 109/1/3
f 136/1/3 110/1/3 135/1/3
f 137/1/3 112/1/3 111/1/3
f 138/1/3 112/1/3 137/1/3
f 139/1/3 114/1/3 113/1/3
f 140/1/3 114/1/3 139/1/3
f 141/1/3 116/1/3 115/1/3
f 142/1/3 116/1/3 141/1/3
f 143/1/3 118/1/3 117/1/3
f 144/1/3 118/1/3 143/1/3
f 145/1/3 120/1/3 119/1/3
f 146/1/3 120/1/3 145/1/3
f 147/1/3 122/1/3 121/1/3
f 148/1/3 122/1/3 147/1/3
f 149/1/3 124/1/3 123/1/3
f 150/1/3 124/1/3 149/1/3
f 151/1/3 126/1/3 125/1/3
f 152/1/3 126/1/3 151/1/3
f 153/1/3 128/1/3 127/1/3
f 154/1/3 128/1/3 153/1/3
f 155/1/3 130/1/3 129/1/3
f 156/1/3 130/1/3 155/1/3
f 157/2/3 132/2/3 131/2/3
f 158/2/3 132/2/3 157/2/3
f 159/2/3 134/2/3 133/2/3
f 160/2/3 134/2/3 159/2/3
f 161/2/3 136/2/3 135/2/3
f 162/2/3 136/2/3 161/2/3
f 163/2/3 138/2/3 137/2/3
f 164/2/3 138/2/3 163/2/3
f 165/2/3 140/2/3 139/2/3
f 166/2/3 140/2/3 165/2/3
f 167/2/3 142/2/3 141/2/3
f 168/2/3 142/2/3 167/2/3
f 169/2/3 144/2/3 143/2/3
f 170/2/3 144/2/3 169/2/3
f 171/2/3 146/2/3 145/2/3
f 172/2/3 146/2/3 171/2/3
f 173/2/3 148/2/3 147/2/3
f 174/2/3 148/2/3 173/2/3
f 175/2/3 150/2/3 149/2/3
f 176/2/3 150/2/3 175/2/3
f 177/2/3 152/2/3 151/2/3
f 178/2/3 152/2/3 177/2/3
f 179/2/3 154/2/3 153/2/3
f 180/2/3 154/2/3 179/2/3
f 181/2/3 156/2/3 155/2/3
f 182/2/3 156/2/3 181/2/3
f 183/1/3 158/1/3 157/1/3
f 184/1/3 158/1/3 183/1/3
f 185/1/3 160/1/3 159/1/3
f 186/1/3 160/1/3 185/1/3
f 187/1/3 162/1/3 161/1/3
f 188/1/3 162/1/3 187/1/3
f 189/1/3 164/1/3 163/1/3
f 190/1/3 164/1/3 189/1/3
f 191/1/3 166/1/3 165/1/3
f 192/1/3 166/1/3 191/1/3
f 193/1/3 168/1/3 167/1/3
f 194/1/3 168/1/3 193/1/3
f 195/1/3 170/1/3 169/1/3
f 196/1/3 170/1/3 195/1/3
f 197/1/3 172/1/3 171/1/3
f 198/1/3 172/1/3 197/1/3
f 199/1/3 174/1/3 173/1/3
f 200/1/3 174/1/3 199/1/3
f 201/1/3 176/1/3 175/1/3
f 202/1/3 176/1/3 201/1/3
f 203/1/3 178/1/3 177/1/3
f 204/1/3 178/1/3 203/1/3
f 205/1/3 180/1/3 179/1/3
f 206/1/3 180/1/3 205/1/3
f 207/1/3 182/1/3 181/1/3
f 208/1/3 182/1/3 207/1/3
f 209/1/4 210/1/4 235/1/4
f 235/1/4 210/1/4 236/1/4
f 211/1/4 212/1/4 237/1/4
f 237/1/4 212/1/4 238/1/4
f 213/1/4 214/1/4 239/1/4
f 239/1/4 214/1/4 240/1/4
f 215/1/4 216/1/4 241/1/4
f 241/1/4 216/1/4 242/1/4
f 217/1/4 218/1/4 243/1/4
f 243/1/4 218/1/4 244/1/4
f 219/1/4 220/1/4 245/1/4
f 245/1/4 220/1/4 246/1/4
f 221/1/4 222/1/4 247/1/4
f 247/1/4 222/1/4 248/1/4
f 223/1/4 224/1/4 249/1/4
f 249/1/4 224/1/4 250/1/4
f 225/1/4 226/1/4 251/1/4
f 251/1/4 226/1/4 252/1/4
f 227/1/4 228/1/4 253/1/4
f 253/1/4 228/1/4 254/1/4
f 229/1/4 230/1/4 255/1/4
f 255/1/4 230/1/4 256/1/4
f 231/1/4 232/1/4 257/1/4
f 257/1/4 232/1/4 258/1/4
f 233/1/4 234/1/4 259/1/4
f 259/1/4 234/1/4 260/1/4
f 235/2/4 236/2/4 261/2/4
f 261/2/4 236/2/4 262/2/4
f 237/2/4 238/2/4 263/2/4
f 263/2/4 238/2/4 264/2/4
f 239/2/4 240/2/4 265/2/4
f 265/2/4 240/2/4 266/2/4
f 241/2/4 242/2/4 267/2/4
f 267/2/4 242/2/4 268/2/4
f 243/2/4 244/2/4 269/2/4
f 269/2/4 244/2/4 270/2/4
f 245/2/4 246/2/4 271/2/4
f 271/2/4 246/2/4 272/2/4
f 247/2/4 248/2/4 273/2/4
f 273/2/4 248/2/4 274/2/4
f 249/2/4 250/2/4 275/2/4
f 275/2/4 250/2/4 276/2/4
f 251/2/4 252/2/4 277/2/4
f 277/2/4 252/2/4 278/2/4
f 253/2/4 254/2/4 279/2/4
f 279/2/4 254/2/4 280/2/4
f 255/2/4 256/2/4 281/2/4
f 281/2/4 256/2/4 282/2/4
f 257/2/4 258/2/4 283/2/4
f 283/2/4 258/2/4 284/2/4
f 259/2/4 260/2/4 285/2/4
f 285/2/4 260/2/4 286/2/4
f 261/1/4 262/1/4 287/1/4
f 287/1/4 262/1/4 288/1/4
f 263/1/4 264/1/4 289/1/4
f 289/1/4 264/1/4 290/1/4
f 265/1/4 266/1/4 291/1/4
f 291/1/4 266/1/4 292/1/4
f 267/1/4 268/1/4 293/1/4
f 293/1/4 268/1/4 294/1/4
f 269/1/4 270/1/4 295/1/4
f 295/1/4 270/1/4 296/1/4
f 271/1/4 272/1/4 297/1/4
f 297/1/4 272/1/4 298/1/4
f 273/1/4 274/1/4 299/1/4
f 299/1/4 274/1/4 300/1/4
f 275/1/4 276/1/4 301/1/4
f 301/1/4 276/1/4 302/1/4
f 277/1/4 278/1/4 303/1/4
f 303/1/4 278/1/4 304/1/4
f 279/1/4 280/1/4 305/1/4
f 305/1/4 280/1/4 306/1/4
f 281/1/4 282/1/4 307/1/4
f 307/1/4 282/1/4 308/1/4
f 283/1/4 284/1/4 309/1/4
f 309/1/4 284/1/4 310/1/4
f 285/1/4 286/1/4 311/1/4
f 311/1/4 286/1/4 312/1/4
f 317/1/5 314/1/5 313/1/5
f 318/2/5 315/2/5 314/2/5
f 318/1/5 314/1/5 317/1/5
f 319/1/5 316/1/5 315/1/5
f 319/2/5 315/2/5 318/2/5
f 320/1/5 316/1/5 319/1/5
f 325/1/5 322/1/5 321/1/5
f 326/2/5 323/2/5 322/2/5
f 326/1/5 322/1/5 325/1/5
f 327/1/5 324/1/5 323/1/5
f 327/2/5 323/2/5 326/2/5
f 328/1/5 324/1/5 327/1/5
f 333/1/5 330/1/5 329/1/5
f 334/2/5 331/2/5 330/2/5
f 334/1/5 330/1/5 333/1/5
f 335/1/5 332/1/5 331/1/5
f 335/2/5 331/2/5 334/2/5
f 336/1/5 332/1/5 335/1/5
f 341/1/5 338/1/5 337/1/5
f 342/2/5 339/2/5 338/2/5
f 342/1/5 338/1/5 341/1/5
f 343/1/5 340/1/5 339/1/5
f 343/2/5 339/2/5 342/2/5
f 344/1/5 340/1/5 343/1/5
f 349/1/5 346/1/5 345/1/5
f 350/2/5 347/2/5 346/2/5
f 350/1/5 346/1/5 349/1/5
f 351/1/5 348/1/5 347/1/5
f 351/2/5 347/2/5 350/2/5
f 352/1/5 348/1/5 351/1/5
f 357/1/5 354/1/5 353/1/5
f 358/2/5 355/2/5 354/2/5
f 358/1/5 354/1/5 357/1/5
f 359/1/5 356/1/5 355/1/5
f 359/2/5 355/2/5 358/2/5
f 360/1/5 356/1/5 359/1/5
f 365/1/5 362/1/5 361/1/5
f 366/2/5 363/2/5 362/2/5
f 366/1/5 362/1/5 365/1/5
f 367/1/5 364/1/5 363/1/5
f 367/2/5 363/2/5 366/2/5
f 368/1/5 364/1/5 367/1/5
f 373/1/5 370/1/5 369/1/5
f 374/2/5 371/2/5 370/2/5
f 374/1/5 370/1/5 373/1/5
f 375/1/5 372/1/5 371/1/5
f 375/2/5 371/2/5 374/2/5
f 376/1/5 372/1/5 375/1/5
f 381/1/5 378/1/5 377/1/5
f 382/2/5 379/2/5 378/2/5
f 382/1/5 378/1/5 381/1/5
f 383/1/5 380/1/5 379/1/5
f 383/2/5 379/2/5 382/2/5
f 384/1/5 380/1/5 383/1/5
f 389/1/5 386/1/5 385/1/5
f 390/2/5 387/2/5 386/2/5
f 390/1/5 386/1/5 389/1/5
f 391/1/5 388/1/5 387/1/5
f 391/2/5 387/2/5 390/2/5
f 392/1/5 388/1/5 391/1/5
f 397/1/5 394/1/5 393/1/5
f 398/2/5 395/2/5 394/2/5
f 398/1/5 394/1/5 397/1/5
f 399/1/5 396/1/5 395/1/5
f 399/2/5 395/2/5 398/2/5
f 400/1/5 396/1/5 399/1/5
f 405/1/5 402/1/5 401/1/5
f 406/2/5 403/2/5 402/2/5
f 406/1/5 402/1/5 405/1/5
f 407/1/5 404/1/5 403/1/5
f 407/2/5 403/2/5 406/2/5
f 408/1/5 404/1/5 407/1/5
f 413/1/5 410/1/5 409/1/5
f 414/2/5 411/2/5 410/2/5
f 414/1/5 410/1/5 413/1/5
f 415/1/5 412/1/5 411/1/5
f 415/2/5 411/2/5 414/2/5
f 416/1/5 412/1/5 415/1/5
f 417/1/6 418/1/6 421/1/6
f 418/2/6 419/2/6 422/2/6
f 421/1/6 418/1/6 422/1/6
f 419/1/6 420/1/6 423/1/6
f 422/2/6 419/2/6 423/2/6
f 423/1/6 420/1/6 424/1/6
f 425/1/6 426/1/6 429/1/6
f 426/2/6 427/2/6 430/2/6
f 429/1/6 426/1/6 430/1/6
f 427/1/6 428/1/6 431/1/6
f 430/2/6 427/2/6 431/2/6
f 431/1/6 428/1/6 432/1/6
f 433/1/6 434/1/6 437/1/6
f 434/2/6 435/2/6 438/2/6
f 437/1/6 434/1/6 438/1/6
f 435/1/6 436/1/6 439/1/6
f 438/2/6 435/2/6 439/2/6
f 439/1/6 436/1/6 440/1/6
f 441/1/6 442/1/6 445/1/6
f 442/2/6 443/2/6 446/2/6
f 445/1/6 442/1/6 446/1/6
f 443/1/6 444/1/6 447/1/6
f 446/2/6 443/2/6 447/2/6
f 447/1/6 444/1/6 448/1/6
f 449/1/6 450/1/6 453/1/6
f 450/2/6 451/2/6 454/2/6
f 453/1/6 450/1/6 454/1/6
f 451/1/6 452/1/6 455/1/6
f 454/2/6 451/2/6 455/2/6
f 455/1/6 452/1/6 456/1/6
f 457/1/6 458/1/6 461/1/6
f 458/2/6 459/2/6 462/2/6
f 461/1/6 458/1/6 462/1/6
f 459/1/6 460/1/6 463/1/6
f 462/2/6 459/2/6 463/2/6
f 463/1/6 460/1/6 464/1/6
f 465/1/6 466/1/6 469/1/6
f 466/2/6 467/2/6 470/2/6
f 469/1/6 466/1/6 470/1/6
f 467/1/6 468/1/6 471/1/6
f 470/2/6 467/2/6 471/2/6
f 471/1/6 468/1/6 472/1/6
f 473/1/6 474/1/6 477/1/6
f 474/2/6 475/2/6 478/2/6
f 477/1/6 474/1/6 478/1/6
f 475/1/6 476/1/6 479/1/6
f 478/2/6 475/2/6 479/2/6
f 479/1/6 476/1/6 480/1/6
f 481/1/6 482/1/6 485/1/6
f 482/2/6 483/2/6 486/2/6
f 485/1/6 482/1/6 486/1/6
f 483/1/6 484/1/6 487/1/6
f 486/2/6 483/2/6 487/2/6
f 487/1/6 484/1/6 488/1/6
f 489/1/6 490/1/6 493/1/6
f 490/2/6 491/2/6 494/2/6
f 493/1/6 490/1/6 494/1/6
f 491/1/6 492/1/6 495/1/6
f 494/2/6 491/2/6 495/2/6
f 495/1/6 492/1/6 496/1/6
f 497/1/6 498/1/6 501/1/6
f 498/2/6 499/2/6 502/2/6
f 501/1/6 498/1/6 502/1/6
f 499/1/6 500/1/6 503/1/6
f 502/2/6 499/2/6 503/2/6
f 503/1/6 500/1/6 504/1/6
f 505/1/6 506/1/6 509/1/6
f 506/2/6 507/2/6 510/2/6
f 509/1/6 506/1/6 510/1/6
f 507/1/6 508/1/6 511/1/6
f 510/2/6 507/2/6 511/2/6
f 511/1/6 508/1/6 512/1/6
f 513/1/6 514/1/6 517/1/6
f 514/2/6 515/2/6 518/2/6
f 517/1/6 514/1/6 518/1/6
f 515/1/6 516/1/6 519/1/6
f 518/2/6 515/2/6 519/2/6
f 519/1/6 516/1/6 520/1/6
