# MagicaVoxel @ Ephtracy

# group
o 

# material
mtllib LargeBuilding01-6.mtl
usemtl palette

# normals
vn -1 0 0
vn 1 0 0
vn 0 0 1
vn 0 0 -1
vn 0 -1 0
vn 0 1 0

# texcoords
vt 0.939453 0.5
vt 0.943359 0.5

# verts
v 20.3 0 31.3
v 20.3 0 30.4
v 20.3 0.1 31.3
v 20.3 0.1 30.4
v 20.9 0 31.3
v 20.9 0 31.2
v 20.9 0 31.1
v 20.9 0 30.4
v 20.9 0.1 31.3
v 20.9 0.1 31.2
v 20.9 0.1 31.1
v 20.9 0.1 30.4
v 20.3 0 31.3
v 20.3 0.1 31.3
v 20.6 0 31.3
v 20.6 0.1 31.3
v 20.7 0 31.3
v 20.7 0.1 31.3
v 20.9 0 31.3
v 20.9 0.1 31.3
v 20.3 0 30.4
v 20.3 0.1 30.4
v 20.9 0 30.4
v 20.9 0.1 30.4
v 20.3 0 31.3
v 20.6 0 31.3
v 20.7 0 31.3
v 20.9 0 31.3
v 20.6 0 31.2
v 20.7 0 31.2
v 20.8 0 31.2
v 20.9 0 31.2
v 20.8 0 31.1
v 20.9 0 31.1
v 20.3 0 30.4
v 20.9 0 30.4
v 20.3 0.1 31.3
v 20.6 0.1 31.3
v 20.7 0.1 31.3
v 20.9 0.1 31.3
v 20.6 0.1 31.2
v 20.7 0.1 31.2
v 20.8 0.1 31.2
v 20.9 0.1 31.2
v 20.8 0.1 31.1
v 20.9 0.1 31.1
v 20.3 0.1 30.4
v 20.9 0.1 30.4

# faces
f 3/2/1 2/2/1 1/2/1
f 4/2/1 2/2/1 3/2/1
f 5/2/2 6/2/2 9/2/2
f 6/1/2 7/1/2 10/1/2
f 9/2/2 6/2/2 10/2/2
f 7/2/2 8/2/2 11/2/2
f 10/1/2 7/1/2 11/1/2
f 11/2/2 8/2/2 12/2/2
f 15/2/3 14/2/3 13/2/3
f 16/2/3 14/2/3 15/2/3
f 17/1/3 16/1/3 15/1/3
f 18/1/3 16/1/3 17/1/3
f 19/2/3 18/2/3 17/2/3
f 20/2/3 18/2/3 19/2/3
f 21/2/4 22/2/4 23/2/4
f 23/2/4 22/2/4 24/2/4
f 29/2/5 26/2/5 25/2/5
f 29/1/5 27/1/5 26/1/5
f 30/2/5 28/2/5 27/2/5
f 30/1/5 27/1/5 29/1/5
f 31/2/5 28/2/5 30/2/5
f 32/2/5 28/2/5 31/2/5
f 33/2/5 30/2/5 29/2/5
f 33/2/5 31/2/5 30/2/5
f 33/1/5 32/1/5 31/1/5
f 34/1/5 32/1/5 33/1/5
f 35/2/5 29/2/5 25/2/5
f 35/2/5 33/2/5 29/2/5
f 35/2/5 34/2/5 33/2/5
f 36/2/5 34/2/5 35/2/5
f 37/2/6 38/2/6 41/2/6
f 38/1/6 39/1/6 41/1/6
f 39/2/6 40/2/6 42/2/6
f 41/1/6 39/1/6 42/1/6
f 42/2/6 40/2/6 43/2/6
f 43/2/6 40/2/6 44/2/6
f 41/2/6 42/2/6 45/2/6
f 42/2/6 43/2/6 45/2/6
f 43/1/6 44/1/6 45/1/6
f 45/1/6 44/1/6 46/1/6
f 37/2/6 41/2/6 47/2/6
f 41/2/6 45/2/6 47/2/6
f 45/2/6 46/2/6 47/2/6
f 47/2/6 46/2/6 48/2/6
