# MagicaVoxel @ Ephtracy

# group
o 

# material
mtllib TallBuilding01-6.mtl
usemtl palette

# normals
vn 0 0 -1
vn 0 0 1
vn -1 0 0
vn 1 0 0
vn 0 -1 0
vn 0 1 0

# texcoords
vt 0.724609 0.5
vt 0.751953 0.5
vt 0.755859 0.5
vt 0.908203 0.5
vt 0.912109 0.5

# verts
v -0.5 1.7 23
v -0.4 1.7 23
v -0.3 1.7 23
v -0.2 1.7 23
v -0.1 1.7 23
v 0 1.7 23
v -0.5 1.8 23
v -0.4 1.8 23
v -0.3 1.8 23
v -0.2 1.8 23
v -0.1 1.8 23
v 0 1.8 23
v -0.5 1.9 23
v -0.4 1.9 23
v -0.3 1.9 23
v -0.2 1.9 23
v -0.1 1.9 23
v 0 1.9 23
v -0.1 2 23
v 0 2 23
v -0.5 2.1 23
v -0.4 2.1 23
v -0.3 2.1 23
v -0.2 2.1 23
v -0.1 2.1 23
v 0 2.1 23
v -0.5 2.2 23
v -0.4 2.2 23
v -0.3 2.3 23
v -0.2 2.3 23
v -0.1 2.3 23
v 0 2.3 23
v -0.3 2.4 23
v -0.2 2.4 23
v -0.3 2.5 23
v -0.2 2.5 23
v -0.5 2.9 23
v -0.4 2.9 23
v -0.3 2.9 23
v -0.2 2.9 23
v -0.1 2.9 23
v 0 2.9 23
v 0.1 2.9 23
v 0.2 2.9 23
v -0.5 3 23
v -0.4 3 23
v -0.3 3 23
v -0.2 3 23
v -0.1 3 23
v 0 3 23
v 0.1 3 23
v 0.2 3 23
v -0.5 1.1 23.1
v -0.4 1.1 23.1
v 0.1 1.1 23.1
v 0.2 1.1 23.1
v -0.5 1.2 23.1
v -0.4 1.2 23.1
v 0.1 1.2 23.1
v 0.2 1.2 23.1
v -0.5 1.5 23.1
v -0.4 1.5 23.1
v 0.1 1.5 23.1
v 0.2 1.5 23.1
v -0.5 1.6 23.1
v -0.4 1.6 23.1
v 0.1 1.6 23.1
v 0.2 1.6 23.1
v -0.4 1.9 23.1
v -0.3 1.9 23.1
v -0.2 1.9 23.1
v -0.1 1.9 23.1
v 0 1.9 23.1
v 0.1 1.9 23.1
v 0.2 1.9 23.1
v -0.4 2 23.1
v -0.3 2 23.1
v -0.2 2 23.1
v -0.1 2 23.1
v 0 2 23.1
v 0.1 2 23.1
v 0.2 2 23.1
v -0.4 2.3 23.1
v -0.3 2.3 23.1
v -0.2 2.3 23.1
v -0.1 2.3 23.1
v 0 2.3 23.1
v 0.1 2.3 23.1
v 0.2 2.3 23.1
v -0.4 2.4 23.1
v -0.3 2.4 23.1
v -0.2 2.4 23.1
v -0.1 2.4 23.1
v 0 2.4 23.1
v 0.1 2.4 23.1
v 0.2 2.4 23.1
v -0.4 2.7 23.1
v -0.3 2.7 23.1
v -0.2 2.7 23.1
v -0.1 2.7 23.1
v 0 2.7 23.1
v 0.1 2.7 23.1
v 0.2 2.7 23.1
v -0.4 2.8 23.1
v -0.3 2.8 23.1
v -0.2 2.8 23.1
v -0.1 2.8 23.1
v 0 2.8 23.1
v 0.1 2.8 23.1
v 0.2 2.8 23.1
v -0.5 1.7 23.1
v -0.4 1.7 23.1
v -0.3 1.7 23.1
v -0.2 1.7 23.1
v -0.1 1.7 23.1
v 0 1.7 23.1
v -0.5 1.8 23.1
v -0.4 1.8 23.1
v -0.3 1.8 23.1
v -0.2 1.8 23.1
v -0.1 1.8 23.1
v 0 1.8 23.1
v -0.5 1.9 23.1
v -0.4 1.9 23.1
v -0.3 1.9 23.1
v -0.2 1.9 23.1
v -0.1 1.9 23.1
v 0 1.9 23.1
v -0.5 2 23.1
v -0.4 2 23.1
v -0.3 2 23.1
v -0.2 2 23.1
v -0.1 2 23.1
v 0 2 23.1
v -0.5 2.1 23.1
v -0.4 2.1 23.1
v -0.3 2.1 23.1
v -0.2 2.1 23.1
v -0.1 2.1 23.1
v 0 2.1 23.1
v -0.5 2.2 23.1
v -0.4 2.2 23.1
v -0.5 2.3 23.1
v -0.4 2.3 23.1
v -0.3 2.3 23.1
v -0.2 2.3 23.1
v -0.1 2.3 23.1
v 0 2.3 23.1
v -0.5 2.4 23.1
v -0.4 2.4 23.1
v -0.3 2.4 23.1
v -0.2 2.4 23.1
v -0.1 2.4 23.1
v 0 2.4 23.1
v -0.3 2.5 23.1
v -0.2 2.5 23.1
v -0.5 2.7 23.1
v -0.4 2.7 23.1
v -0.3 2.7 23.1
v -0.2 2.7 23.1
v -0.1 2.7 23.1
v 0 2.7 23.1
v -0.5 2.8 23.1
v -0.4 2.8 23.1
v -0.3 2.8 23.1
v -0.2 2.8 23.1
v -0.1 2.8 23.1
v 0 2.8 23.1
v -0.5 2.9 23.1
v -0.4 2.9 23.1
v -0.3 2.9 23.1
v -0.2 2.9 23.1
v -0.1 2.9 23.1
v 0 2.9 23.1
v 0.1 2.9 23.1
v 0.2 2.9 23.1
v -0.5 3 23.1
v -0.4 3 23.1
v -0.3 3 23.1
v -0.2 3 23.1
v -0.1 3 23.1
v 0 3 23.1
v 0.1 3 23.1
v 0.2 3 23.1
v -0.5 1.1 23.2
v -0.4 1.1 23.2
v 0.1 1.1 23.2
v 0.2 1.1 23.2
v -0.5 1.2 23.2
v -0.4 1.2 23.2
v 0.1 1.2 23.2
v 0.2 1.2 23.2
v -0.5 1.5 23.2
v -0.4 1.5 23.2
v 0.1 1.5 23.2
v 0.2 1.5 23.2
v -0.5 1.6 23.2
v -0.4 1.6 23.2
v 0.1 1.6 23.2
v 0.2 1.6 23.2
v -0.5 1.9 23.2
v -0.4 1.9 23.2
v 0.1 1.9 23.2
v 0.2 1.9 23.2
v -0.5 2 23.2
v -0.4 2 23.2
v 0.1 2 23.2
v 0.2 2 23.2
v -0.5 2.3 23.2
v -0.4 2.3 23.2
v 0.1 2.3 23.2
v 0.2 2.3 23.2
v -0.5 2.4 23.2
v -0.4 2.4 23.2
v 0.1 2.4 23.2
v 0.2 2.4 23.2
v -0.5 2.7 23.2
v -0.4 2.7 23.2
v 0.1 2.7 23.2
v 0.2 2.7 23.2
v -0.5 2.8 23.2
v -0.4 2.8 23.2
v 0.1 2.8 23.2
v 0.2 2.8 23.2
v -0.5 1.7 23
v -0.5 1.8 23
v -0.5 1.9 23
v -0.5 2.1 23
v -0.5 2.2 23
v -0.5 2.9 23
v -0.5 3 23
v -0.5 1.1 23.1
v -0.5 1.2 23.1
v -0.5 1.5 23.1
v -0.5 1.6 23.1
v -0.5 1.7 23.1
v -0.5 1.8 23.1
v -0.5 1.9 23.1
v -0.5 2 23.1
v -0.5 2.1 23.1
v -0.5 2.2 23.1
v -0.5 2.3 23.1
v -0.5 2.4 23.1
v -0.5 2.7 23.1
v -0.5 2.8 23.1
v -0.5 2.9 23.1
v -0.5 3 23.1
v -0.5 1.1 23.2
v -0.5 1.2 23.2
v -0.5 1.5 23.2
v -0.5 1.6 23.2
v -0.5 1.9 23.2
v -0.5 2 23.2
v -0.5 2.3 23.2
v -0.5 2.4 23.2
v -0.5 2.7 23.2
v -0.5 2.8 23.2
v -0.3 1.7 23
v -0.3 1.8 23
v -0.3 1.9 23
v -0.3 2.1 23
v -0.3 2.3 23
v -0.3 2.4 23
v -0.3 2.5 23
v -0.3 2.9 23
v -0.3 1.7 23.1
v -0.3 1.8 23.1
v -0.3 1.9 23.1
v -0.3 2 23.1
v -0.3 2.1 23.1
v -0.3 2.3 23.1
v -0.3 2.4 23.1
v -0.3 2.5 23.1
v -0.3 2.7 23.1
v -0.3 2.8 23.1
v -0.3 2.9 23.1
v -0.1 1.7 23
v -0.1 1.8 23
v -0.1 1.9 23
v -0.1 2 23
v -0.1 2.1 23
v -0.1 2.3 23
v -0.1 2.9 23
v -0.1 1.7 23.1
v -0.1 1.8 23.1
v -0.1 1.9 23.1
v -0.1 2 23.1
v -0.1 2.1 23.1
v -0.1 2.3 23.1
v -0.1 2.4 23.1
v -0.1 2.7 23.1
v -0.1 2.8 23.1
v -0.1 2.9 23.1
v -0.4 1.7 23
v -0.4 1.8 23
v -0.4 1.9 23
v -0.4 2.1 23
v -0.4 2.2 23
v -0.4 2.9 23
v -0.4 1.7 23.1
v -0.4 1.8 23.1
v -0.4 1.9 23.1
v -0.4 2 23.1
v -0.4 2.1 23.1
v -0.4 2.2 23.1
v -0.4 2.3 23.1
v -0.4 2.4 23.1
v -0.4 2.7 23.1
v -0.4 2.8 23.1
v -0.4 2.9 23.1
v -0.2 1.7 23
v -0.2 1.8 23
v -0.2 1.9 23
v -0.2 2.1 23
v -0.2 2.3 23
v -0.2 2.4 23
v -0.2 2.5 23
v -0.2 2.9 23
v -0.2 1.7 23.1
v -0.2 1.8 23.1
v -0.2 1.9 23.1
v -0.2 2 23.1
v -0.2 2.1 23.1
v -0.2 2.3 23.1
v -0.2 2.4 23.1
v -0.2 2.5 23.1
v -0.2 2.7 23.1
v -0.2 2.8 23.1
v -0.2 2.9 23.1
v 0 1.7 23
v 0 1.8 23
v 0 1.9 23
v 0 2 23
v 0 2.1 23
v 0 2.3 23
v 0 2.9 23
v 0 1.7 23.1
v 0 1.8 23.1
v 0 1.9 23.1
v 0 2 23.1
v 0 2.1 23.1
v 0 2.3 23.1
v 0 2.4 23.1
v 0 2.7 23.1
v 0 2.8 23.1
v 0 2.9 23.1
v 0.2 2.9 23
v 0.2 3 23
v 0.2 1.1 23.1
v 0.2 1.2 23.1
v 0.2 1.5 23.1
v 0.2 1.6 23.1
v 0.2 1.9 23.1
v 0.2 2 23.1
v 0.2 2.3 23.1
v 0.2 2.4 23.1
v 0.2 2.7 23.1
v 0.2 2.8 23.1
v 0.2 2.9 23.1
v 0.2 3 23.1
v 0.2 1.1 23.2
v 0.2 1.2 23.2
v 0.2 1.5 23.2
v 0.2 1.6 23.2
v 0.2 1.9 23.2
v 0.2 2 23.2
v 0.2 2.3 23.2
v 0.2 2.4 23.2
v 0.2 2.7 23.2
v 0.2 2.8 23.2
v -0.5 1.1 23.1
v -0.5 1.1 23.2
v -0.4 1.1 23.1
v -0.4 1.1 23.2
v 0.1 1.1 23.1
v 0.1 1.1 23.2
v 0.2 1.1 23.1
v 0.2 1.1 23.2
v -0.5 1.5 23.1
v -0.5 1.5 23.2
v -0.4 1.5 23.1
v -0.4 1.5 23.2
v 0.1 1.5 23.1
v 0.1 1.5 23.2
v 0.2 1.5 23.1
v 0.2 1.5 23.2
v -0.5 1.7 23
v -0.5 1.7 23.1
v -0.4 1.7 23
v -0.4 1.7 23.1
v -0.3 1.7 23
v -0.3 1.7 23.1
v -0.2 1.7 23
v -0.2 1.7 23.1
v -0.1 1.7 23
v -0.1 1.7 23.1
v 0 1.7 23
v 0 1.7 23.1
v -0.5 1.9 23.1
v -0.5 1.9 23.2
v -0.4 1.9 23.1
v -0.4 1.9 23.2
v -0.3 1.9 23.1
v -0.2 1.9 23.1
v -0.1 1.9 23.1
v 0 1.9 23.1
v 0.1 1.9 23.1
v 0.1 1.9 23.2
v 0.2 1.9 23.1
v 0.2 1.9 23.2
v -0.5 2.3 23.1
v -0.5 2.3 23.2
v -0.4 2.3 23.1
v -0.4 2.3 23.2
v -0.3 2.3 23.1
v -0.2 2.3 23.1
v -0.1 2.3 23.1
v 0 2.3 23.1
v 0.1 2.3 23.1
v 0.1 2.3 23.2
v 0.2 2.3 23.1
v 0.2 2.3 23.2
v -0.5 2.7 23.1
v -0.5 2.7 23.2
v -0.4 2.7 23.1
v -0.4 2.7 23.2
v -0.3 2.7 23.1
v -0.2 2.7 23.1
v -0.1 2.7 23.1
v 0 2.7 23.1
v 0.1 2.7 23.1
v 0.1 2.7 23.2
v 0.2 2.7 23.1
v 0.2 2.7 23.2
v -0.4 2.9 23
v -0.4 2.9 23.1
v -0.3 2.9 23
v -0.3 2.9 23.1
v -0.2 2.9 23
v -0.2 2.9 23.1
v -0.1 2.9 23
v -0.1 2.9 23.1
v 0 2.9 23
v 0 2.9 23.1
v 0.1 2.9 23
v 0.1 2.9 23.1
v 0.2 2.9 23
v 0.2 2.9 23.1
v -0.5 1.2 23.1
v -0.5 1.2 23.2
v -0.4 1.2 23.1
v -0.4 1.2 23.2
v 0.1 1.2 23.1
v 0.1 1.2 23.2
v 0.2 1.2 23.1
v 0.2 1.2 23.2
v -0.5 1.6 23.1
v -0.5 1.6 23.2
v -0.4 1.6 23.1
v -0.4 1.6 23.2
v 0.1 1.6 23.1
v 0.1 1.6 23.2
v 0.2 1.6 23.1
v 0.2 1.6 23.2
v -0.5 2 23.1
v -0.5 2 23.2
v -0.4 2 23.1
v -0.4 2 23.2
v -0.3 2 23.1
v -0.2 2 23.1
v -0.1 2 23.1
v 0 2 23.1
v 0.1 2 23.1
v 0.1 2 23.2
v 0.2 2 23.1
v 0.2 2 23.2
v -0.5 2.4 23.1
v -0.5 2.4 23.2
v -0.4 2.4 23.1
v -0.4 2.4 23.2
v -0.3 2.4 23.1
v -0.2 2.4 23.1
v -0.1 2.4 23.1
v 0 2.4 23.1
v 0.1 2.4 23.1
v 0.1 2.4 23.2
v 0.2 2.4 23.1
v 0.2 2.4 23.2
v -0.5 2.8 23.1
v -0.5 2.8 23.2
v -0.4 2.8 23.1
v -0.4 2.8 23.2
v -0.3 2.8 23.1
v -0.2 2.8 23.1
v -0.1 2.8 23.1
v 0 2.8 23.1
v 0.1 2.8 23.1
v 0.1 2.8 23.2
v 0.2 2.8 23.1
v 0.2 2.8 23.2
v -0.5 3 23
v -0.5 3 23.1
v -0.4 3 23
v -0.4 3 23.1
v -0.3 3 23
v -0.3 3 23.1
v -0.2 3 23
v -0.2 3 23.1
v -0.1 3 23
v -0.1 3 23.1
v 0 3 23
v 0 3 23.1
v 0.1 3 23
v 0.1 3 23.1
v 0.2 3 23
v 0.2 3 23.1

# faces
f 7/3/1 2/3/1 1/3/1
f 8/3/1 2/3/1 7/3/1
f 9/3/1 4/3/1 3/3/1
f 10/3/1 4/3/1 9/3/1
f 11/3/1 6/3/1 5/3/1
f 12/3/1 6/3/1 11/3/1
f 13/1/1 8/1/1 7/1/1
f 14/1/1 8/1/1 13/1/1
f 15/1/1 10/1/1 9/1/1
f 16/1/1 10/1/1 15/1/1
f 17/1/1 12/1/1 11/1/1
f 18/1/1 12/1/1 17/1/1
f 19/3/1 18/3/1 17/3/1
f 20/3/1 18/3/1 19/3/1
f 21/3/1 14/3/1 13/3/1
f 22/3/1 14/3/1 21/3/1
f 23/3/1 16/3/1 15/3/1
f 24/3/1 16/3/1 23/3/1
f 25/2/1 20/2/1 19/2/1
f 26/2/1 20/2/1 25/2/1
f 27/1/1 22/1/1 21/1/1
f 28/1/1 22/1/1 27/1/1
f 29/1/1 24/1/1 23/1/1
f 30/1/1 24/1/1 29/1/1
f 31/1/1 26/1/1 25/1/1
f 32/1/1 26/1/1 31/1/1
f 33/3/1 30/3/1 29/3/1
f 34/3/1 30/3/1 33/3/1
f 35/2/1 34/2/1 33/2/1
f 36/2/1 34/2/1 35/2/1
f 37/3/1 28/3/1 27/3/1
f 38/3/1 28/3/1 37/3/1
f 39/3/1 36/3/1 35/3/1
f 40/3/1 36/3/1 39/3/1
f 41/3/1 32/3/1 31/3/1
f 42/3/1 32/3/1 41/3/1
f 45/2/1 38/2/1 37/2/1
f 46/5/1 39/5/1 38/5/1
f 46/2/1 38/2/1 45/2/1
f 47/2/1 40/2/1 39/2/1
f 47/5/1 39/5/1 46/5/1
f 48/5/1 41/5/1 40/5/1
f 48/2/1 40/2/1 47/2/1
f 49/2/1 42/2/1 41/2/1
f 49/5/1 41/5/1 48/5/1
f 50/5/1 43/5/1 42/5/1
f 50/2/1 42/2/1 49/2/1
f 51/2/1 44/2/1 43/2/1
f 51/5/1 43/5/1 50/5/1
f 52/2/1 44/2/1 51/2/1
f 57/4/1 54/4/1 53/4/1
f 58/5/1 55/5/1 54/5/1
f 58/4/1 54/4/1 57/4/1
f 59/4/1 56/4/1 55/4/1
f 59/5/1 55/5/1 58/5/1
f 60/4/1 56/4/1 59/4/1
f 65/4/1 62/4/1 61/4/1
f 66/5/1 63/5/1 62/5/1
f 66/4/1 62/4/1 65/4/1
f 67/4/1 64/4/1 63/4/1
f 67/5/1 63/5/1 66/5/1
f 68/4/1 64/4/1 67/4/1
f 76/5/1 70/5/1 69/5/1
f 77/5/1 70/5/1 76/5/1
f 78/5/1 72/5/1 71/5/1
f 79/5/1 72/5/1 78/5/1
f 80/5/1 74/5/1 73/5/1
f 81/4/1 75/4/1 74/4/1
f 81/5/1 74/5/1 80/5/1
f 82/4/1 75/4/1 81/4/1
f 90/5/1 84/5/1 83/5/1
f 91/5/1 84/5/1 90/5/1
f 92/5/1 86/5/1 85/5/1
f 93/5/1 86/5/1 92/5/1
f 94/5/1 88/5/1 87/5/1
f 95/4/1 89/4/1 88/4/1
f 95/5/1 88/5/1 94/5/1
f 96/4/1 89/4/1 95/4/1
f 104/5/1 98/5/1 97/5/1
f 105/5/1 98/5/1 104/5/1
f 106/5/1 100/5/1 99/5/1
f 107/5/1 100/5/1 106/5/1
f 108/5/1 102/5/1 101/5/1
f 109/4/1 103/4/1 102/4/1
f 109/5/1 102/5/1 108/5/1
f 110/4/1 103/4/1 109/4/1
f 111/3/2 112/3/2 117/3/2
f 117/3/2 112/3/2 118/3/2
f 113/3/2 114/3/2 119/3/2
f 119/3/2 114/3/2 120/3/2
f 115/3/2 116/3/2 121/3/2
f 121/3/2 116/3/2 122/3/2
f 117/1/2 118/1/2 123/1/2
f 123/1/2 118/1/2 124/1/2
f 119/1/2 120/1/2 125/1/2
f 125/1/2 120/1/2 126/1/2
f 121/1/2 122/1/2 127/1/2
f 127/1/2 122/1/2 128/1/2
f 129/3/2 130/3/2 135/3/2
f 135/3/2 130/3/2 136/3/2
f 131/3/2 132/3/2 137/3/2
f 137/3/2 132/3/2 138/3/2
f 133/2/2 134/2/2 139/2/2
f 139/2/2 134/2/2 140/2/2
f 135/1/2 136/1/2 141/1/2
f 141/1/2 136/1/2 142/1/2
f 141/3/2 142/3/2 143/3/2
f 143/3/2 142/3/2 144/3/2
f 137/1/2 138/1/2 145/1/2
f 145/1/2 138/1/2 146/1/2
f 139/1/2 140/1/2 147/1/2
f 147/1/2 140/1/2 148/1/2
f 151/2/2 152/2/2 155/2/2
f 155/2/2 152/2/2 156/2/2
f 149/3/2 150/3/2 157/3/2
f 157/3/2 150/3/2 158/3/2
f 155/3/2 156/3/2 159/3/2
f 159/3/2 156/3/2 160/3/2
f 153/3/2 154/3/2 161/3/2
f 161/3/2 154/3/2 162/3/2
f 163/3/2 164/3/2 169/3/2
f 169/3/2 164/3/2 170/3/2
f 165/3/2 166/3/2 171/3/2
f 171/3/2 166/3/2 172/3/2
f 167/3/2 168/3/2 173/3/2
f 173/3/2 168/3/2 174/3/2
f 169/2/2 170/2/2 177/2/2
f 170/5/2 171/5/2 178/5/2
f 177/2/2 170/2/2 178/2/2
f 171/2/2 172/2/2 179/2/2
f 178/5/2 171/5/2 179/5/2
f 172/5/2 173/5/2 180/5/2
f 179/2/2 172/2/2 180/2/2
f 173/2/2 174/2/2 181/2/2
f 180/5/2 173/5/2 181/5/2
f 174/5/2 175/5/2 182/5/2
f 181/2/2 174/2/2 182/2/2
f 175/2/2 176/2/2 183/2/2
f 182/5/2 175/5/2 183/5/2
f 183/2/2 176/2/2 184/2/2
f 185/4/2 186/4/2 189/4/2
f 186/5/2 187/5/2 190/5/2
f 189/4/2 186/4/2 190/4/2
f 187/4/2 188/4/2 191/4/2
f 190/5/2 187/5/2 191/5/2
f 191/4/2 188/4/2 192/4/2
f 193/4/2 194/4/2 197/4/2
f 194/5/2 195/5/2 198/5/2
f 197/4/2 194/4/2 198/4/2
f 195/4/2 196/4/2 199/4/2
f 198/5/2 195/5/2 199/5/2
f 199/4/2 196/4/2 200/4/2
f 201/4/2 202/4/2 205/4/2
f 202/5/2 203/5/2 206/5/2
f 205/4/2 202/4/2 206/4/2
f 203/4/2 204/4/2 207/4/2
f 206/5/2 203/5/2 207/5/2
f 207/4/2 204/4/2 208/4/2
f 209/4/2 210/4/2 213/4/2
f 210/5/2 211/5/2 214/5/2
f 213/4/2 210/4/2 214/4/2
f 211/4/2 212/4/2 215/4/2
f 214/5/2 211/5/2 215/5/2
f 215/4/2 212/4/2 216/4/2
f 217/4/2 218/4/2 221/4/2
f 218/5/2 219/5/2 222/5/2
f 221/4/2 218/4/2 222/4/2
f 219/4/2 220/4/2 223/4/2
f 222/5/2 219/5/2 223/5/2
f 223/4/2 220/4/2 224/4/2
f 236/3/3 226/3/3 225/3/3
f 237/1/3 227/1/3 226/1/3
f 237/3/3 226/3/3 236/3/3
f 238/3/3 228/3/3 227/3/3
f 238/1/3 227/1/3 237/1/3
f 239/3/3 228/3/3 238/3/3
f 240/1/3 229/1/3 228/1/3
f 240/3/3 228/3/3 239/3/3
f 241/3/3 230/3/3 229/3/3
f 241/1/3 229/1/3 240/1/3
f 242/3/3 230/3/3 241/3/3
f 243/3/3 230/3/3 242/3/3
f 244/3/3 230/3/3 243/3/3
f 245/3/3 230/3/3 244/3/3
f 246/2/3 231/2/3 230/2/3
f 246/3/3 230/3/3 245/3/3
f 247/2/3 231/2/3 246/2/3
f 248/4/3 233/4/3 232/4/3
f 249/4/3 233/4/3 248/4/3
f 250/4/3 235/4/3 234/4/3
f 251/4/3 235/4/3 250/4/3
f 252/4/3 239/4/3 238/4/3
f 253/4/3 239/4/3 252/4/3
f 254/4/3 243/4/3 242/4/3
f 255/4/3 243/4/3 254/4/3
f 256/4/3 245/4/3 244/4/3
f 257/4/3 245/4/3 256/4/3
f 266/3/3 259/3/3 258/3/3
f 267/1/3 260/1/3 259/1/3
f 267/3/3 259/3/3 266/3/3
f 268/3/3 261/3/3 260/3/3
f 268/1/3 260/1/3 267/1/3
f 269/3/3 261/3/3 268/3/3
f 270/1/3 262/1/3 261/1/3
f 270/3/3 261/3/3 269/3/3
f 271/3/3 263/3/3 262/3/3
f 271/1/3 262/1/3 270/1/3
f 272/2/3 264/2/3 263/2/3
f 272/3/3 263/3/3 271/3/3
f 273/3/3 265/3/3 264/3/3
f 273/2/3 264/2/3 272/2/3
f 274/3/3 265/3/3 273/3/3
f 275/3/3 265/3/3 274/3/3
f 276/3/3 265/3/3 275/3/3
f 284/3/3 278/3/3 277/3/3
f 285/1/3 279/1/3 278/1/3
f 285/3/3 278/3/3 284/3/3
f 286/3/3 280/3/3 279/3/3
f 286/1/3 279/1/3 285/1/3
f 287/2/3 281/2/3 280/2/3
f 287/3/3 280/3/3 286/3/3
f 288/1/3 282/1/3 281/1/3
f 288/2/3 281/2/3 287/2/3
f 289/3/3 283/3/3 282/3/3
f 289/1/3 282/1/3 288/1/3
f 290/3/3 283/3/3 289/3/3
f 291/3/3 283/3/3 290/3/3
f 292/3/3 283/3/3 291/3/3
f 293/3/3 283/3/3 292/3/3
f 294/3/4 295/3/4 300/3/4
f 295/1/4 296/1/4 301/1/4
f 300/3/4 295/3/4 301/3/4
f 296/3/4 297/3/4 302/3/4
f 301/1/4 296/1/4 302/1/4
f 302/3/4 297/3/4 303/3/4
f 297/1/4 298/1/4 304/1/4
f 303/3/4 297/3/4 304/3/4
f 298/3/4 299/3/4 305/3/4
f 304/1/4 298/1/4 305/1/4
f 305/3/4 299/3/4 306/3/4
f 306/3/4 299/3/4 307/3/4
f 307/3/4 299/3/4 308/3/4
f 308/3/4 299/3/4 309/3/4
f 309/3/4 299/3/4 310/3/4
f 311/3/4 312/3/4 319/3/4
f 312/1/4 313/1/4 320/1/4
f 319/3/4 312/3/4 320/3/4
f 313/3/4 314/3/4 321/3/4
f 320/1/4 313/1/4 321/1/4
f 321/3/4 314/3/4 322/3/4
f 314/1/4 315/1/4 323/1/4
f 322/3/4 314/3/4 323/3/4
f 315/3/4 316/3/4 324/3/4
f 323/1/4 315/1/4 324/1/4
f 316/2/4 317/2/4 325/2/4
f 324/3/4 316/3/4 325/3/4
f 317/3/4 318/3/4 326/3/4
f 325/2/4 317/2/4 326/2/4
f 326/3/4 318/3/4 327/3/4
f 327/3/4 318/3/4 328/3/4
f 328/3/4 318/3/4 329/3/4
f 330/3/4 331/3/4 337/3/4
f 331/1/4 332/1/4 338/1/4
f 337/3/4 331/3/4 338/3/4
f 332/3/4 333/3/4 339/3/4
f 338/1/4 332/1/4 339/1/4
f 333/2/4 334/2/4 340/2/4
f 339/3/4 333/3/4 340/3/4
f 334/1/4 335/1/4 341/1/4
f 340/2/4 334/2/4 341/2/4
f 335/3/4 336/3/4 342/3/4
f 341/1/4 335/1/4 342/1/4
f 342/3/4 336/3/4 343/3/4
f 343/3/4 336/3/4 344/3/4
f 344/3/4 336/3/4 345/3/4
f 345/3/4 336/3/4 346/3/4
f 347/2/4 348/2/4 359/2/4
f 359/2/4 348/2/4 360/2/4
f 349/4/4 350/4/4 361/4/4
f 361/4/4 350/4/4 362/4/4
f 351/4/4 352/4/4 363/4/4
f 363/4/4 352/4/4 364/4/4
f 353/4/4 354/4/4 365/4/4
f 365/4/4 354/4/4 366/4/4
f 355/4/4 356/4/4 367/4/4
f 367/4/4 356/4/4 368/4/4
f 357/4/4 358/4/4 369/4/4
f 369/4/4 358/4/4 370/4/4
f 373/4/5 372/4/5 371/4/5
f 374/4/5 372/4/5 373/4/5
f 375/5/5 374/5/5 373/5/5
f 376/5/5 374/5/5 375/5/5
f 377/4/5 376/4/5 375/4/5
f 378/4/5 376/4/5 377/4/5
f 381/4/5 380/4/5 379/4/5
f 382/4/5 380/4/5 381/4/5
f 383/5/5 382/5/5 381/5/5
f 384/5/5 382/5/5 383/5/5
f 385/4/5 384/4/5 383/4/5
f 386/4/5 384/4/5 385/4/5
f 389/3/5 388/3/5 387/3/5
f 390/3/5 388/3/5 389/3/5
f 393/3/5 392/3/5 391/3/5
f 394/3/5 392/3/5 393/3/5
f 397/3/5 396/3/5 395/3/5
f 398/3/5 396/3/5 397/3/5
f 401/4/5 400/4/5 399/4/5
f 402/4/5 400/4/5 401/4/5
f 403/5/5 402/5/5 401/5/5
f 404/5/5 402/5/5 403/5/5
f 405/5/5 402/5/5 404/5/5
f 406/5/5 402/5/5 405/5/5
f 407/5/5 402/5/5 406/5/5
f 408/5/5 402/5/5 407/5/5
f 409/4/5 408/4/5 407/4/5
f 410/4/5 408/4/5 409/4/5
f 413/4/5 412/4/5 411/4/5
f 414/4/5 412/4/5 413/4/5
f 415/5/5 414/5/5 413/5/5
f 416/5/5 414/5/5 415/5/5
f 417/5/5 414/5/5 416/5/5
f 418/5/5 414/5/5 417/5/5
f 419/5/5 414/5/5 418/5/5
f 420/5/5 414/5/5 419/5/5
f 421/4/5 420/4/5 419/4/5
f 422/4/5 420/4/5 421/4/5
f 425/4/5 424/4/5 423/4/5
f 426/4/5 424/4/5 425/4/5
f 427/5/5 426/5/5 425/5/5
f 428/5/5 426/5/5 427/5/5
f 429/5/5 426/5/5 428/5/5
f 430/5/5 426/5/5 429/5/5
f 431/5/5 426/5/5 430/5/5
f 432/5/5 426/5/5 431/5/5
f 433/4/5 432/4/5 431/4/5
f 434/4/5 432/4/5 433/4/5
f 437/5/5 436/5/5 435/5/5
f 438/5/5 436/5/5 437/5/5
f 441/5/5 440/5/5 439/5/5
f 442/5/5 440/5/5 441/5/5
f 445/5/5 444/5/5 443/5/5
f 446/5/5 444/5/5 445/5/5
f 447/2/5 446/2/5 445/2/5
f 448/2/5 446/2/5 447/2/5
f 449/4/6 450/4/6 451/4/6
f 451/4/6 450/4/6 452/4/6
f 451/5/6 452/5/6 453/5/6
f 453/5/6 452/5/6 454/5/6
f 453/4/6 454/4/6 455/4/6
f 455/4/6 454/4/6 456/4/6
f 457/4/6 458/4/6 459/4/6
f 459/4/6 458/4/6 460/4/6
f 459/5/6 460/5/6 461/5/6
f 461/5/6 460/5/6 462/5/6
f 461/4/6 462/4/6 463/4/6
f 463/4/6 462/4/6 464/4/6
f 465/4/6 466/4/6 467/4/6
f 467/4/6 466/4/6 468/4/6
f 467/5/6 468/5/6 469/5/6
f 469/5/6 468/5/6 470/5/6
f 470/5/6 468/5/6 471/5/6
f 471/5/6 468/5/6 472/5/6
f 472/5/6 468/5/6 473/5/6
f 473/5/6 468/5/6 474/5/6
f 473/4/6 474/4/6 475/4/6
f 475/4/6 474/4/6 476/4/6
f 477/4/6 478/4/6 479/4/6
f 479/4/6 478/4/6 480/4/6
f 479/5/6 480/5/6 481/5/6
f 481/5/6 480/5/6 482/5/6
f 482/5/6 480/5/6 483/5/6
f 483/5/6 480/5/6 484/5/6
f 484/5/6 480/5/6 485/5/6
f 485/5/6 480/5/6 486/5/6
f 485/4/6 486/4/6 487/4/6
f 487/4/6 486/4/6 488/4/6
f 489/4/6 490/4/6 491/4/6
f 491/4/6 490/4/6 492/4/6
f 491/5/6 492/5/6 493/5/6
f 493/5/6 492/5/6 494/5/6
f 494/5/6 492/5/6 495/5/6
f 495/5/6 492/5/6 496/5/6
f 496/5/6 492/5/6 497/5/6
f 497/5/6 492/5/6 498/5/6
f 497/4/6 498/4/6 499/4/6
f 499/4/6 498/4/6 500/4/6
f 501/2/6 502/2/6 503/2/6
f 503/2/6 502/2/6 504/2/6
f 503/5/6 504/5/6 505/5/6
f 505/5/6 504/5/6 506/5/6
f 505/2/6 506/2/6 507/2/6
f 507/2/6 506/2/6 508/2/6
f 507/5/6 508/5/6 509/5/6
f 509/5/6 508/5/6 510/5/6
f 509/2/6 510/2/6 511/2/6
f 511/2/6 510/2/6 512/2/6
f 511/5/6 512/5/6 513/5/6
f 513/5/6 512/5/6 514/5/6
f 513/2/6 514/2/6 515/2/6
f 515/2/6 514/2/6 516/2/6
