# MagicaVoxel @ Ephtracy

# group
o 

# material
mtllib TallBuilding03-4.mtl
usemtl palette

# normals
vn -1 0 0
vn 1 0 0
vn 0 0 1
vn 0 0 -1
vn 0 -1 0
vn 0 1 0

# texcoords
vt 0.908203 0.5
vt 0.912109 0.5
vt 0.970703 0.5

# verts
v -0.4 -0.05 0.05
v -0.4 -0.05 -0.05
v -0.4 0.05 0.15
v -0.4 0.05 0.05
v -0.4 0.05 -0.05
v -0.4 0.05 -0.15
v -0.4 0.15 0.15
v -0.4 0.15 -0.15
v 0 -0.25 0.05
v 0 -0.25 -0.05
v 0 -0.15 0.05
v 0 -0.15 -0.05
v 0 -0.05 0.05
v 0 -0.05 -0.05
v 0 0.05 0.05
v 0 0.05 -0.05
v 0 0.15 0.05
v 0 0.15 -0.05
v 0 0.25 0.05
v 0 0.25 -0.05
v 0.3 -0.05 0.05
v 0.3 -0.05 -0.05
v 0.3 0.05 0.05
v 0.3 0.05 -0.05
v -0.3 -0.05 0.05
v -0.3 -0.05 -0.05
v -0.3 0.05 0.15
v -0.3 0.05 0.05
v -0.3 0.05 -0.05
v -0.3 0.05 -0.15
v -0.3 0.15 0.15
v -0.3 0.15 0.05
v -0.3 0.15 -0.05
v -0.3 0.15 -0.15
v 0.1 -0.25 0.05
v 0.1 -0.25 -0.05
v 0.1 -0.15 0.05
v 0.1 -0.15 -0.05
v 0.1 -0.05 0.05
v 0.1 -0.05 -0.05
v 0.1 0.05 0.05
v 0.1 0.05 -0.05
v 0.1 0.15 0.05
v 0.1 0.15 -0.05
v 0.1 0.25 0.05
v 0.1 0.25 -0.05
v 0.4 -0.15 0.05
v 0.4 -0.15 -0.05
v 0.4 0.15 0.05
v 0.4 0.15 -0.05
v -0.4 0.05 0.15
v -0.4 0.15 0.15
v -0.3 0.05 0.15
v -0.3 0.15 0.15
v -0.4 -0.05 0.05
v -0.4 0.05 0.05
v -0.3 -0.05 0.05
v -0.3 0.05 0.05
v -0.3 0.15 0.05
v -0.2 0.05 0.05
v -0.2 0.15 0.05
v 0 -0.25 0.05
v 0 -0.15 0.05
v 0 -0.05 0.05
v 0 0.05 0.05
v 0 0.15 0.05
v 0 0.25 0.05
v 0.1 -0.25 0.05
v 0.1 -0.15 0.05
v 0.1 -0.05 0.05
v 0.1 0.05 0.05
v 0.1 0.15 0.05
v 0.1 0.25 0.05
v 0.3 -0.05 0.05
v 0.3 0.05 0.05
v 0.4 -0.15 0.05
v 0.4 0.15 0.05
v -0.4 -0.05 -0.05
v -0.4 0.05 -0.05
v -0.3 -0.05 -0.05
v -0.3 0.05 -0.05
v -0.3 0.15 -0.05
v -0.2 0.05 -0.05
v -0.2 0.15 -0.05
v 0 -0.25 -0.05
v 0 -0.15 -0.05
v 0 -0.05 -0.05
v 0 0.05 -0.05
v 0 0.15 -0.05
v 0 0.25 -0.05
v 0.1 -0.25 -0.05
v 0.1 -0.15 -0.05
v 0.1 -0.05 -0.05
v 0.1 0.05 -0.05
v 0.1 0.15 -0.05
v 0.1 0.25 -0.05
v 0.3 -0.05 -0.05
v 0.3 0.05 -0.05
v 0.4 -0.15 -0.05
v 0.4 0.15 -0.05
v -0.4 0.05 -0.15
v -0.4 0.15 -0.15
v -0.3 0.05 -0.15
v -0.3 0.15 -0.15
v 0 -0.25 0.05
v 0.1 -0.25 0.05
v 0 -0.25 -0.05
v 0.1 -0.25 -0.05
v 0.1 -0.15 0.05
v 0.4 -0.15 0.05
v 0.1 -0.15 -0.05
v 0.4 -0.15 -0.05
v -0.4 -0.05 0.05
v -0.3 -0.05 0.05
v -0.4 -0.05 -0.05
v -0.3 -0.05 -0.05
v -0.4 0.05 0.15
v -0.3 0.05 0.15
v -0.4 0.05 0.05
v -0.3 0.05 0.05
v -0.2 0.05 0.05
v 0 0.05 0.05
v 0.1 0.05 0.05
v 0.3 0.05 0.05
v -0.4 0.05 -0.05
v -0.3 0.05 -0.05
v -0.2 0.05 -0.05
v 0 0.05 -0.05
v 0.1 0.05 -0.05
v 0.3 0.05 -0.05
v -0.4 0.05 -0.15
v -0.3 0.05 -0.15
v 0.1 -0.05 0.05
v 0.3 -0.05 0.05
v 0.1 -0.05 -0.05
v 0.3 -0.05 -0.05
v -0.4 0.15 0.15
v -0.3 0.15 0.15
v -0.3 0.15 0.05
v -0.2 0.15 0.05
v 0 0.15 0.05
v 0.1 0.15 0.05
v 0.4 0.15 0.05
v -0.3 0.15 -0.05
v -0.2 0.15 -0.05
v 0 0.15 -0.05
v 0.1 0.15 -0.05
v 0.4 0.15 -0.05
v -0.4 0.15 -0.15
v -0.3 0.15 -0.15
v 0 0.25 0.05
v 0.1 0.25 0.05
v 0 0.25 -0.05
v 0.1 0.25 -0.05

# faces
f 4/1/1 2/1/1 1/1/1
f 5/1/1 2/1/1 4/1/1
f 7/2/1 4/2/1 3/2/1
f 7/2/1 6/2/1 5/2/1
f 7/2/1 5/2/1 4/2/1
f 8/2/1 6/2/1 7/2/1
f 11/2/1 10/2/1 9/2/1
f 12/2/1 10/2/1 11/2/1
f 13/1/1 12/1/1 11/1/1
f 14/1/1 12/1/1 13/1/1
f 15/3/1 14/3/1 13/3/1
f 16/3/1 14/3/1 15/3/1
f 19/2/1 18/2/1 17/2/1
f 20/2/1 18/2/1 19/2/1
f 23/2/1 22/2/1 21/2/1
f 24/2/1 22/2/1 23/2/1
f 25/1/2 26/1/2 28/1/2
f 28/1/2 26/1/2 29/1/2
f 27/2/2 28/2/2 31/2/2
f 31/2/2 28/2/2 32/2/2
f 29/2/2 30/2/2 33/2/2
f 33/2/2 30/2/2 34/2/2
f 35/2/2 36/2/2 37/2/2
f 37/2/2 36/2/2 38/2/2
f 39/3/2 40/3/2 41/3/2
f 41/3/2 40/3/2 42/3/2
f 43/2/2 44/2/2 45/2/2
f 45/2/2 44/2/2 46/2/2
f 47/2/2 48/2/2 49/2/2
f 49/2/2 48/2/2 50/2/2
f 53/2/3 52/2/3 51/2/3
f 54/2/3 52/2/3 53/2/3
f 57/1/3 56/1/3 55/1/3
f 58/1/3 56/1/3 57/1/3
f 60/1/3 59/1/3 58/1/3
f 61/1/3 59/1/3 60/1/3
f 65/2/3 61/2/3 60/2/3
f 66/2/3 61/2/3 65/2/3
f 68/2/3 63/2/3 62/2/3
f 69/1/3 64/1/3 63/1/3
f 69/2/3 63/2/3 68/2/3
f 70/3/3 65/3/3 64/3/3
f 70/1/3 64/1/3 69/1/3
f 71/1/3 66/1/3 65/1/3
f 71/3/3 65/3/3 70/3/3
f 72/2/3 67/2/3 66/2/3
f 72/1/3 66/1/3 71/1/3
f 73/2/3 67/2/3 72/2/3
f 74/2/3 70/2/3 69/2/3
f 75/2/3 72/2/3 71/2/3
f 76/2/3 74/2/3 69/2/3
f 76/2/3 75/2/3 74/2/3
f 77/2/3 72/2/3 75/2/3
f 77/2/3 75/2/3 76/2/3
f 78/1/4 79/1/4 80/1/4
f 80/1/4 79/1/4 81/1/4
f 81/1/4 82/1/4 83/1/4
f 83/1/4 82/1/4 84/1/4
f 83/2/4 84/2/4 88/2/4
f 88/2/4 84/2/4 89/2/4
f 85/2/4 86/2/4 91/2/4
f 86/1/4 87/1/4 92/1/4
f 91/2/4 86/2/4 92/2/4
f 87/3/4 88/3/4 93/3/4
f 92/1/4 87/1/4 93/1/4
f 88/1/4 89/1/4 94/1/4
f 93/3/4 88/3/4 94/3/4
f 89/2/4 90/2/4 95/2/4
f 94/1/4 89/1/4 95/1/4
f 95/2/4 90/2/4 96/2/4
f 92/2/4 93/2/4 97/2/4
f 94/2/4 95/2/4 98/2/4
f 92/2/4 97/2/4 99/2/4
f 97/2/4 98/2/4 99/2/4
f 98/2/4 95/2/4 100/2/4
f 99/2/4 98/2/4 100/2/4
f 101/2/4 102/2/4 103/2/4
f 103/2/4 102/2/4 104/2/4
f 107/2/5 106/2/5 105/2/5
f 108/2/5 106/2/5 107/2/5
f 111/2/5 110/2/5 109/2/5
f 112/2/5 110/2/5 111/2/5
f 115/1/5 114/1/5 113/1/5
f 116/1/5 114/1/5 115/1/5
f 119/2/5 118/2/5 117/2/5
f 120/2/5 118/2/5 119/2/5
f 126/1/5 121/1/5 120/1/5
f 127/2/5 122/2/5 121/2/5
f 127/1/5 121/1/5 126/1/5
f 128/2/5 122/2/5 127/2/5
f 129/2/5 124/2/5 123/2/5
f 130/2/5 124/2/5 129/2/5
f 131/2/5 126/2/5 125/2/5
f 132/2/5 126/2/5 131/2/5
f 133/2/6 134/2/6 135/2/6
f 135/2/6 134/2/6 136/2/6
f 137/2/6 138/2/6 139/2/6
f 137/2/6 139/2/6 144/2/6
f 139/1/6 140/1/6 144/1/6
f 140/2/6 141/2/6 145/2/6
f 144/1/6 140/1/6 145/1/6
f 145/2/6 141/2/6 146/2/6
f 142/2/6 143/2/6 147/2/6
f 147/2/6 143/2/6 148/2/6
f 137/2/6 144/2/6 149/2/6
f 149/2/6 144/2/6 150/2/6
f 151/2/6 152/2/6 153/2/6
f 153/2/6 152/2/6 154/2/6
